<svg width="724" height="221" viewBox="0 0 724 221" fill="none" xmlns="http://www.w3.org/2000/svg">
<path d="M713.336 108.653L713.388 108.583L713.438 108.512C717.969 102.039 718.663 93.3359 716.522 86.1431C714.372 78.9176 708.878 71.8661 699.74 70.4328C698.829 70.2368 697.814 70.1508 697.068 70.0972C696.028 70.0224 694.781 69.9694 693.434 69.9309C690.73 69.8536 687.409 69.8289 684.102 69.827C680.825 69.8251 677.616 69.8447 674.943 69.8609C672.086 69.8783 669.84 69.892 668.776 69.8718L668.451 69.8657L668.127 69.8947C662.499 70.3995 653.929 70.173 644.636 69.9273L643.47 69.8966C634.217 69.6531 624.313 69.4192 617.329 70.1519C612.405 70.2412 608.708 73.2211 606.7 75.0486C601.189 70.6087 594.116 69.2557 587.704 70.3162C581.961 71.2659 576.332 74.2146 572.419 79.0267C572.276 78.8918 572.128 78.7568 571.973 78.624C571.623 78.3244 571.151 77.9576 570.565 77.6161C565.152 73.0081 558.597 71.1242 552.501 70.3343C547.076 69.6312 541.446 69.7416 536.769 69.8333C536.093 69.8466 535.437 69.8594 534.805 69.8694C530.894 69.7614 527.841 70.301 525.307 71.2815C523.075 72.1447 521.447 73.3015 520.553 73.9369C520.48 73.9884 520.413 74.0365 520.35 74.0807C519.997 73.9238 519.446 73.6462 518.65 73.16L518.29 72.9407L517.904 72.7736C511.409 69.9651 504.307 68.8571 497.265 69.5541C490.694 70.2045 484.379 72.4066 478.837 75.9703C478.768 75.9193 478.693 75.8646 478.614 75.8059L478.553 75.7613C478.067 75.4021 477.257 74.8043 476.321 74.2913C471.191 70.8659 464.589 70.0448 459.164 69.8125C456.262 69.6882 453.361 69.7283 450.765 69.7757C450.501 69.7805 450.241 69.7853 449.985 69.7901C447.729 69.8323 445.782 69.8687 444.078 69.8198C435.966 69.06 430.551 72.6937 427.254 75.6004C427.188 75.6587 427.123 75.7168 427.058 75.7747C419.348 69.1035 407.698 67.9276 398.778 73.2296C398.25 73.4063 397.687 73.4633 397.131 73.3947C396.468 73.313 395.839 73.0557 395.309 72.6495C394.779 72.2433 394.367 71.7028 394.115 71.0841C393.866 70.4705 393.784 69.8019 393.877 69.1463C394.824 62.9798 393.423 56.6852 389.956 51.5057C389.282 50.3578 388.473 49.5182 387.892 48.9706C388.453 48.4387 389.226 47.6369 389.887 46.5564C394.432 40.1228 395.124 31.461 393.036 24.3094C390.913 17.0373 385.413 9.8822 376.221 8.44435C375.286 8.23969 374.247 8.15306 373.501 8.09965C372.437 8.02341 371.157 7.9702 369.775 7.9321C367.001 7.85567 363.594 7.83451 360.223 7.83576C357.178 7.8369 354.221 7.85513 351.721 7.87054C348.52 7.89028 346.066 7.9054 345.134 7.87413L345.033 7.87076H344.933C339.237 7.87076 334.079 9.17282 329.799 12.2336C323.845 9.43261 316.353 7.93718 309.255 7.55805C300.968 7.1154 291.951 8.1269 285.379 11.429C273.47 7.32384 259.597 4.56711 246.004 12.6798C227.311 3.7981 203.105 6.45865 189.629 24.8369C139.719 2.65108 98.2609 2.76883 67.1735 16.3693C35.1516 30.3786 15.0519 58.3145 8.42784 88.5557C1.81134 118.762 8.56594 151.658 30.7009 175.567C52.9326 199.58 89.838 213.651 141.792 207.904L141.907 207.892L142.02 207.875C163.478 204.665 176.01 195.88 183.351 190.426C183.703 190.164 184.032 189.919 184.342 189.688C184.634 189.47 184.908 189.266 185.167 189.073L185.284 189.343C196.088 214.075 225.262 219.759 246.25 209.354C251.738 212.442 257.866 214.261 264.183 214.657C271.469 215.114 278.743 213.659 285.287 210.444C293.017 213.937 304.647 216.63 314.125 209.88C314.224 209.952 314.331 210.031 314.449 210.117L314.47 210.133C314.869 210.425 315.413 210.824 315.993 211.2C316.938 211.813 318.569 212.77 320.661 213.065C324.473 214.071 328.934 214.324 333.141 213.735C336.374 213.283 339.91 212.267 342.961 210.323C347.375 212.535 352.154 213.951 357.077 214.498C362.933 215.149 368.858 214.554 374.465 212.755C374.639 212.799 375.06 212.917 375.886 213.23C375.982 213.267 376.09 213.309 376.21 213.357C377.522 213.871 380.237 214.936 383.335 214.649C389.275 214.855 393.016 212.141 395.042 210.672C395.16 210.587 395.271 210.505 395.378 210.429C395.388 210.422 395.399 210.414 395.409 210.407C405.758 216.316 420.457 216.032 430.665 210.737L430.821 210.656L430.972 210.566C431.049 210.521 431.127 210.474 431.204 210.427C433.99 212.3 437.431 213.135 440.389 213.583C443.931 214.12 447.881 214.247 451.618 214.233C454.511 214.222 457.456 214.123 460.108 214.035C460.884 214.008 461.634 213.983 462.351 213.961C465.701 213.859 468.13 213.838 469.63 213.997L470.606 214.101L471.564 213.888C473.115 213.543 474.963 213.448 477.265 213.497C478.404 213.521 479.57 213.577 480.836 213.638L480.837 213.639C482.074 213.698 483.408 213.763 484.745 213.79C488.963 213.875 494.256 213.65 499.082 210.964C502.445 213.052 506.333 214.204 510.339 214.26L510.414 214.261L510.49 214.26C518.96 214.165 526.794 209.254 531.399 202.809C535.958 196.43 538.01 187.493 533.283 179.225C535.655 170.733 535.81 160.579 531.923 151.867C532.7 151.939 533.469 151.98 534.226 151.992C538.682 152.067 543.574 151.172 547.674 148.93C550.925 150.959 554.67 152.11 558.54 152.24C560.184 152.445 561.636 152.217 562.716 151.958C563.661 151.732 564.635 151.393 565.247 151.18C565.357 151.142 565.456 151.107 565.54 151.078C565.961 150.935 566.245 150.854 566.423 150.809C571.814 152.947 577.501 153.2 582.728 151.359C586.095 150.172 589.092 148.18 591.589 145.526C595.389 149.187 599.87 151.633 604.911 152.385C611.078 153.305 617.19 151.559 622.799 147.812C622.972 147.926 623.16 148.042 623.365 148.156C627.444 150.964 632.872 152.01 637.598 152.02C642.281 152.029 647.646 151.024 651.703 148.316C652.21 148.057 652.636 147.774 652.979 147.517C655.145 149.048 657.579 150.04 659.931 150.698C663.89 151.808 668.281 152.161 672.378 152.241C676.051 152.312 679.799 152.163 683.09 152.032C683.489 152.016 683.881 152 684.265 151.985C688.012 151.84 690.824 151.774 692.754 151.978L692.831 151.986L692.909 151.992C699.11 152.483 704.505 150.822 708.687 147.512C712.792 144.262 715.36 139.72 716.591 134.979C718.646 127.065 717.202 117.598 711.683 110.584C712.149 110.09 712.771 109.413 713.336 108.653ZM575.748 82.8983C575.746 82.8967 575.745 82.8948 575.742 82.8927C575.759 82.9068 575.761 82.9098 575.748 82.8983ZM424.21 78.4533C424.104 78.5394 424.111 78.5189 424.219 78.4462C424.216 78.4486 424.213 78.451 424.21 78.4533ZM386.355 47.5996C386.356 47.5999 386.363 47.607 386.374 47.6206C386.36 47.6062 386.354 47.5993 386.355 47.5996ZM386.376 50.3374C386.375 50.3378 386.381 50.3308 386.395 50.3162C386.383 50.3299 386.376 50.337 386.376 50.3374Z" fill="white" stroke="white" stroke-width="12"/>
<path d="M106.833 191.241C152.523 191.241 189.563 154.202 189.563 108.511C189.563 62.8207 152.523 25.7812 106.833 25.7812C61.142 25.7812 24.1025 62.8207 24.1025 108.511C24.1025 154.202 61.142 191.241 106.833 191.241Z" fill="#0066C6"/>
<path d="M125.443 191.241C171.133 191.241 208.173 154.202 208.173 108.511C208.173 62.8207 171.133 25.7812 125.443 25.7812C79.7524 25.7812 42.7129 62.8207 42.7129 108.511C42.7129 154.202 79.7524 191.241 125.443 191.241Z" fill="#399FFF"/>
<path d="M116.813 193.081C162.504 193.081 199.543 156.042 199.543 110.351C199.543 64.6606 162.504 27.6211 116.813 27.6211C71.1225 27.6211 34.083 64.6606 34.083 110.351C34.083 156.042 71.1225 193.081 116.813 193.081Z" fill="#0083FF"/>
<path d="M141.703 135.011C150.324 135.011 157.313 128.022 157.313 119.401C157.313 110.78 150.324 103.791 141.703 103.791C133.082 103.791 126.093 110.78 126.093 119.401C126.093 128.022 133.082 135.011 141.703 135.011Z" fill="white"/>
<path d="M141.702 128.941C146.971 128.941 151.242 124.67 151.242 119.401C151.242 114.133 146.971 109.861 141.702 109.861C136.433 109.861 132.162 114.133 132.162 119.401C132.162 124.67 136.433 128.941 141.702 128.941Z" fill="#231F20"/>
<path d="M84.483 135.011C93.1042 135.011 100.093 128.022 100.093 119.401C100.093 110.78 93.1042 103.791 84.483 103.791C75.8619 103.791 68.873 110.78 68.873 119.401C68.873 128.022 75.8619 135.011 84.483 135.011Z" fill="white"/>
<path d="M84.4824 128.941C89.7512 128.941 94.0224 124.67 94.0224 119.401C94.0224 114.133 89.7512 109.861 84.4824 109.861C79.2136 109.861 74.9424 114.133 74.9424 119.401C74.9424 124.67 79.2136 128.941 84.4824 128.941Z" fill="#231F20"/>
<path d="M136.302 140.871C134.819 145.517 131.897 149.571 127.959 152.448C124.02 155.324 119.269 156.875 114.392 156.875C109.515 156.875 104.765 155.324 100.826 152.448C96.888 149.571 93.966 145.517 92.4824 140.871" stroke="#231F20" stroke-width="5.2" stroke-linecap="round" stroke-linejoin="round"/>
<path d="M84.483 135C82.4336 135.002 80.4039 134.599 78.5101 133.816C76.6163 133.032 74.8954 131.884 73.4457 130.435C71.9961 128.986 70.8461 127.266 70.0615 125.373C69.2769 123.479 68.873 121.45 68.873 119.4" fill="white"/>
<path d="M224.683 72.7209C222.68 72.6915 220.688 72.4161 218.753 71.9009C216.459 71.3093 214.248 70.4325 212.173 69.2909C209.923 68.0684 207.873 66.5105 206.093 64.6709C204.201 62.7033 202.698 60.3962 201.663 57.8709C200.5 54.9562 199.932 51.8383 199.993 48.7009C199.933 45.6673 200.502 42.6541 201.663 39.8509C202.709 37.3981 204.201 35.1604 206.063 33.2509C207.815 31.4512 209.839 29.9392 212.063 28.7709C214.169 27.6604 216.402 26.8076 218.713 26.2309C220.719 25.7084 222.78 25.4297 224.853 25.4009C226.929 25.3691 228.999 25.6489 230.993 26.2309C232.484 26.6702 233.933 27.2425 235.323 27.9409C236.433 28.5409 237.133 28.9409 237.403 29.1009C238.3 29.6647 239.156 30.2931 239.963 30.9809C240.364 31.3134 240.684 31.7329 240.899 32.2077C241.114 32.6825 241.218 33.2 241.203 33.7209C241.191 34.332 241.065 34.9355 240.833 35.5009C240.539 36.1834 240.16 36.8253 239.703 37.4109C238.992 38.4387 238.128 39.3525 237.143 40.1209C236.471 40.6515 235.648 40.9529 234.793 40.9809C234.2 40.9758 233.616 40.8392 233.083 40.5809C232.543 40.3209 231.883 39.9409 231.083 39.4609C230.773 39.2409 230.363 38.9909 229.863 38.7009C229.23 38.3591 228.558 38.0939 227.863 37.9109C226.747 37.6375 225.601 37.513 224.453 37.5409C223.145 37.5606 221.848 37.7729 220.603 38.1709C219.188 38.6089 217.859 39.2853 216.673 40.1709C215.411 41.114 214.385 42.3358 213.673 43.7409C212.86 45.3903 212.462 47.2129 212.513 49.0509C212.453 50.9039 212.866 52.7416 213.713 54.3909C214.439 55.7781 215.463 56.9872 216.713 57.9309C217.897 58.8146 219.222 59.4909 220.633 59.9309C222.829 60.6272 225.169 60.7409 227.423 60.2609C228.194 60.0774 228.94 59.7985 229.643 59.4309C230.303 59.0809 230.903 58.7309 231.453 58.3709C231.965 58.0116 232.511 57.7034 233.083 57.4509C233.641 57.1941 234.248 57.0578 234.863 57.0509C235.72 57.0848 236.539 57.4133 237.183 57.9809C238.134 58.8024 238.96 59.7593 239.633 60.8209C240.084 61.4709 240.463 62.1684 240.763 62.9009C240.994 63.4526 241.119 64.0428 241.133 64.6409C241.15 65.1427 241.052 65.642 240.846 66.0998C240.639 66.5576 240.33 66.9617 239.943 67.2809C239.139 67.946 238.283 68.5447 237.383 69.0709C237.063 69.2409 236.383 69.6409 235.383 70.2509C234.047 70.9922 232.627 71.5697 231.153 71.9709C229.044 72.5322 226.864 72.7849 224.683 72.7209Z" fill="#FE0169"/>
<path d="M266.983 72.791C262.303 72.819 257.717 71.4734 253.794 68.9209C249.871 66.3685 246.783 62.7212 244.913 58.431C243.656 55.5733 243.015 52.4828 243.033 49.361C242.993 43.02 245.442 36.9164 249.853 32.361C251.979 30.1688 254.518 28.4186 257.323 27.211C260.199 25.973 263.301 25.3432 266.433 25.361C269.566 25.3385 272.673 25.9336 275.576 27.1124C278.479 28.2912 281.122 30.0305 283.353 32.231C285.54 34.3873 287.277 36.9572 288.463 39.791C290.902 45.7198 290.902 52.3722 288.463 58.301C287.281 61.1219 285.566 63.6887 283.413 65.861C281.277 68.0178 278.752 69.7516 275.973 70.971C273.136 72.1977 270.073 72.8176 266.983 72.791ZM266.633 60.711C268.135 60.7192 269.623 60.4162 271.003 59.821C272.343 59.247 273.559 58.4184 274.583 57.381C275.622 56.3226 276.435 55.0637 276.973 53.681C277.547 52.2194 277.835 50.6612 277.823 49.091C277.836 47.5307 277.537 45.9836 276.943 44.541C276.366 43.1604 275.542 41.8964 274.513 40.811C273.511 39.7475 272.308 38.8943 270.973 38.301C269.627 37.709 268.173 37.4058 266.703 37.411C265.213 37.4015 263.738 37.7047 262.373 38.301C261.036 38.8964 259.83 39.7493 258.823 40.811C257.796 41.897 256.976 43.1609 256.403 44.541C255.808 45.9836 255.509 47.5307 255.523 49.091C255.512 50.6315 255.811 52.1584 256.403 53.581C256.976 54.961 257.796 56.225 258.823 57.311C259.827 58.3755 261.034 59.2288 262.373 59.821C263.715 60.413 265.166 60.7162 266.633 60.711Z" fill="#FE0169"/>
<path d="M299.383 72.0013C297.92 72.1118 296.456 71.8141 295.153 71.1413C294.332 70.635 293.744 69.8271 293.513 68.8913C293.276 67.9092 293.162 66.9015 293.173 65.8913V31.8013C293.171 30.8481 293.262 29.8971 293.443 28.9613C293.541 28.4977 293.73 28.0582 293.999 27.6684C294.269 27.2787 294.613 26.9465 295.013 26.6913C295.883 26.0913 297.353 25.8213 299.453 25.8613H311.203C314.337 25.8457 317.443 26.4507 320.343 27.6413C323.16 28.7996 325.74 30.4675 327.953 32.5613C330.14 34.629 331.9 37.1058 333.133 39.8513C334.386 42.6326 335.027 45.6507 335.013 48.7013C335.027 51.8002 334.386 54.8672 333.133 57.7013C331.901 60.4888 330.142 63.0118 327.953 65.1313C325.739 67.2584 323.148 68.9541 320.313 70.1313C317.362 71.3542 314.196 71.973 311.003 71.9513L299.383 72.0013ZM305.653 59.9213H311.203C313.188 59.9356 315.142 59.4213 316.863 58.4313C318.557 57.4706 319.978 56.0939 320.993 54.4313C322.015 52.777 322.546 50.8659 322.523 48.9213C322.542 46.9678 322.011 45.0482 320.993 43.3813C319.96 41.6964 318.509 40.3067 316.782 39.3467C315.055 38.3867 313.109 37.8888 311.133 37.9013H305.673L305.653 59.9213Z" fill="#FE0169"/>
<path d="M344.743 72.0607C343.235 72.1862 341.722 71.8774 340.383 71.1707C339.977 70.9136 339.629 70.5759 339.359 70.1786C339.088 69.7813 338.903 69.3327 338.813 68.8607C338.629 67.915 338.536 66.9541 338.533 65.9907V31.8707C338.533 29.5774 339 28.004 339.933 27.1507C340.863 26.2907 342.543 25.8607 344.933 25.8607H369.933C370.94 25.8539 371.944 25.9443 372.933 26.1307C373.857 26.321 374.671 26.8623 375.203 27.6407C375.928 28.9479 376.249 30.4411 376.123 31.9307C376.245 33.4009 375.925 34.8739 375.203 36.1607C374.648 36.9547 373.805 37.5003 372.853 37.6807C371.863 37.855 370.859 37.942 369.853 37.9407H351.023V43.8107H363.643C364.579 43.801 365.513 43.8814 366.433 44.0507C366.836 44.1167 367.221 44.2643 367.565 44.4844C367.909 44.7045 368.205 44.9925 368.433 45.3307C369.045 46.4736 369.312 47.7691 369.203 49.0607C369.301 50.3076 369.041 51.5566 368.453 52.6607C368.228 53.0018 367.933 53.2919 367.589 53.5124C367.244 53.7328 366.857 53.8787 366.453 53.9407C365.503 54.0784 364.544 54.1452 363.583 54.1407H351.023V60.0107H369.913C370.92 60.0039 371.924 60.0943 372.913 60.2807C373.381 60.3691 373.826 60.5489 374.225 60.8097C374.623 61.0705 374.965 61.4073 375.233 61.8007C375.961 63.1068 376.282 64.6009 376.153 66.0907C376.275 67.5577 375.955 69.0277 375.233 70.3107C374.681 71.1079 373.837 71.6543 372.883 71.8307C371.893 72.005 370.889 72.092 369.883 72.0907L344.743 72.0607Z" fill="#FE0169"/>
<path d="M242.683 134.721C240.68 134.691 238.688 134.416 236.753 133.901C234.459 133.309 232.248 132.432 230.173 131.291C227.923 130.068 225.873 128.511 224.093 126.671C222.201 124.703 220.698 122.396 219.663 119.871C218.5 116.956 217.932 113.838 217.993 110.701C217.933 107.667 218.502 104.654 219.663 101.851C220.709 99.3981 222.201 97.1604 224.063 95.2509C225.815 93.4512 227.839 91.9393 230.063 90.7709C232.169 89.6604 234.402 88.8076 236.713 88.2309C238.719 87.7084 240.78 87.4297 242.853 87.4009C244.929 87.3691 246.999 87.6489 248.993 88.2309C250.484 88.6702 251.933 89.2425 253.323 89.9409C254.433 90.5409 255.133 90.9409 255.403 91.1009C256.3 91.6647 257.156 92.2931 257.963 92.9809C258.355 93.3183 258.666 93.74 258.872 94.2145C259.078 94.689 259.174 95.204 259.153 95.7209C259.141 96.332 259.015 96.9355 258.783 97.5009C258.489 98.1834 258.11 98.8253 257.653 99.4109C256.942 100.439 256.078 101.352 255.093 102.121C254.421 102.651 253.598 102.953 252.743 102.981C252.15 102.976 251.566 102.839 251.033 102.581C250.493 102.321 249.833 101.941 249.033 101.461C248.723 101.241 248.313 100.991 247.813 100.701C247.18 100.359 246.508 100.094 245.813 99.9109C244.697 99.6375 243.551 99.513 242.403 99.5409C241.095 99.5606 239.798 99.7729 238.553 100.171C237.138 100.609 235.809 101.285 234.623 102.171C233.361 103.114 232.335 104.336 231.623 105.741C230.81 107.39 230.412 109.213 230.463 111.051C230.403 112.904 230.816 114.742 231.663 116.391C232.389 117.778 233.413 118.987 234.663 119.931C235.847 120.815 237.172 121.491 238.583 121.931C240.779 122.627 243.119 122.741 245.373 122.261C246.144 122.077 246.89 121.799 247.593 121.431C248.253 121.081 248.853 120.731 249.403 120.371C249.915 120.012 250.461 119.703 251.033 119.451C251.591 119.194 252.198 119.058 252.813 119.051C253.67 119.085 254.489 119.413 255.133 119.981C256.084 120.802 256.91 121.759 257.583 122.821C258.034 123.471 258.413 124.168 258.713 124.901C258.944 125.453 259.069 126.043 259.083 126.641C259.1 127.143 259.002 127.642 258.796 128.1C258.589 128.558 258.28 128.962 257.893 129.281C257.089 129.946 256.233 130.545 255.333 131.071C255.013 131.241 254.333 131.641 253.333 132.251C251.997 132.992 250.577 133.57 249.103 133.971C247.01 134.527 244.848 134.78 242.683 134.721Z" fill="black"/>
<path d="M284.983 134.791C280.303 134.819 275.717 133.473 271.794 130.921C267.871 128.368 264.783 124.721 262.913 120.431C261.656 117.573 261.015 114.483 261.033 111.361C260.993 105.02 263.442 98.9164 267.853 94.361C269.979 92.1688 272.518 90.4185 275.323 89.211C278.199 87.973 281.301 87.3432 284.433 87.361C287.566 87.3385 290.673 87.9336 293.576 89.1124C296.479 90.2912 299.122 92.0305 301.353 94.231C303.54 96.3873 305.277 98.9571 306.463 101.791C308.902 107.72 308.902 114.372 306.463 120.301C305.281 123.122 303.566 125.689 301.413 127.861C299.277 130.018 296.752 131.752 293.973 132.971C291.136 134.198 288.073 134.818 284.983 134.791ZM284.633 122.711C286.135 122.719 287.623 122.416 289.003 121.821C290.343 121.247 291.559 120.418 292.583 119.381C293.622 118.323 294.435 117.064 294.973 115.681C295.547 114.219 295.835 112.661 295.823 111.091C295.836 109.531 295.537 107.984 294.943 106.541C294.366 105.16 293.542 103.896 292.513 102.811C291.511 101.748 290.308 100.894 288.973 100.301C287.627 99.709 286.173 99.4058 284.703 99.411C283.213 99.4015 281.738 99.7047 280.373 100.301C279.036 100.896 277.83 101.749 276.823 102.811C275.796 103.897 274.976 105.161 274.403 106.541C273.808 107.984 273.509 109.531 273.523 111.091C273.512 112.631 273.811 114.158 274.403 115.581C274.976 116.961 275.796 118.225 276.823 119.311C277.827 120.375 279.034 121.229 280.373 121.821C281.715 122.413 283.166 122.716 284.633 122.711Z" fill="black"/>
<path d="M318.883 134.061C317.371 134.184 315.856 133.876 314.513 133.171C314.11 132.911 313.763 132.572 313.493 132.175C313.224 131.778 313.036 131.331 312.943 130.861C312.762 129.915 312.672 128.954 312.673 127.991V93.8708C312.671 92.9176 312.762 91.9665 312.943 91.0308C313.143 90.0928 313.708 89.2728 314.513 88.7508C315.881 88.0458 317.419 87.7375 318.953 87.8608C320.474 87.7314 322.001 88.0403 323.353 88.7508C324.145 89.278 324.695 90.0981 324.883 91.0308C325.069 91.9862 325.163 92.9573 325.163 93.9308V123.771H341.803C342.637 123.767 343.469 123.831 344.293 123.961C344.696 124.031 345.08 124.182 345.423 124.403C345.767 124.625 346.063 124.913 346.293 125.251C346.906 126.368 347.177 127.641 347.073 128.911C347.185 130.167 346.898 131.427 346.253 132.511C345.783 133.194 345.066 133.667 344.253 133.831C343.432 133.984 342.598 134.061 341.763 134.061H318.883Z" fill="black"/>
<path d="M357.692 134.061C356.184 134.186 354.671 133.877 353.332 133.171C352.926 132.914 352.578 132.576 352.308 132.179C352.037 131.781 351.852 131.333 351.762 130.861C351.582 129.915 351.491 128.954 351.492 127.991V93.8708C351.49 92.9176 351.581 91.9665 351.762 91.0308C351.857 90.5648 352.045 90.1227 352.315 89.731C352.585 89.3392 352.931 89.0059 353.332 88.7508C354.696 88.0446 356.231 87.7362 357.762 87.8608C359.284 87.7314 360.811 88.0403 362.162 88.7508C362.96 89.2879 363.513 90.118 363.702 91.0608C363.885 92.0165 363.976 92.9877 363.972 93.9608V123.801H380.612C381.446 123.796 382.279 123.86 383.102 123.991C383.506 124.058 383.892 124.207 384.236 124.429C384.58 124.651 384.874 124.941 385.102 125.281C385.719 126.397 385.994 127.67 385.892 128.941C385.996 130.197 385.71 131.454 385.072 132.541C384.599 133.22 383.883 133.693 383.072 133.861C382.251 134.014 381.418 134.091 380.582 134.091L357.692 134.061Z" fill="black"/>
<path d="M433.963 125.681C434.553 126.718 434.924 127.865 435.053 129.051C435.078 129.497 435.012 129.943 434.859 130.363C434.706 130.783 434.469 131.166 434.163 131.491C433.273 132.371 432.233 133.086 431.093 133.601C428.913 134.614 427.229 134.948 426.043 134.601C424.863 134.221 423.753 132.961 422.703 130.801L411.103 107.801L399.643 130.801C398.553 132.871 397.423 134.091 396.233 134.461C395.043 134.831 393.393 134.521 391.233 133.461C390.087 132.988 389.036 132.31 388.133 131.461C387.819 131.148 387.575 130.772 387.415 130.359C387.255 129.946 387.182 129.504 387.203 129.061C387.326 127.874 387.697 126.726 388.293 125.691L405.413 91.3711C405.973 90.3332 406.798 89.4624 407.805 88.8476C408.812 88.2327 409.963 87.8958 411.143 87.8711C411.926 87.868 412.703 88.0139 413.433 88.3012C414.144 88.5941 414.8 89.0067 415.373 89.5212C415.971 90.0628 416.46 90.7147 416.813 91.4412L433.963 125.681ZM400.333 124.491L405.513 114.201H416.773L421.953 124.491H400.333Z" fill="black"/>
<path d="M443.642 134.001C442.134 134.122 440.622 133.814 439.282 133.111C438.878 132.852 438.531 132.513 438.261 132.116C437.991 131.719 437.804 131.272 437.712 130.801C437.531 129.831 437.44 128.847 437.442 127.861V93.8005C437.441 92.8474 437.532 91.8963 437.712 90.9605C437.807 90.4955 437.994 90.0545 438.264 89.6642C438.534 89.274 438.881 88.9427 439.282 88.6905C440.645 87.9791 442.181 87.6704 443.712 87.8005H459.712C462.323 87.7574 464.895 88.4282 467.152 89.7405C469.291 90.9993 471.074 92.782 472.332 94.9205C473.597 97.0352 474.258 99.4564 474.242 101.921C474.241 102.773 474.161 103.623 474.002 104.461C473.847 105.323 473.596 106.165 473.252 106.971C472.908 107.789 472.486 108.572 471.992 109.311C472.771 110.231 473.442 111.238 473.992 112.311C474.534 113.357 474.947 114.465 475.222 115.611C475.493 116.72 475.631 117.858 475.632 119.001C475.601 121.034 475.173 123.041 474.372 124.911C473.601 126.701 472.475 128.317 471.062 129.661C469.654 131.005 468.01 132.08 466.212 132.831C464.381 133.606 462.411 134 460.422 133.991L443.642 134.001ZM449.922 121.921H459.672C460.11 121.904 460.545 121.847 460.972 121.751C461.554 121.622 462.073 121.297 462.442 120.831C462.939 120.082 463.165 119.185 463.082 118.291C463.097 117.769 463.039 117.247 462.912 116.741C462.831 116.369 462.656 116.024 462.402 115.741C462.186 115.508 461.919 115.326 461.622 115.211C461.3 115.094 460.964 115.016 460.622 114.981C460.204 114.93 459.784 114.907 459.362 114.911H458.482C457.09 115.047 455.699 114.647 454.592 113.791C453.812 113.041 453.432 111.721 453.432 109.791C453.432 107.861 453.852 106.721 454.692 106.001C455.899 105.165 457.361 104.779 458.822 104.911H459.642C459.96 104.911 460.278 104.887 460.592 104.841C460.843 104.816 461.075 104.698 461.242 104.511C461.422 104.289 461.549 104.029 461.612 103.751C461.717 103.308 461.764 102.855 461.752 102.401C461.793 102.034 461.749 101.664 461.624 101.317C461.499 100.971 461.297 100.657 461.032 100.401C460.158 99.96 459.177 99.7762 458.202 99.8705H449.952L449.922 121.921Z" fill="black"/>
<path d="M501.832 134.79C497.152 134.818 492.567 133.473 488.644 130.92C484.721 128.368 481.633 124.721 479.762 120.43C478.509 117.572 477.872 114.481 477.892 111.36C477.841 105.017 480.291 98.9091 484.712 94.3603C486.839 92.1681 489.377 90.4179 492.182 89.2103C495.059 87.9704 498.16 87.3405 501.292 87.3603C504.422 87.333 507.527 87.923 510.428 89.0967C513.33 90.2704 515.972 92.0047 518.202 94.2003C521.533 97.5554 523.799 101.819 524.715 106.457C525.631 111.095 525.157 115.901 523.352 120.27C522.189 123.089 520.491 125.656 518.352 127.83C516.221 129.988 513.7 131.722 510.922 132.94C508.056 134.19 504.959 134.82 501.832 134.79ZM501.492 122.71C502.995 122.718 504.483 122.415 505.862 121.82C507.2 121.241 508.415 120.413 509.442 119.38C510.476 118.319 511.285 117.061 511.822 115.68C512.4 114.219 512.692 112.661 512.682 111.09C512.693 109.529 512.39 107.982 511.792 106.54C511.219 105.16 510.399 103.896 509.372 102.81C508.365 101.749 507.159 100.896 505.822 100.3C504.48 99.7082 503.029 99.405 501.562 99.4103C500.073 99.4 498.597 99.7032 497.232 100.3C495.893 100.891 494.686 101.744 493.682 102.81C492.656 103.896 491.836 105.16 491.262 106.54C490.665 107.982 490.362 109.529 490.372 111.09C490.365 112.631 490.668 114.158 491.262 115.58C491.836 116.96 492.656 118.224 493.682 119.31C494.683 120.379 495.891 121.233 497.232 121.82C498.574 122.412 500.026 122.716 501.492 122.71Z" fill="black"/>
<path d="M534.712 134C533.201 134.121 531.686 133.812 530.342 133.11C529.94 132.85 529.595 132.511 529.327 132.114C529.059 131.717 528.874 131.27 528.782 130.8C528.594 129.852 528.5 128.887 528.502 127.92V93.8705C528.498 92.9168 528.592 91.9652 528.782 91.0305C528.877 90.5657 529.064 90.1245 529.332 89.733C529.6 89.3415 529.943 89.0074 530.342 88.7505C531.71 88.0455 533.248 87.7372 534.782 87.8605H548.492C550.398 87.8814 552.287 88.2194 554.082 88.8605C556.138 89.5696 558.056 90.6285 559.752 91.9905C561.548 93.4365 563.032 95.233 564.112 97.2705C565.302 99.5947 565.89 102.18 565.822 104.79C565.836 106.722 565.525 108.642 564.902 110.47C564.289 112.219 563.364 113.842 562.172 115.26C560.92 116.745 559.446 118.027 557.802 119.06C555.992 120.184 554.028 121.04 551.972 121.6H540.972V128C540.97 128.954 540.876 129.905 540.692 130.84C540.597 131.307 540.409 131.749 540.139 132.14C539.869 132.532 539.523 132.865 539.122 133.12C537.763 133.82 536.235 134.124 534.712 134ZM540.992 109.58H548.492C548.99 109.565 549.484 109.488 549.962 109.35C550.541 109.186 551.083 108.915 551.562 108.55C552.085 108.155 552.515 107.65 552.822 107.07C553.184 106.356 553.36 105.561 553.332 104.76C553.35 103.885 553.114 103.024 552.652 102.28C552.203 101.567 551.58 100.979 550.842 100.57C550.081 100.147 549.223 99.9301 548.352 99.9405H540.992V109.58ZM563.292 132.41C561.292 133.91 559.632 134.51 558.452 134.23C557.272 133.95 555.992 132.92 554.632 131.16L542.082 114.66L556.272 112.94L564.732 123.94C565.478 124.921 566.062 126.015 566.462 127.18C566.588 127.6 566.619 128.043 566.555 128.477C566.492 128.91 566.333 129.325 566.092 129.69C565.326 130.755 564.378 131.676 563.292 132.41Z" fill="black"/>
<path d="M614.393 125.681C614.983 126.718 615.354 127.865 615.483 129.051C615.508 129.497 615.442 129.943 615.289 130.363C615.136 130.782 614.899 131.166 614.593 131.491C613.703 132.371 612.663 133.086 611.523 133.601C609.343 134.601 607.653 134.931 606.473 134.601C605.293 134.271 604.183 132.961 603.133 130.801L591.533 107.801L580.073 130.801C578.979 132.868 577.843 134.088 576.663 134.461C575.483 134.831 573.823 134.521 571.663 133.461C570.517 132.988 569.466 132.31 568.563 131.461C568.246 131.142 568 130.76 567.842 130.339C567.683 129.919 567.615 129.47 567.643 129.021C567.766 127.834 568.137 126.686 568.733 125.651L585.853 91.3311C586.402 90.2717 587.241 89.3906 588.273 88.7911C589.262 88.1584 590.408 87.8123 591.583 87.7911C592.366 87.7879 593.143 87.9338 593.873 88.2211C594.584 88.514 595.24 88.9266 595.813 89.4411C596.411 89.9805 596.897 90.633 597.243 91.3611L614.393 125.681ZM580.753 124.491L585.943 114.201H597.203L602.383 124.491H580.753Z" fill="black"/>
<path d="M653.273 87.801C654.094 87.7962 654.913 87.8597 655.723 87.991C656.125 88.0547 656.509 88.1992 656.853 88.4158C657.196 88.6323 657.493 88.9165 657.723 89.251C658.237 90.3869 658.503 91.6193 658.503 92.866C658.503 94.1128 658.237 95.3452 657.723 96.481C657.494 96.8193 657.199 97.1072 656.855 97.3273C656.511 97.5474 656.126 97.695 655.723 97.761C654.9 97.8946 654.067 97.9615 653.233 97.961H643.823V128.191C643.823 129.131 643.729 130.069 643.543 130.991C643.451 131.444 643.268 131.873 643.005 132.253C642.742 132.633 642.405 132.956 642.013 133.201C640.656 133.893 639.131 134.191 637.613 134.061C636.124 134.183 634.632 133.874 633.313 133.171C632.916 132.925 632.576 132.598 632.312 132.212C632.049 131.827 631.869 131.39 631.783 130.931C631.621 130.003 631.541 129.063 631.543 128.121V97.961H622.063C621.248 97.9598 620.434 97.8828 619.633 97.731C618.822 97.5832 618.102 97.1192 617.633 96.441C617.006 95.34 616.73 94.0733 616.843 92.811C616.735 91.5714 617.011 90.3285 617.633 89.251C617.864 88.9165 618.16 88.6323 618.504 88.4158C618.848 88.1992 619.232 88.0547 619.633 87.991C620.444 87.8632 621.263 87.7996 622.083 87.801H653.273Z" fill="black"/>
<path d="M668.282 134.061C666.771 134.184 665.255 133.876 663.912 133.171C663.508 132.912 663.16 132.574 662.89 132.177C662.62 131.78 662.434 131.332 662.342 130.861C662.162 129.915 662.071 128.954 662.072 127.991V93.8707C662.072 91.5807 662.532 90.0107 663.472 89.1507C664.412 88.2907 666.072 87.8607 668.472 87.8607H693.472C694.479 87.8537 695.483 87.9441 696.472 88.1307C697.415 88.3068 698.25 88.8499 698.792 89.6407C699.522 90.9462 699.843 92.4408 699.712 93.9307C699.839 95.4012 699.518 96.8757 698.792 98.1607C698.239 98.9563 697.395 99.5023 696.442 99.6807C695.452 99.8555 694.448 99.9425 693.442 99.9407H674.552V105.811H687.202C688.141 105.801 689.079 105.881 690.002 106.051C690.405 106.117 690.79 106.264 691.134 106.484C691.478 106.705 691.774 106.993 692.002 107.331C692.601 108.467 692.862 109.751 692.752 111.031C692.85 112.278 692.59 113.527 692.002 114.631C691.774 114.969 691.478 115.257 691.134 115.477C690.79 115.697 690.405 115.845 690.002 115.911C689.055 116.048 688.099 116.115 687.142 116.111H674.552V121.981H693.452C694.459 121.974 695.463 122.064 696.452 122.251C696.92 122.338 697.366 122.517 697.765 122.778C698.163 123.039 698.505 123.377 698.772 123.771C699.505 125.075 699.826 126.571 699.692 128.061C699.82 129.528 699.499 131 698.772 132.281C698.5 132.676 698.152 133.014 697.749 133.275C697.345 133.536 696.895 133.714 696.422 133.801C695.432 133.976 694.428 134.063 693.422 134.061H668.282Z" fill="black"/>
<path d="M224.683 196.721C222.68 196.691 220.688 196.416 218.753 195.901C216.459 195.309 214.248 194.432 212.173 193.291C209.923 192.068 207.873 190.511 206.093 188.671C204.201 186.703 202.698 184.396 201.663 181.871C200.5 178.956 199.932 175.838 199.993 172.701C199.933 169.667 200.502 166.654 201.663 163.851C202.709 161.398 204.201 159.16 206.063 157.251C207.815 155.451 209.839 153.939 212.063 152.771C214.169 151.66 216.402 150.808 218.713 150.231C220.719 149.708 222.78 149.43 224.853 149.401C226.929 149.369 228.999 149.649 230.993 150.231C232.484 150.67 233.933 151.243 235.323 151.941C236.433 152.541 237.133 152.941 237.403 153.101C238.3 153.665 239.156 154.293 239.963 154.981C240.355 155.318 240.666 155.74 240.872 156.215C241.078 156.689 241.174 157.204 241.153 157.721C241.141 158.332 241.015 158.936 240.783 159.501C240.489 160.183 240.11 160.825 239.653 161.411C238.942 162.439 238.078 163.352 237.093 164.121C236.421 164.651 235.598 164.953 234.743 164.981C234.15 164.976 233.566 164.839 233.033 164.581C232.493 164.321 231.833 163.941 231.033 163.461C230.723 163.241 230.313 162.991 229.813 162.701C229.18 162.359 228.508 162.094 227.813 161.911C226.697 161.637 225.551 161.513 224.403 161.541C223.095 161.561 221.798 161.773 220.553 162.171C219.138 162.609 217.809 163.285 216.623 164.171C215.361 165.114 214.335 166.336 213.623 167.741C212.81 169.39 212.412 171.213 212.463 173.051C212.403 174.904 212.816 176.742 213.663 178.391C214.389 179.778 215.413 180.987 216.663 181.931C217.847 182.815 219.172 183.491 220.583 183.931C222.779 184.627 225.119 184.741 227.373 184.261C228.144 184.077 228.89 183.799 229.593 183.431C230.253 183.081 230.853 182.731 231.403 182.371C231.915 182.012 232.461 181.703 233.033 181.451C233.591 181.194 234.198 181.058 234.813 181.051C235.67 181.085 236.489 181.413 237.133 181.981C238.084 182.802 238.91 183.759 239.583 184.821C240.034 185.471 240.413 186.168 240.713 186.901C240.944 187.453 241.069 188.043 241.083 188.641C241.1 189.143 241.002 189.642 240.796 190.1C240.589 190.558 240.28 190.962 239.893 191.281C239.089 191.946 238.233 192.545 237.333 193.071C237.013 193.241 236.333 193.641 235.333 194.251C233.997 194.992 232.577 195.57 231.103 195.971C229.01 196.527 226.848 196.78 224.683 196.721Z" fill="#FF8C00"/>
<path d="M266.983 196.791C262.303 196.819 257.717 195.473 253.794 192.921C249.871 190.368 246.783 186.721 244.913 182.431C243.656 179.573 243.015 176.483 243.033 173.361C242.993 167.02 245.442 160.916 249.853 156.361C251.979 154.169 254.518 152.419 257.323 151.211C260.199 149.973 263.301 149.343 266.433 149.361C269.566 149.338 272.673 149.934 275.576 151.112C278.479 152.291 281.122 154.031 283.353 156.231C285.54 158.387 287.277 160.957 288.463 163.791C290.902 169.72 290.902 176.372 288.463 182.301C287.281 185.122 285.566 187.689 283.413 189.861C281.277 192.018 278.752 193.752 275.973 194.971C273.136 196.198 270.073 196.818 266.983 196.791ZM266.633 184.711C268.135 184.719 269.623 184.416 271.003 183.821C272.343 183.247 273.559 182.418 274.583 181.381C275.622 180.323 276.435 179.064 276.973 177.681C277.547 176.219 277.835 174.661 277.823 173.091C277.836 171.531 277.537 169.984 276.943 168.541C276.366 167.16 275.542 165.896 274.513 164.811C273.511 163.748 272.308 162.894 270.973 162.301C269.627 161.709 268.173 161.406 266.703 161.411C265.213 161.402 263.738 161.705 262.373 162.301C261.036 162.896 259.83 163.749 258.823 164.811C257.796 165.897 256.976 167.161 256.403 168.541C255.808 169.984 255.509 171.531 255.523 173.091C255.512 174.631 255.811 176.158 256.403 177.581C256.976 178.961 257.796 180.225 258.823 181.311C259.827 182.375 261.034 183.229 262.373 183.821C263.715 184.413 265.166 184.716 266.633 184.711Z" fill="#FF8C00"/>
<path d="M299.313 196.061C297.824 196.182 296.332 195.873 295.013 195.171C294.613 194.915 294.268 194.581 293.998 194.19C293.728 193.798 293.54 193.357 293.443 192.891C293.26 191.935 293.169 190.964 293.173 189.991V155.741C293.169 154.808 293.26 153.876 293.443 152.961C293.548 152.508 293.745 152.082 294.022 151.709C294.299 151.336 294.65 151.023 295.053 150.791C296.414 150.109 297.935 149.811 299.453 149.931C300.856 149.81 302.266 150.058 303.543 150.651C304.303 151.158 304.979 151.782 305.543 152.501L322.593 174.681V155.741C322.588 154.806 322.692 153.873 322.903 152.961C323.014 152.512 323.212 152.089 323.487 151.717C323.762 151.345 324.107 151.03 324.503 150.791C325.852 150.107 327.365 149.809 328.873 149.931C330.395 149.802 331.921 150.111 333.273 150.821C333.667 151.08 334.005 151.415 334.268 151.807C334.531 152.198 334.713 152.638 334.803 153.101C334.99 154.057 335.083 155.028 335.083 156.001V190.061C335.081 191.011 334.987 191.959 334.803 192.891C334.71 193.358 334.523 193.801 334.253 194.193C333.983 194.585 333.636 194.918 333.233 195.171C331.871 195.883 330.334 196.191 328.803 196.061C327.622 196.103 326.441 195.982 325.293 195.701C324.494 195.449 323.794 194.952 323.293 194.281L305.633 171.711V190.061C305.631 191.011 305.537 191.959 305.353 192.891C305.26 193.358 305.073 193.801 304.803 194.193C304.533 194.585 304.186 194.918 303.783 195.171C302.409 195.89 300.857 196.199 299.313 196.061Z" fill="#FF8C00"/>
<path d="M386.013 185.061C387.973 186.295 389.066 187.515 389.293 188.721C389.513 189.931 388.923 191.511 387.513 193.441C386.793 194.534 385.865 195.476 384.783 196.211C384.395 196.451 383.961 196.605 383.509 196.662C383.056 196.719 382.597 196.678 382.163 196.541C380.992 196.169 379.878 195.637 378.853 194.961L375.033 192.581C373.149 193.912 371.08 194.96 368.893 195.691C366.635 196.438 364.271 196.816 361.893 196.811C357.214 196.837 352.631 195.491 348.71 192.939C344.789 190.386 341.702 186.74 339.833 182.451C338.576 179.594 337.935 176.503 337.953 173.381C337.913 167.04 340.362 160.937 344.773 156.381C346.899 154.189 349.438 152.439 352.243 151.231C355.119 149.993 358.221 149.363 361.353 149.381C367.649 149.341 373.706 151.793 378.203 156.201C380.436 158.402 382.207 161.027 383.409 163.923C384.611 166.819 385.221 169.926 385.203 173.061C385.208 174.795 385.013 176.523 384.623 178.211C384.246 179.875 383.685 181.491 382.953 183.031L386.013 185.061ZM361.523 184.731C363.025 184.739 364.513 184.436 365.893 183.841C367.231 183.265 368.447 182.436 369.473 181.401C370.509 180.34 371.322 179.082 371.863 177.701C372.437 176.24 372.725 174.682 372.713 173.111C372.723 171.55 372.42 170.003 371.823 168.561C371.249 167.181 370.429 165.917 369.403 164.831C368.399 163.765 367.192 162.912 365.853 162.321C364.511 161.729 363.059 161.426 361.593 161.431C360.09 161.424 358.602 161.727 357.223 162.321C355.873 162.91 354.656 163.764 353.643 164.831C352.618 165.911 351.81 167.177 351.263 168.561C350.683 170.008 350.391 171.553 350.403 173.111C350.384 176.188 351.572 179.15 353.713 181.361C354.724 182.411 355.929 183.253 357.263 183.841C358.606 184.427 360.057 184.723 361.523 184.711V184.731Z" fill="#FF8C00"/>
<path d="M413.203 196.79C410.05 196.862 406.926 196.176 404.093 194.79C401.55 193.499 399.308 191.686 397.513 189.47C395.759 187.307 394.404 184.849 393.513 182.21C392.644 179.684 392.195 177.032 392.183 174.36V155.87C392.18 154.894 392.27 153.92 392.453 152.96C392.549 152.496 392.738 152.056 393.007 151.666C393.277 151.276 393.622 150.944 394.023 150.69C395.428 150.103 396.935 149.801 398.458 149.801C399.98 149.801 401.488 150.103 402.893 150.69C403.293 150.944 403.638 151.276 403.908 151.666C404.178 152.056 404.366 152.496 404.463 152.96C404.649 153.949 404.74 154.954 404.733 155.96V174.38C404.748 175.927 405.001 177.461 405.483 178.93C406.002 180.498 406.943 181.892 408.203 182.96C409.69 184.161 411.574 184.761 413.483 184.64C415.081 184.681 416.654 184.235 417.993 183.36C419.317 182.46 420.358 181.201 420.993 179.73C421.733 178.011 422.094 176.152 422.053 174.28V155.54C422.046 154.618 422.15 153.698 422.363 152.8C422.596 151.903 423.17 151.131 423.963 150.65C425.315 149.975 426.826 149.681 428.333 149.8C430.423 149.8 431.893 150.1 432.733 150.72C433.506 151.282 434.032 152.12 434.203 153.06C434.389 154.016 434.483 154.987 434.483 155.96V174.51C434.473 177.199 434.009 179.866 433.113 182.4C432.202 185.021 430.827 187.457 429.053 189.59C427.136 191.921 424.711 193.782 421.963 195.03C419.216 196.278 416.219 196.88 413.203 196.79Z" fill="#FF8C00"/>
<path d="M445.203 196.061C443.694 196.186 442.181 195.877 440.843 195.171C440.424 194.921 440.062 194.586 439.779 194.189C439.497 193.791 439.3 193.339 439.203 192.861C439.022 191.915 438.932 190.954 438.933 189.991V155.871C438.933 153.577 439.396 152.004 440.323 151.151C441.249 150.297 442.916 149.867 445.323 149.861H470.323C471.329 149.854 472.334 149.944 473.323 150.131C474.265 150.309 475.098 150.852 475.643 151.641C476.372 152.946 476.693 154.441 476.563 155.931C476.689 157.401 476.369 158.876 475.643 160.161C475.088 160.955 474.244 161.5 473.293 161.681C472.302 161.855 471.298 161.942 470.293 161.941H451.433V167.811H464.053C464.991 167.801 465.929 167.881 466.853 168.051C467.254 168.12 467.638 168.269 467.982 168.489C468.325 168.709 468.621 168.995 468.853 169.331C469.452 170.467 469.712 171.751 469.603 173.031C469.7 174.278 469.44 175.527 468.853 176.631C468.618 176.975 468.315 177.266 467.962 177.486C467.609 177.707 467.214 177.851 466.803 177.911C465.852 178.048 464.893 178.115 463.933 178.111H451.433V183.981H470.333C471.339 183.974 472.344 184.064 473.333 184.251C473.8 184.339 474.246 184.519 474.644 184.78C475.042 185.041 475.385 185.377 475.653 185.771C476.385 187.075 476.706 188.571 476.573 190.061C476.7 191.528 476.379 193 475.653 194.281C475.101 195.078 474.256 195.624 473.303 195.801C472.312 195.975 471.308 196.062 470.303 196.061H445.203Z" fill="#FF8C00"/>
<path d="M486.083 196C484.575 196.122 483.063 195.813 481.723 195.11C481.319 194.851 480.971 194.513 480.701 194.116C480.431 193.719 480.245 193.271 480.153 192.8C479.973 191.851 479.882 190.887 479.883 189.92V155.87C479.899 154.926 480.007 153.985 480.203 153.06C480.298 152.594 480.486 152.152 480.756 151.76C481.025 151.369 481.371 151.035 481.773 150.78C483.137 150.074 484.672 149.766 486.203 149.89H499.913C501.822 149.911 503.714 150.249 505.513 150.89C507.566 151.6 509.481 152.658 511.173 154.02C512.973 155.463 514.457 157.26 515.533 159.3C516.723 161.624 517.311 164.21 517.243 166.82C517.257 168.752 516.946 170.672 516.323 172.5C515.718 174.253 514.792 175.877 513.593 177.29C512.335 178.768 510.854 180.04 509.203 181.06C507.393 182.186 505.429 183.041 503.373 183.6H492.373V190C492.374 190.953 492.284 191.904 492.103 192.84C491.902 193.778 491.338 194.598 490.533 195.12C489.161 195.824 487.619 196.129 486.083 196ZM492.363 171.58H499.863C500.36 171.565 500.854 171.488 501.333 171.35C501.912 171.188 502.455 170.917 502.933 170.55C503.461 170.153 503.895 169.645 504.203 169.06C504.573 168.348 504.752 167.552 504.723 166.75C504.737 165.874 504.497 165.013 504.033 164.27C503.589 163.556 502.969 162.967 502.233 162.56C501.472 162.137 500.614 161.92 499.743 161.93H492.373L492.363 171.58ZM514.673 194.41C512.623 195.91 511.003 196.51 509.823 196.23C508.643 195.95 507.373 194.92 506.003 193.16L493.453 176.66L507.643 174.94L516.103 185.94C516.855 186.919 517.443 188.013 517.843 189.18C517.967 189.601 517.997 190.044 517.931 190.477C517.866 190.911 517.706 191.325 517.463 191.69C516.698 192.752 515.754 193.673 514.673 194.41Z" fill="#FF8C00"/>
</svg>
