<svg width="1270" height="331" viewBox="0 0 1270 331" fill="none" xmlns="http://www.w3.org/2000/svg">
<path d="M1263.58 153.468V153.472C1263.58 159.643 1261.13 165.561 1256.76 169.924C1252.4 174.286 1246.48 176.737 1240.31 176.738L1263.58 153.468ZM1263.58 153.468V93.5981V93.5876M1263.58 153.468V93.5876M1263.58 93.5876V93.577M1263.58 93.5876V93.577M1263.58 93.577C1263.56 87.4752 1261.12 81.6306 1256.8 77.3235C1252.48 73.0164 1246.63 70.5981 1240.52 70.5981L1240.52 70.5981M1263.58 93.577L1240.52 70.5981M1240.52 70.5981L1117.45 70.7717M1240.52 70.5981L1117.45 70.7717M1117.45 70.7717C1127.44 40.3787 1103.34 5.08061 1069.31 6.0181H1028.8C996.083 5.15584 973.4 38.2081 980.464 67.3227L980.502 67.4786L980.548 67.6322C981.31 70.1745 981.023 72.5701 979.937 75.4171C979.118 77.5617 978.091 79.4414 976.876 81.6663C976.248 82.8153 975.57 84.0564 974.844 85.4736L974.639 85.8736L974.496 86.2996L947.468 166.862C947.361 166.639 947.251 166.407 947.137 166.165C946.058 163.88 944.69 160.884 943.107 157.392C942.483 156.015 941.826 154.563 941.144 153.053C938.378 146.936 935.177 139.858 931.922 132.88C927.873 124.197 923.676 115.53 920.061 108.948C918.265 105.678 916.523 102.757 914.947 100.566C914.168 99.4836 913.304 98.4016 912.379 97.5132C911.983 97.1333 911.252 96.4585 910.231 95.8967C898.761 84.486 882.103 76.9649 863.582 72.7082C844.496 68.3219 822.909 67.2767 801.724 69.3067C780.54 71.3365 759.517 76.464 741.591 84.6098C723.972 92.6161 708.906 103.744 699.921 118.154C699.516 117.614 699.322 117.008 699.309 116.612C699.303 116.436 699.333 116.365 699.336 116.358C699.339 116.352 699.344 116.341 699.359 116.32C699.375 116.3 699.415 116.251 699.499 116.181L699.617 116.084L699.731 115.98C707.385 108.958 708.33 98.7073 705.18 90.682C702.03 82.6581 694.371 75.8297 683.896 76.1181H607.045H606.755L606.466 76.146C600.051 76.7675 594.913 79.8637 590.702 83.0801C588.682 84.6234 586.732 86.3099 584.929 87.8695L584.701 88.0669C582.782 89.7263 581.009 91.2504 579.193 92.6204C575.576 95.3484 572.239 97.1065 568.543 97.5743C564.939 98.0306 560.211 97.353 553.669 93.7123C529.243 79.3191 507.532 74.7755 488.304 75.5282C469.163 76.2775 452.902 82.2645 439.438 88.2255C436.074 89.7151 432.86 91.2144 429.837 92.6268L429.599 92.738C426.646 94.1179 423.893 95.4039 421.271 96.5611C415.815 98.9683 411.372 100.609 407.607 101.251C403.968 101.873 401.423 101.484 399.353 100.305C397.221 99.0904 394.762 96.563 392.284 91.273C390.667 86.911 387.766 83.1381 383.96 80.4534C380.073 77.7111 375.433 76.2386 370.675 76.2381H370.675H307.965H307.951L307.938 76.2382C303.107 76.2598 298.406 77.8018 294.501 80.6455C290.596 83.4893 287.686 87.4903 286.183 92.0811L286.18 92.0892L286.177 92.0973L284.384 97.6278C284.015 92.0866 281.649 86.8458 277.698 82.8946C273.385 78.5813 267.535 76.1581 261.435 76.1581H201.345C195.245 76.1581 189.395 78.5813 185.081 82.8946C180.768 87.2079 178.345 93.0581 178.345 99.1581V146.048H144.783C144.785 145.941 144.787 145.834 144.789 145.727C145.156 127.167 145.426 113.507 144.62 103.725C143.742 93.0661 141.467 84.6341 134.19 79.9161C130.751 77.6863 126.732 76.6641 122.492 76.165C118.258 75.6666 113.311 75.6414 107.74 75.7537C105.152 75.8059 102.391 75.8886 99.4324 75.9771C89.4692 76.2755 77.2755 76.6406 61.9844 76.1314L61.8846 76.1281H61.7847C55.6848 76.1281 49.8346 78.5513 45.5212 82.8646C41.2079 87.178 38.7847 93.0282 38.7847 99.1281V158.525C38.762 160.33 38.2324 162.092 37.256 163.611C36.2749 165.137 34.8828 166.355 33.2399 167.124L33.2167 167.135L33.1936 167.146C13.1764 176.731 7.70891 197.566 6.38181 217.442C5.70734 227.544 6.05982 238.029 6.42419 247.644C6.44197 248.113 6.45974 248.58 6.47743 249.044C6.82849 258.259 7.14194 266.487 6.65964 273.315L6.64855 273.472L6.64571 273.63C6.30339 292.56 15.9317 307.06 29.5834 315.639C43.0528 324.104 60.4968 326.893 76.6398 322.973C81.2514 322.039 91.5487 321.849 101.729 321.914C105.508 321.938 109.12 321.994 112.233 322.042C113.218 322.057 114.154 322.072 115.028 322.084C116.829 322.109 118.398 322.127 119.588 322.123C120.179 322.121 120.727 322.113 121.187 322.096L121.222 322.094C121.387 322.088 121.718 322.076 122.111 322.034C128.057 321.924 133.735 319.514 137.948 315.302C142.261 310.988 144.685 305.138 144.685 299.038V251.918H178.365V299.048C178.365 305.148 180.788 310.998 185.101 315.312C189.415 319.625 195.265 322.048 201.365 322.048H201.424L201.483 322.047C216.613 321.748 243.535 321.873 266.612 321.981C281.472 322.05 294.737 322.112 302.232 322.048C302.237 322.048 302.241 322.048 302.246 322.048L302.195 316.048M1117.45 70.7717L340.523 256.618M302.195 316.048C305.746 316.037 309.204 314.914 312.085 312.837C314.965 310.761 317.123 307.834 318.255 304.468L336.815 248.768C337.815 245.288 343.185 245.258 344.225 248.768L363.955 307.768L358.26 309.658M302.195 316.048C294.883 316.11 281.724 316.05 266.917 315.982C243.731 315.875 216.505 315.749 201.365 316.048H302.195ZM358.26 309.658L340.523 256.618M358.26 309.658C358.262 309.663 358.263 309.667 358.264 309.671M358.26 309.658L358.264 309.671M340.523 256.618L342.507 250.665L342.547 250.546L342.581 250.425C342.558 250.506 342.531 250.585 342.499 250.662C342.305 251.138 341.959 251.545 341.561 251.809C341.154 252.079 340.781 252.146 340.519 252.147C340.256 252.147 339.884 252.081 339.478 251.815C339.073 251.549 338.728 251.139 338.54 250.669C338.514 250.605 338.492 250.539 338.472 250.473L338.501 250.572L338.534 250.671L340.523 256.618ZM358.264 309.671C359.472 313.299 361.79 316.456 364.891 318.693C367.993 320.931 371.72 322.136 375.544 322.138L358.264 309.671ZM291.885 93.9481C292.996 90.5549 295.147 87.5976 298.033 85.4957C300.919 83.3938 304.394 82.2541 307.965 82.2381H370.675L291.885 93.9481ZM291.885 93.9481L289.615 100.948L291.885 93.9481ZM1197.3 176.778L1240.3 176.738L375.556 322.138L425.394 322.228L425.823 322.229L426.248 322.169C441.606 319.988 455.996 318.01 470.163 320.455C504.508 326.745 528.723 316.732 545.857 307.642C548.558 306.209 551.176 304.747 553.565 303.413C554.853 302.694 556.074 302.012 557.206 301.392C560.59 299.538 563.329 298.146 565.672 297.271C568.035 296.39 569.474 296.239 570.364 296.352C571.023 296.436 571.775 296.699 572.78 297.842L572.843 297.913L572.908 297.982C573.166 298.258 573.428 298.537 573.693 298.82C578.06 303.482 583.35 309.128 588.578 313.576C591.359 315.941 594.323 318.144 597.313 319.715C600.126 321.193 603.542 322.42 607.145 322.138H683.341C687.76 322.184 692.102 320.98 695.868 318.666C699.575 316.388 702.574 313.124 704.531 309.242C707.074 304.87 707.334 300.673 706.792 297.129C729.633 311.885 761.866 318.422 793.84 319.213C831.71 320.148 870.958 313.069 897.1 300.297C899.984 299.085 901.161 299.517 901.74 299.799C902.822 300.326 903.993 301.502 905.958 304.047C906.214 304.379 906.486 304.741 906.774 305.126C910.121 309.586 915.768 317.111 926.517 316.438H986.788C994.248 316.661 999.977 313.24 1003.95 308.584C1006.57 305.5 1008.47 301.849 1009.8 298.196C1010.72 302.506 1012.87 306.497 1016.03 309.662C1020.33 313.963 1026.16 316.385 1032.24 316.398C1037.22 316.475 1055.88 316.387 1074.99 316.296C1090.31 316.223 1105.92 316.149 1115 316.158C1136.82 316.205 1155.01 316.719 1172.45 317.213L1175.7 317.304C1194.13 317.823 1211.91 318.284 1232.35 318.088L1232.39 318.087L1232.42 318.087C1242.99 317.866 1250.61 313.73 1255.49 306.735C1260.1 300.147 1261.81 291.671 1262.42 283.483C1263.03 275.248 1262.57 266.415 1262.17 258.614L1262.16 258.491C1261.74 250.371 1261.41 243.672 1262.02 238.84L1262.06 238.515L1262.06 238.188C1262.35 220.684 1254.11 207.156 1242.02 198.601C1230.1 190.172 1214.53 186.585 1199.57 188.204C1198.23 188.304 1197.65 188.032 1197.44 187.908C1197.21 187.772 1196.88 187.484 1196.53 186.75C1195.74 185.052 1195.45 182.167 1195.78 178.864L1195.8 178.567V178.268C1195.8 177.873 1195.96 177.494 1196.24 177.215C1196.52 176.935 1196.9 176.778 1197.29 176.778H1197.3ZM35.7847 172.558C10.0329 184.888 11.362 219.706 12.4791 248.971C12.8252 258.038 13.1509 266.571 12.6447 273.738L35.7847 172.558ZM1115.72 75.2302C1115.72 75.2255 1115.73 75.22 1115.73 75.2153C1115.73 75.2203 1115.72 75.2253 1115.72 75.2302Z" fill="white" stroke="white" stroke-width="12" stroke-miterlimit="10"/>
<path d="M1059.76 23.9883H1028.75C1011.35 23.9883 997.245 38.0913 997.245 55.4883V55.5383C997.245 72.9352 1011.35 87.0383 1028.75 87.0383H1059.76C1077.16 87.0383 1091.26 72.9352 1091.26 55.5383V55.4883C1091.26 38.0913 1077.16 23.9883 1059.76 23.9883Z" fill="#C66D00"/>
<path d="M1070.22 23.9883H1039.2C1021.8 23.9883 1007.7 38.0913 1007.7 55.4883V55.5383C1007.7 72.9352 1021.8 87.0383 1039.2 87.0383H1070.22C1087.61 87.0383 1101.72 72.9352 1101.72 55.5383V55.4883C1101.72 38.0913 1087.61 23.9883 1070.22 23.9883Z" fill="#FFA639"/>
<path d="M1064.98 23.9883H1033.96C1016.57 23.9883 1002.46 38.0913 1002.46 55.4883V55.5383C1002.46 72.9352 1016.57 87.0383 1033.96 87.0383H1064.98C1082.38 87.0383 1096.48 72.9352 1096.48 55.5383V55.4883C1096.48 38.0913 1082.38 23.9883 1064.98 23.9883Z" fill="#FF8C00"/>
<path d="M1060.02 57.5879C1059.57 58.9877 1058.81 60.2692 1057.8 61.3393C1056.79 62.4095 1055.56 63.2414 1054.19 63.7747C1052.82 64.308 1051.34 64.5294 1049.88 64.4227C1048.41 64.316 1046.98 63.884 1045.71 63.1579" stroke="#231F20" stroke-width="2.98" stroke-linecap="round" stroke-linejoin="round"/>
<path d="M1069.97 122.298C1070.36 124.349 1071.38 126.227 1072.89 127.663C1074.41 129.1 1076.34 130.022 1078.4 130.298C1080.1 130.533 1081.82 130.315 1083.4 129.668" stroke="#C66D00" stroke-width="2.24" stroke-linecap="round" stroke-linejoin="round"/>
<path d="M1043.69 47.9782C1043.63 49.7143 1042.89 51.3569 1041.64 52.5615C1040.39 53.7661 1038.72 54.439 1036.98 54.439C1035.24 54.439 1033.57 53.7661 1032.32 52.5615C1031.07 51.3569 1030.33 49.7143 1030.26 47.9782V46.8882H1032.88V47.9782C1032.94 49.0319 1033.39 50.0252 1034.16 50.7525C1034.92 51.4799 1035.93 51.8855 1036.99 51.8855C1038.04 51.8855 1039.06 51.4799 1039.82 50.7525C1040.59 50.0252 1041.04 49.0319 1041.09 47.9782L1040.97 46.8882H1043.7L1043.69 47.9782Z" fill="white"/>
<path d="M1032.88 46.8584H1041.09V48.4684C1041.04 49.5221 1040.59 50.5154 1039.82 51.2427C1039.06 51.9701 1038.04 52.3757 1036.99 52.3757C1035.93 52.3757 1034.92 51.9701 1034.16 51.2427C1033.39 50.5154 1032.94 49.5221 1032.88 48.4684V46.8584Z" fill="#231F20"/>
<path d="M1068.68 47.9782C1068.62 49.7143 1067.88 51.3569 1066.63 52.5615C1065.38 53.7661 1063.71 54.439 1061.97 54.439C1060.23 54.439 1058.56 53.7661 1057.31 52.5615C1056.06 51.3569 1055.32 49.7143 1055.25 47.9782V46.8882H1057.88V47.9782C1057.94 49.0319 1058.39 50.0252 1059.16 50.7525C1059.92 51.4799 1060.93 51.8855 1061.99 51.8855C1063.04 51.8855 1064.06 51.4799 1064.82 50.7525C1065.59 50.0252 1066.04 49.0319 1066.09 47.9782L1065.98 46.8882H1068.7L1068.68 47.9782Z" fill="white"/>
<path d="M1057.88 46.8584H1066.09V48.4684C1066.04 49.5221 1065.59 50.5154 1064.82 51.2427C1064.06 51.9701 1063.04 52.3757 1061.99 52.3757C1060.93 52.3757 1059.92 51.9701 1059.16 51.2427C1058.39 50.5154 1057.94 49.5221 1057.88 48.4684V46.8584Z" fill="#231F20"/>
<path d="M485.114 233.378C503.826 233.378 518.994 217.44 518.994 197.778C518.994 178.117 503.826 162.178 485.114 162.178C466.403 162.178 451.234 178.117 451.234 197.778C451.234 217.44 466.403 233.378 485.114 233.378Z" fill="#0066C6"/>
<path d="M492.734 233.378C511.446 233.378 526.615 217.44 526.615 197.778C526.615 178.117 511.446 162.178 492.734 162.178C474.023 162.178 458.854 178.117 458.854 197.778C458.854 217.44 474.023 233.378 492.734 233.378Z" fill="#399FFF"/>
<path d="M489.194 234.178C507.906 234.178 523.074 218.239 523.074 198.578C523.074 178.917 507.906 162.978 489.194 162.978C470.483 162.978 455.314 178.917 455.314 198.578C455.314 218.239 470.483 234.178 489.194 234.178Z" fill="#0083FF"/>
<path d="M500.915 204.878C504.445 204.878 507.305 201.869 507.305 198.158C507.305 194.447 504.445 191.438 500.915 191.438C497.386 191.438 494.525 194.447 494.525 198.158C494.525 201.869 497.386 204.878 500.915 204.878Z" fill="white"/>
<path d="M498.785 202.258C500.944 202.258 502.695 200.422 502.695 198.158C502.695 195.894 500.944 194.058 498.785 194.058C496.626 194.058 494.875 195.894 494.875 198.158C494.875 200.422 496.626 202.258 498.785 202.258Z" fill="#231F20"/>
<path d="M477.485 204.878C481.014 204.878 483.875 201.869 483.875 198.158C483.875 194.447 481.014 191.438 477.485 191.438C473.956 191.438 471.095 194.447 471.095 198.158C471.095 201.869 473.956 204.878 477.485 204.878Z" fill="white"/>
<path d="M475.344 202.258C477.504 202.258 479.255 200.422 479.255 198.158C479.255 195.894 477.504 194.058 475.344 194.058C473.185 194.058 471.435 195.894 471.435 198.158C471.435 200.422 473.185 202.258 475.344 202.258Z" fill="#231F20"/>
<path d="M495.885 205.908C494.995 209.908 492.415 212.768 489.375 212.768C486.335 212.768 483.755 209.888 482.865 205.908" stroke="#231F20" stroke-width="1.86" stroke-linecap="round" stroke-linejoin="round"/>
<path d="M223.194 304.078H201.264C199.938 304.078 198.667 303.551 197.729 302.614C196.791 301.676 196.264 300.404 196.264 299.078V241.668C196.264 239.613 195.448 237.641 193.995 236.188C192.541 234.735 190.57 233.918 188.514 233.918H134.334C132.279 233.918 130.308 234.735 128.854 236.188C127.401 237.641 126.584 239.613 126.584 241.668V299.048C126.584 300.374 126.058 301.646 125.12 302.584C124.182 303.521 122.91 304.048 121.584 304.048H61.7344C60.4083 304.048 59.1365 303.521 58.1989 302.584C57.2612 301.646 56.7344 300.374 56.7344 299.048V99.1182C56.7344 97.7921 57.2612 96.5203 58.1989 95.5826C59.1365 94.6449 60.4083 94.1182 61.7344 94.1182H121.584C122.91 94.1182 124.182 94.6449 125.12 95.5826C126.058 96.5203 126.584 97.7921 126.584 99.1182V156.258C126.584 158.314 127.401 160.285 128.854 161.738C130.308 163.192 132.279 164.008 134.334 164.008H188.514C190.57 164.008 192.541 163.192 193.995 161.738C195.448 160.285 196.264 158.314 196.264 156.258V99.1182C196.264 97.7921 196.791 96.5203 197.729 95.5826C198.667 94.6449 199.938 94.1182 201.264 94.1182H261.354C262.68 94.1182 263.952 94.6449 264.89 95.5826C265.828 96.5203 266.354 97.7921 266.354 99.1182V180.318C266.355 183.663 265.815 186.986 264.754 190.158L227.924 300.638C227.597 301.636 226.964 302.504 226.115 303.122C225.266 303.739 224.244 304.074 223.194 304.078Z" fill="black"/>
<path d="M340.494 234.068C343.835 234.06 347.093 235.105 349.805 237.055C352.518 239.004 354.547 241.759 355.604 244.928L375.344 303.928C375.359 303.976 375.39 304.018 375.432 304.047C375.474 304.076 375.523 304.09 375.574 304.088L425.394 304.178C426.501 304.207 427.586 303.868 428.479 303.214C429.373 302.56 430.024 301.628 430.33 300.564C430.637 299.5 430.582 298.365 430.173 297.336C429.765 296.307 429.027 295.442 428.074 294.878C379.194 263.778 360.354 196.548 389.404 144.638C389.945 143.673 390.274 142.604 390.369 141.502C390.464 140.4 390.323 139.291 389.954 138.248L375.494 97.5679C375.15 96.5841 374.508 95.7324 373.656 95.1317C372.804 94.5311 371.786 94.2116 370.744 94.2179H308.034C306.972 94.2137 305.936 94.5477 305.077 95.1716C304.218 95.7955 303.579 96.6768 303.254 97.6879L237.964 297.468C237.709 298.224 237.638 299.029 237.758 299.818C237.877 300.606 238.184 301.355 238.652 302.001C239.119 302.647 239.735 303.172 240.447 303.531C241.159 303.891 241.947 304.075 242.744 304.068H302.094C303.151 304.072 304.181 303.741 305.038 303.123C305.895 302.505 306.535 301.632 306.864 300.628L325.434 244.928C326.489 241.766 328.51 239.016 331.212 237.065C333.914 235.115 337.161 234.063 340.494 234.058V234.068Z" fill="black"/>
<path d="M523.635 233.588L559.825 269.778C560.312 270.255 560.696 270.828 560.953 271.459C561.211 272.091 561.336 272.768 561.322 273.45C561.308 274.132 561.155 274.804 560.871 275.424C560.588 276.045 560.181 276.601 559.675 277.058C496.435 334.908 390.175 294.178 384.375 206.138C378.445 110.758 490.975 58.5379 559.885 121.138C560.394 121.594 560.804 122.149 561.09 122.77C561.376 123.39 561.532 124.063 561.548 124.746C561.564 125.429 561.439 126.108 561.183 126.742C560.926 127.375 560.542 127.949 560.055 128.428L526.195 162.288C521.945 166.538 519.065 166.698 517.065 165.108C474.665 131.168 419.425 188.648 458.305 230.178C473.095 245.858 500.385 246.888 516.845 233.318C517.802 232.499 519.034 232.072 520.293 232.122C521.552 232.172 522.745 232.696 523.635 233.588Z" fill="black"/>
<path d="M596.585 204.468L687.415 295.468C688.135 296.166 688.628 297.064 688.832 298.045C689.035 299.027 688.938 300.047 688.554 300.973C688.17 301.899 687.517 302.689 686.679 303.239C685.841 303.789 684.857 304.074 683.855 304.058H606.855C605.533 304.061 604.263 303.539 603.325 302.608L528.975 229.328C527.775 228.16 526.989 226.633 526.737 224.978C526.484 223.323 526.778 221.631 527.575 220.158C534.575 207.608 534.575 190.608 527.735 178.008C526.948 176.533 526.661 174.843 526.917 173.191C527.173 171.54 527.958 170.016 529.155 168.848L603.565 95.5182C604.503 94.5872 605.773 94.0658 607.095 94.0682H684.035C685.039 94.0499 686.026 94.3346 686.866 94.8852C687.707 95.4358 688.361 96.2268 688.746 97.155C689.13 98.0832 689.226 99.1056 689.02 100.089C688.815 101.072 688.318 101.971 687.595 102.668L596.595 193.468C595.869 194.188 595.292 195.044 594.898 195.988C594.504 196.931 594.301 197.944 594.3 198.966C594.299 199.989 594.501 201.001 594.893 201.946C595.285 202.89 595.86 203.747 596.585 204.468Z" fill="black"/>
<path d="M817.645 178.028C831.141 177.909 844.617 179.094 857.885 181.568C859.095 181.786 860.236 182.289 861.213 183.035C862.19 183.781 862.976 184.748 863.505 185.858L902.715 268.198C903.522 269.882 903.692 271.801 903.194 273.601C902.696 275.4 901.563 276.959 900.005 277.988C855.615 306.988 767.605 308.288 716.935 283.868C716.21 283.525 715.579 283.012 715.094 282.374C714.609 281.735 714.284 280.989 714.148 280.199C714.012 279.409 714.067 278.597 714.31 277.833C714.554 277.069 714.977 276.374 715.545 275.808L743.395 247.468C744.237 246.602 745.365 246.07 746.569 245.971C747.773 245.871 748.972 246.211 749.945 246.928C768.645 260.238 849.095 275.388 853.055 234.778C853.055 220.398 837.435 208.778 818.115 208.628C818.051 208.628 817.99 208.603 817.945 208.558C817.9 208.513 817.875 208.452 817.875 208.388C817.875 208.323 817.85 208.261 817.806 208.215C817.761 208.168 817.7 208.141 817.635 208.138C773.985 207.928 713.955 191.368 710.435 147.208C708.285 90.348 835.105 71.408 888.195 100.208C888.974 100.628 889.627 101.247 890.089 102.002C890.55 102.757 890.803 103.621 890.821 104.506C890.839 105.39 890.622 106.264 890.193 107.037C889.763 107.811 889.136 108.456 888.375 108.908C875.615 116.668 861.485 125.208 849.235 132.538C848.313 133.098 847.239 133.356 846.163 133.276C845.087 133.195 844.063 132.78 843.235 132.088C824.775 116.828 782.765 125.598 783.235 150.468C783.235 164.868 798.445 178.008 817.645 178.088" fill="black"/>
<path d="M853.604 136.538C865.174 129.538 881.375 119.748 895.255 111.148C895.856 110.768 896.532 110.521 897.237 110.423C897.942 110.325 898.659 110.378 899.342 110.58C900.025 110.781 900.656 111.126 901.195 111.592C901.733 112.057 902.166 112.632 902.465 113.278L933.255 178.468C939.475 191.628 958.545 190.468 963.175 176.708L991.584 91.9981C991.916 90.9945 992.558 90.1219 993.417 89.5056C994.276 88.8894 995.307 88.5611 996.364 88.5681H1055.18C1055.99 88.561 1056.78 88.7475 1057.5 89.1118C1058.21 89.476 1058.83 90.0072 1059.3 90.6605C1059.76 91.3138 1060.07 92.07 1060.18 92.865C1060.29 93.6601 1060.21 94.4706 1059.94 95.2281L991.614 294.968C991.28 295.966 990.638 296.833 989.782 297.446C988.925 298.058 987.897 298.384 986.844 298.378H926.314C925.351 298.382 924.408 298.107 923.597 297.587C922.786 297.067 922.143 296.325 921.745 295.448L851.634 142.948C851.11 141.825 851.022 140.548 851.386 139.364C851.75 138.18 852.54 137.173 853.604 136.538Z" fill="black"/>
<path d="M1112.94 88.7784L1240.54 88.5684C1241.87 88.5684 1243.14 89.0951 1244.08 90.0328C1245.02 90.9705 1245.54 92.2423 1245.54 93.5684V153.468C1245.54 154.869 1244.99 156.212 1244 157.202C1243.01 158.192 1241.67 158.748 1240.26 158.748H1185.51C1184.49 158.747 1183.48 158.946 1182.54 159.335C1181.6 159.723 1180.75 160.293 1180.03 161.012C1179.31 161.731 1178.73 162.584 1178.35 163.524C1177.96 164.464 1177.76 165.471 1177.76 166.488V293.338C1177.76 294.664 1177.23 295.936 1176.29 296.874C1175.35 297.812 1174.08 298.338 1172.76 298.338H1113.41C1112.08 298.338 1110.81 297.812 1109.87 296.874C1108.93 295.936 1108.41 294.664 1108.41 293.338L1107.89 93.8284C1107.88 93.1633 1108 92.5036 1108.26 91.8879C1108.51 91.2722 1108.88 90.7129 1109.35 90.2426C1109.82 89.7723 1110.38 89.4006 1110.99 89.1492C1111.61 88.8977 1112.27 88.7717 1112.94 88.7784Z" fill="black"/>
<path d="M1096.5 88.628H1072.37C1071.32 88.6225 1070.29 88.9502 1069.44 89.5644C1068.58 90.1787 1067.94 91.0479 1067.6 92.048L1027.66 209.768C1027.39 210.57 1027.26 211.411 1027.25 212.258V293.338C1027.25 294.664 1027.78 295.936 1028.72 296.874C1029.66 297.811 1030.93 298.338 1032.25 298.338H1096.47C1097.8 298.338 1099.07 297.811 1100.01 296.874C1100.95 295.936 1101.47 294.664 1101.47 293.338V93.658C1101.48 93.0014 1101.35 92.3504 1101.11 91.7423C1100.86 91.1341 1100.49 90.5807 1100.03 90.1136C1099.57 89.6466 1099.02 89.275 1098.42 89.02C1097.81 88.7651 1097.16 88.6319 1096.5 88.628Z" fill="black"/>
<path d="M24.4844 211.188L24.4844 275.108C24.4844 292.279 38.4016 306.198 55.5694 306.198C72.7372 306.198 86.6544 292.279 86.6544 275.108V211.188C86.6544 194.018 72.7372 180.098 55.5694 180.098C38.4016 180.098 24.4844 194.018 24.4844 211.188Z" fill="#FFBB00"/>
<path d="M34.5547 211.188L34.5547 275.108C34.5547 292.279 48.4719 306.198 65.6397 306.198C82.8075 306.198 96.7247 292.279 96.7247 275.108V211.188C96.7247 194.018 82.8075 180.098 65.6397 180.098C48.4719 180.098 34.5547 194.018 34.5547 211.188Z" fill="#FFD971"/>
<path d="M29.2949 211.178L29.2949 275.098C29.2949 292.268 43.2122 306.188 60.3799 306.188C77.5477 306.188 91.4649 292.268 91.4649 275.098V211.178C91.4649 194.007 77.5477 180.088 60.3799 180.088C43.2122 180.088 29.2949 194.007 29.2949 211.178Z" fill="#FFCA39"/>
<path d="M72.635 271.628C76.3464 271.628 79.355 268.619 79.355 264.908C79.355 261.197 76.3464 258.188 72.635 258.188C68.9237 258.188 65.915 261.197 65.915 264.908C65.915 268.619 68.9237 271.628 72.635 271.628Z" fill="white"/>
<path d="M73.3949 269.008C75.6593 269.008 77.4949 267.172 77.4949 264.908C77.4949 262.644 75.6593 260.808 73.3949 260.808C71.1305 260.808 69.2949 262.644 69.2949 264.908C69.2949 267.172 71.1305 269.008 73.3949 269.008Z" fill="#231F20"/>
<path d="M48.0149 271.628C51.7262 271.628 54.7349 268.619 54.7349 264.908C54.7349 261.197 51.7262 258.188 48.0149 258.188C44.3035 258.188 41.2949 261.197 41.2949 264.908C41.2949 268.619 44.3035 271.628 48.0149 271.628Z" fill="white"/>
<path d="M48.7748 269.008C51.0391 269.008 52.8748 267.172 52.8748 264.908C52.8748 262.644 51.0391 260.808 48.7748 260.808C46.5104 260.808 44.6748 262.644 44.6748 264.908C44.6748 267.172 46.5104 269.008 48.7748 269.008Z" fill="#231F20"/>
<path d="M69.2749 283.518C69.2925 285.039 68.9269 286.539 68.2122 287.881C67.4974 289.224 66.4564 290.364 65.185 291.198C63.7879 292.093 62.1637 292.568 60.5049 292.568C58.8461 292.568 57.2219 292.093 55.8248 291.198C54.5546 290.364 53.5151 289.223 52.802 287.88C52.089 286.538 51.7254 285.038 51.7449 283.518V273.468H69.2749V283.518Z" fill="#FFF7E3" stroke="#FFE8AA" stroke-width="0.37" stroke-miterlimit="10"/>
<path d="M1171.38 288.288V237.448C1171.38 229.202 1174.65 221.295 1180.48 215.464C1186.31 209.634 1194.22 206.358 1202.46 206.358C1210.71 206.358 1218.62 209.634 1224.45 215.464C1230.28 221.295 1233.55 229.202 1233.55 237.448V288.288C1233.55 291.41 1232.31 294.404 1230.11 296.611C1227.9 298.818 1224.91 300.058 1221.79 300.058H1183.14C1180.02 300.058 1177.03 298.818 1174.82 296.611C1172.62 294.404 1171.38 291.41 1171.38 288.288Z" fill="#5301C6"/>
<path d="M1181.88 288.298V237.458C1181.88 233.375 1182.69 229.333 1184.25 225.561C1185.81 221.789 1188.1 218.361 1190.99 215.474C1193.88 212.587 1197.31 210.297 1201.08 208.735C1204.85 207.172 1208.89 206.368 1212.97 206.368C1217.06 206.368 1221.1 207.172 1224.87 208.735C1228.64 210.297 1232.07 212.587 1234.96 215.474C1237.85 218.361 1240.14 221.789 1241.7 225.561C1243.26 229.333 1244.06 233.375 1244.06 237.458V288.298C1244.06 291.42 1242.82 294.414 1240.62 296.621C1238.41 298.828 1235.42 300.068 1232.29 300.068H1193.65C1190.53 300.068 1187.54 298.828 1185.33 296.621C1183.12 294.414 1181.88 291.42 1181.88 288.298Z" fill="#8C39FE"/>
<path d="M1176.63 288.298V237.458C1176.63 229.213 1179.91 221.305 1185.74 215.474C1191.57 209.644 1199.48 206.368 1207.72 206.368C1215.97 206.368 1223.88 209.644 1229.71 215.474C1235.54 221.305 1238.81 229.213 1238.81 237.458V288.298C1238.81 291.416 1237.57 294.405 1235.36 296.608C1233.15 298.811 1230.16 300.048 1227.04 300.048H1188.4C1185.28 300.048 1182.29 298.808 1180.08 296.601C1177.87 294.394 1176.63 291.4 1176.63 288.278V288.298Z" fill="#6B01FE"/>
<path d="M1220.03 272.568C1223.75 272.568 1226.75 269.559 1226.75 265.848C1226.75 262.137 1223.75 259.128 1220.03 259.128C1216.32 259.128 1213.31 262.137 1213.31 265.848C1213.31 269.559 1216.32 272.568 1220.03 272.568Z" fill="white"/>
<path d="M1218.53 268.458C1220.8 268.458 1222.63 266.623 1222.63 264.358C1222.63 262.094 1220.8 260.258 1218.53 260.258C1216.27 260.258 1214.43 262.094 1214.43 264.358C1214.43 266.623 1216.27 268.458 1218.53 268.458Z" fill="#231F20"/>
<path d="M1207.72 281.148C1209.98 281.148 1211.82 279.313 1211.82 277.048C1211.82 274.784 1209.98 272.948 1207.72 272.948C1205.45 272.948 1203.62 274.784 1203.62 277.048C1203.62 279.313 1205.45 281.148 1207.72 281.148Z" fill="#231F20"/>
<path d="M1195.4 272.568C1199.12 272.568 1202.12 269.559 1202.12 265.848C1202.12 262.137 1199.12 259.128 1195.4 259.128C1191.69 259.128 1188.68 262.137 1188.68 265.848C1188.68 269.559 1191.69 272.568 1195.4 272.568Z" fill="white"/>
<path d="M1196.9 268.458C1199.16 268.458 1201 266.623 1201 264.358C1201 262.094 1199.16 260.258 1196.9 260.258C1194.63 260.258 1192.79 262.094 1192.79 264.358C1192.79 266.623 1194.63 268.458 1196.9 268.458Z" fill="#231F20"/>
<path d="M690.885 229.228L629.565 213.358C626.367 212.531 623.447 210.87 621.102 208.545C618.756 206.22 617.07 203.315 616.215 200.125C615.36 196.935 615.366 193.576 616.234 190.389C617.102 187.203 618.8 184.304 621.155 181.988L667.565 136.298C669.918 133.982 672.845 132.331 676.045 131.515C679.245 130.699 682.605 130.746 685.781 131.652C688.957 132.557 691.835 134.289 694.123 136.671C696.411 139.053 698.027 141.999 698.805 145.208L713.705 206.768C714.462 209.902 714.394 213.179 713.509 216.279C712.624 219.379 710.951 222.197 708.653 224.458C706.355 226.72 703.511 228.348 700.397 229.184C697.283 230.02 694.006 230.035 690.885 229.228Z" fill="#FE0169"/>
<path d="M685.985 234.078L624.675 218.208C621.479 217.378 618.56 215.715 616.215 213.389C613.871 211.064 612.185 208.158 611.33 204.969C610.474 201.78 610.479 198.421 611.344 195.234C612.209 192.047 613.904 189.147 616.255 186.828L662.675 141.148C665.029 138.831 667.955 137.181 671.155 136.364C674.355 135.548 677.715 135.595 680.89 136.501C684.066 137.407 686.945 139.139 689.233 141.521C691.522 143.902 693.137 146.848 693.915 150.058L708.815 211.608C709.571 214.743 709.504 218.021 708.618 221.122C707.732 224.223 706.058 227.042 703.76 229.305C701.461 231.567 698.616 233.196 695.501 234.032C692.386 234.869 689.107 234.884 685.985 234.078Z" fill="#FE72AC"/>
<path d="M688.445 231.648L627.135 215.788C623.938 214.959 621.018 213.297 618.673 210.971C616.328 208.645 614.642 205.739 613.787 202.549C612.932 199.358 612.938 195.998 613.806 192.811C614.674 189.625 616.371 186.725 618.725 184.408L665.135 138.718C667.49 136.402 670.417 134.751 673.618 133.936C676.818 133.12 680.178 133.168 683.355 134.075C686.531 134.982 689.409 136.715 691.697 139.098C693.984 141.481 695.599 144.428 696.375 147.638L711.275 209.188C712.033 212.323 711.966 215.601 711.08 218.702C710.194 221.803 708.521 224.622 706.221 226.884C703.922 229.146 701.076 230.774 697.961 231.609C694.846 232.443 691.567 232.457 688.445 231.648Z" fill="#FE398A"/>
<path d="M656.595 197.728C659.842 197.728 662.475 195.096 662.475 191.848C662.475 188.601 659.842 185.968 656.595 185.968C653.347 185.968 650.715 188.601 650.715 191.848C650.715 195.096 653.347 197.728 656.595 197.728Z" fill="white"/>
<path d="M656.595 195.448C658.583 195.448 660.195 193.836 660.195 191.848C660.195 189.86 658.583 188.248 656.595 188.248C654.607 188.248 652.995 189.86 652.995 191.848C652.995 193.836 654.607 195.448 656.595 195.448Z" fill="#231F20"/>
<path d="M671.975 182.588C675.222 182.588 677.855 179.956 677.855 176.708C677.855 173.461 675.222 170.828 671.975 170.828C668.727 170.828 666.095 173.461 666.095 176.708C666.095 179.956 668.727 182.588 671.975 182.588Z" fill="white"/>
<path d="M671.975 180.308C673.963 180.308 675.575 178.697 675.575 176.708C675.575 174.72 673.963 173.108 671.975 173.108C669.987 173.108 668.375 174.72 668.375 176.708C668.375 178.697 669.987 180.308 671.975 180.308Z" fill="#231F20"/>
<path d="M652.365 184.648C651.546 183.007 651.269 181.148 651.571 179.339C651.873 177.53 652.74 175.863 654.048 174.577C655.355 173.291 657.036 172.451 658.85 172.178C660.663 171.905 662.517 172.213 664.145 173.058" stroke="#231F20" stroke-width="1.96" stroke-linecap="round" stroke-linejoin="round"/>
</svg>
