<svg width="528" height="247" viewBox="0 0 528 247" fill="none" xmlns="http://www.w3.org/2000/svg">
<path d="M220.077 35.0557L219.845 35.0378L219.614 35.0378C207.887 35.0382 196.26 37.0522 185.237 40.9805C170.508 20.7064 151.405 9.96553 131.595 6.91883C110.664 3.69966 89.3533 9.12503 72.0176 20.2105C54.6833 31.295 40.9939 48.2533 35.6478 68.4931C30.598 87.6113 33.1254 109.176 46.3083 130.714C43.1857 134.597 41.6558 139.384 41.2481 144.041C29.3177 146.551 20.225 149.659 14.2671 154.92C6.9533 161.379 5.34679 170.025 6.2164 180.269C5.69785 185.685 6.04784 192.199 8.29258 198.256C10.6652 204.659 15.2331 210.679 23.0268 213.89C42.1001 222.268 66.5961 226.093 90.8269 226.343C113.68 226.578 136.799 223.638 155.603 217.975C164.974 226.583 177.486 231.939 191.16 235.3C206.256 239.01 223.334 240.426 240.403 240.811C256.265 241.169 272.374 240.64 287.113 240.155C288.249 240.118 289.376 240.081 290.495 240.044C306.281 239.531 320.111 239.166 330.608 240.018L330.855 240.038L331.102 240.038C344.021 240.021 356.813 237.574 368.813 232.833C393.553 246.429 420.434 240.032 438.518 224.121C455.599 209.094 465.456 185.042 458.544 160.351C464.1 159.138 470.042 157.156 475.237 154.277C481.409 150.857 487.547 145.54 489.532 137.93C500.472 135.607 509.008 131.965 514.459 125.228C520.558 117.691 521.693 107.675 520.686 95.6567C521.459 89.6716 517.883 83.9509 514.102 80.1123C510.878 76.8394 506.601 73.9481 501.768 72.1633C501.483 68.2092 500.235 64.5788 498.103 61.3449C495.134 56.8403 490.711 53.4897 485.733 50.9705C475.884 45.9857 462.468 43.5617 448.755 42.5213C422.564 40.5341 392.773 43.4403 377.605 45.9895C369.315 41.1555 357.746 38.4115 345.242 36.772C331.405 34.9578 315.495 34.3937 299.654 34.3566C286.396 34.3256 273.036 34.6649 260.855 34.9743C258.472 35.0348 256.133 35.0942 253.85 35.1494C239.755 35.4904 227.952 35.665 220.077 35.0557Z" fill="white" stroke="white" stroke-width="12" stroke-miterlimit="10"/>
<path d="M162.043 189.448C162.113 193.518 159.743 195.778 157.303 197.508L156.723 197.908C156.128 198.318 155.506 198.688 154.863 199.018C151.754 200.561 148.484 201.759 145.113 202.588C144.433 202.778 143.743 202.948 143.033 203.118C139.593 203.948 135.753 204.688 131.643 205.318L129.033 205.688C124.613 206.298 119.923 206.798 115.093 207.168L113.013 207.318C108.673 207.628 104.263 207.828 99.8432 207.938C99.0732 207.938 98.3133 207.938 97.5433 207.938C94.1333 207.998 90.7333 207.998 87.3933 207.938H86.0632C85.6732 207.938 85.3033 207.938 84.9133 207.938C80.6233 207.818 76.3833 207.578 72.2633 207.218L69.3532 206.948C64.8332 206.498 60.4832 205.948 56.3532 205.228L54.0532 204.828C50.0532 204.098 46.3632 203.258 43.0532 202.338L40.7133 201.648C37.374 200.686 34.1355 199.404 31.0432 197.818C30.3132 197.428 29.6332 197.028 29.0432 196.628C27.9354 195.934 26.9263 195.093 26.0432 194.128C23.8332 191.598 24.3032 187.838 24.2932 184.258C24.2932 180.098 24.1432 175.878 24.2932 171.728C24.3314 171.422 24.4448 171.13 24.6232 170.878C24.7054 170.773 24.8079 170.685 24.9247 170.619C25.0415 170.554 25.1702 170.513 25.3032 170.498C31.3032 169.348 37.4332 170.598 43.4932 171.098C48.7032 171.518 53.9333 171.378 59.1533 171.398C63.4133 171.398 67.6732 171.508 71.9332 171.728C74.0832 171.848 76.2333 172.018 78.3833 172.138C80.3333 172.238 82.3833 171.888 84.3833 171.828C88.7933 171.688 93.2032 171.688 97.6132 171.828C101.443 171.908 105.103 171.008 108.933 170.578C113.193 170.098 117.463 169.738 121.733 169.448C130.193 168.878 138.663 168.598 147.133 168.328C150.345 168.162 153.564 168.185 156.773 168.398C158.178 168.428 159.554 168.81 160.773 169.508C161.102 169.7 161.369 169.981 161.543 170.318C161.839 170.936 162.044 171.593 162.153 172.268C162.173 178.108 161.943 183.528 162.043 189.448Z" fill="#FABE56"/>
<path d="M26.0235 175.008C32.4935 180.808 58.1735 185.288 86.0235 185.818C113.874 186.348 146.304 183.518 156.684 177.988C173.544 168.988 149.343 159.308 103.343 157.698C56.8335 156.068 14.9435 165.078 26.0235 175.008Z" fill="#FFD473"/>
<path d="M39.0134 173.598C44.2334 176.918 64.9435 179.488 87.4335 179.798C109.923 180.108 136.063 178.478 144.433 175.298C158.033 170.148 138.503 164.588 101.433 163.668C63.8635 162.738 30.0734 167.898 39.0134 173.598Z" fill="#FABE56"/>
<path d="M110.653 172.628C110.742 173.603 110.483 174.576 109.923 175.378C109.598 175.69 109.211 175.93 108.787 176.083C108.364 176.236 107.913 176.299 107.463 176.268C106.293 176.188 105.713 175.728 105.713 174.878C106.048 174.176 106.245 173.415 106.293 172.638H96.5632C95.8966 175.832 92.9733 177.425 87.7933 177.418C81.9933 177.212 78.6799 175.642 77.8533 172.708H72.6133C72.2214 172.733 71.8301 172.653 71.4789 172.477C71.1277 172.302 70.8291 172.036 70.6133 171.708V171.628C70.6133 171.068 71.1233 170.678 72.1333 170.458C72.7533 170.458 74.5933 170.458 77.6833 170.388C77.6172 169.208 77.9715 168.042 78.6833 167.098C79.0015 166.696 79.4075 166.371 79.8702 166.15C80.3329 165.928 80.8401 165.814 81.3533 165.818C82.5533 165.818 83.2733 166.018 83.5133 166.418C83.5904 166.53 83.6321 166.663 83.6333 166.798C83.5736 167.236 83.3525 167.636 83.0133 167.918C82.4231 168.595 82.0964 169.461 82.0933 170.358L92.8132 170.298C93.7732 167.438 96.6233 166.008 101.363 166.008C106.383 166.008 109.383 167.422 110.363 170.248H112.613C114.193 170.248 115.133 170.418 115.423 170.738C115.54 170.812 115.637 170.912 115.708 171.03C115.78 171.148 115.822 171.281 115.833 171.418C115.833 171.938 115.273 172.298 114.133 172.518H113.693H113.053L110.653 172.628ZM101.413 168.308C99.2333 168.308 97.7899 169.002 97.0833 170.388H105.843C105.173 168.988 103.693 168.308 101.373 168.308H101.413ZM87.8132 175.148C90.1399 175.148 91.6133 174.332 92.2333 172.698L82.2333 172.748C82.8999 174.148 84.67 174.948 87.5433 175.148H87.8132Z" fill="#FFD473"/>
<path d="M157.304 197.508L156.724 197.908C156.128 198.317 155.507 198.688 154.864 199.018C154.544 195.828 154.864 192.148 154.744 189.348C154.594 184.458 154.364 179.508 154.614 174.618C154.674 173.508 155.304 172.618 155.614 174.138C156.328 178.927 156.735 183.757 156.834 188.598C156.904 191.128 157.374 194.448 157.304 197.508Z" fill="#FFD473"/>
<path d="M145.374 194.798C145.314 197.298 145.374 200.018 145.114 202.628C144.434 202.818 143.744 202.988 143.034 203.158C143.034 199.868 143.444 196.568 143.614 193.288C143.874 188.428 143.944 183.548 144.094 178.698C144.094 177.248 144.914 177.248 145.034 178.698C145.436 184.055 145.55 189.429 145.374 194.798Z" fill="#FFD473"/>
<path d="M131.644 205.318L129.034 205.688C128.894 202.398 129.244 198.848 129.204 195.848C129.114 190.348 128.904 184.848 129.054 179.338C129.054 178.218 129.784 177.338 130.054 178.858C130.829 184.472 131.236 190.13 131.274 195.798C131.374 198.508 131.744 202.048 131.644 205.318Z" fill="#FFD473"/>
<path d="M113.014 207.318C113.014 202.158 113.014 196.988 113.014 191.838C113.014 189.098 112.934 186.378 113.014 183.648C112.902 182.664 113.061 181.668 113.474 180.768H113.534C115.074 181.988 114.534 189.678 114.674 191.768C114.894 196.898 115.034 202.018 115.094 207.158L113.014 207.318Z" fill="#FFD473"/>
<path d="M99.8436 207.938C99.0736 207.938 98.3137 207.938 97.5437 207.938C97.4737 204.858 97.7937 201.608 97.7537 198.718C97.6837 193.428 97.3737 188.119 97.4137 182.829C97.4137 181.969 97.9537 180.258 98.2637 181.978C99.1482 187.498 99.5963 193.079 99.6036 198.668C99.6536 201.278 99.9836 204.798 99.8436 207.938Z" fill="#FFD473"/>
<path d="M87.3735 198.597C87.3735 201.387 87.5535 204.767 87.3735 207.967H86.0436C85.6536 207.967 85.2836 207.967 84.8936 207.967C84.8936 204.577 85.3236 201.108 85.4236 197.868C85.6036 192.358 85.1635 186.268 86.1335 180.868C86.2435 180.258 86.5035 180.248 86.6335 180.868C87.8535 186.328 87.4235 192.917 87.3735 198.597Z" fill="#FFD473"/>
<path d="M72.2635 207.188L69.3535 206.918C69.4235 204.088 69.7135 201.208 69.8235 198.628C70.0435 192.948 70.1436 187.228 70.6536 181.578C70.9536 178.288 72.2335 179.888 72.3135 182.268C72.4935 188.028 72.3135 193.798 72.1835 199.558C72.1535 201.798 72.3135 204.538 72.2635 207.188Z" fill="#FFD473"/>
<path d="M56.3742 205.198L54.0742 204.798C54.1842 202.118 54.3642 199.448 54.5442 196.798C54.9242 190.798 55.0142 184.728 55.8742 178.798C56.0242 177.798 56.5042 178.328 56.5742 179.068C57.1845 187.77 57.1176 196.507 56.3742 205.198Z" fill="#FFD473"/>
<path d="M43.0433 202.308L40.7034 201.618C40.6434 198.758 40.9334 195.778 41.0634 193.088C41.3134 187.848 41.5034 182.638 42.0634 177.438C42.2134 175.958 42.7734 176.678 42.8334 177.738C43.1034 183.108 43.0634 188.458 43.0734 193.828C43.0434 196.408 43.2533 199.468 43.0433 202.308Z" fill="#FFD473"/>
<path d="M31.1837 187.138C31.1837 190.598 31.3737 194.288 31.0337 197.788C30.3037 197.398 29.6237 196.998 29.0337 196.598C28.8537 193.218 29.0337 189.768 29.1037 186.418C29.1737 183.068 28.7837 178.418 30.1037 175.418C30.2037 175.178 30.3637 175.368 30.4237 175.548C31.5737 178.908 31.1737 183.498 31.1837 187.138Z" fill="#FFD473"/>
<path d="M44.5841 164.608C49.0243 164.389 53.4483 163.915 57.8341 163.188C62.2341 162.518 66.834 162.418 71.094 160.898C71.324 160.818 71.314 159.568 71.094 159.528C62.624 158.378 52.774 160.928 44.594 163.828C44.434 163.878 44.4441 164.608 44.5841 164.608Z" fill="white"/>
<path d="M74.5334 160.858C81.4134 160.518 88.2134 160.108 95.0834 159.338C95.1734 159.338 95.1634 158.788 95.0834 158.778C88.2279 158.315 81.345 158.452 74.5134 159.188C74.2034 159.218 74.2434 160.878 74.5334 160.858Z" fill="white"/>
<path d="M197.064 162.258C197.134 166.328 194.764 168.588 192.324 170.318L191.744 170.718C191.143 171.127 190.518 171.501 189.874 171.838C186.764 173.379 183.495 174.573 180.124 175.398C179.454 175.588 178.754 175.758 178.044 175.928C174.614 176.758 170.774 177.498 166.664 178.128L164.054 178.498C159.634 179.108 154.934 179.608 150.054 179.978C149.364 180.038 148.674 180.078 147.974 180.128C143.644 180.438 139.224 180.638 134.804 180.748C134.044 180.748 133.284 180.748 132.514 180.748C129.104 180.808 125.704 180.808 122.364 180.748C121.914 180.748 121.474 180.748 121.034 180.748C120.594 180.748 120.264 180.748 119.884 180.748C115.584 180.628 111.354 180.388 107.234 180.028C106.254 179.948 105.284 179.858 104.324 179.758C99.8039 179.308 95.4539 178.758 91.3239 178.038L89.0239 177.638C85.0239 176.908 81.3339 176.068 78.0239 175.148L75.6739 174.458C72.3378 173.496 69.1027 172.214 66.0139 170.628C65.2739 170.238 64.6039 169.838 64.0139 169.438C62.9042 168.746 61.8947 167.905 61.0139 166.938C58.8039 164.408 59.2739 160.648 59.2639 157.068C59.2639 152.908 59.1139 148.688 59.2639 144.538C59.3021 144.232 59.4154 143.94 59.5939 143.688C59.676 143.582 59.7786 143.494 59.8954 143.429C60.0122 143.364 60.1409 143.323 60.2739 143.308C66.2739 142.158 72.4039 143.408 78.4639 143.908C83.6739 144.328 88.9039 144.188 94.1239 144.208C98.3839 144.208 102.644 144.318 106.904 144.538C109.054 144.658 111.204 144.828 113.354 144.948C115.354 145.048 117.354 144.698 119.354 144.638C123.774 144.511 128.187 144.511 132.594 144.638C136.414 144.718 140.084 143.818 143.914 143.388C148.174 142.908 152.444 142.548 156.714 142.258C165.174 141.688 173.644 141.408 182.114 141.138C185.326 140.971 188.545 140.995 191.754 141.208C193.16 141.235 194.535 141.617 195.754 142.318C196.086 142.508 196.357 142.789 196.534 143.128C196.834 143.761 197.04 144.435 197.144 145.128C197.194 150.918 196.964 156.338 197.064 162.258Z" fill="#FABE56"/>
<path d="M61.044 147.798C67.514 153.598 93.1941 158.078 121.044 158.608C148.894 159.138 181.324 156.308 191.704 150.778C208.564 141.778 184.364 132.098 138.364 130.488C91.854 128.878 49.964 137.888 61.044 147.798Z" fill="#FFD473"/>
<path d="M74.0333 146.408C79.2433 149.728 99.9633 152.298 122.453 152.608C144.943 152.918 171.073 151.288 179.453 148.108C193.053 142.958 173.533 137.398 136.453 136.478C98.8733 135.548 65.0933 140.708 74.0333 146.408Z" fill="#FABE56"/>
<path d="M192.374 170.318L191.794 170.718C191.192 171.127 190.568 171.501 189.924 171.838C189.604 168.638 189.924 164.958 189.814 162.158C189.664 157.268 189.424 152.318 189.684 147.428C189.744 146.318 190.374 145.428 190.684 146.948C191.398 151.737 191.805 156.567 191.904 161.408C191.924 163.938 192.374 167.258 192.374 170.318Z" fill="#FFD473"/>
<path d="M180.373 167.568C180.313 170.068 180.373 172.788 180.103 175.398C179.433 175.588 178.733 175.758 178.023 175.928C178.023 172.638 178.443 169.338 178.613 166.058C178.873 161.198 178.943 156.318 179.093 151.468C179.093 150.018 179.913 150.018 180.033 151.468C180.43 156.825 180.544 162.199 180.373 167.568Z" fill="#FFD473"/>
<path d="M166.664 178.128L164.054 178.498C163.914 175.208 164.253 171.658 164.213 168.658C164.133 163.158 163.923 157.658 164.073 152.148C164.073 151.028 164.793 150.148 165.073 151.668C165.86 157.275 166.281 162.927 166.333 168.588C166.373 171.318 166.764 174.858 166.664 178.128Z" fill="#FFD473"/>
<path d="M148.023 180.128C148.023 174.968 148.023 169.798 148.023 164.648C148.023 161.908 147.953 159.188 148.023 156.458C147.907 155.474 148.066 154.477 148.483 153.578H148.543C150.083 154.798 149.543 162.488 149.673 164.578C149.903 169.718 150.043 174.828 150.093 179.968C149.373 180.038 148.723 180.078 148.023 180.128Z" fill="#FFD473"/>
<path d="M134.853 180.798C134.093 180.798 133.333 180.798 132.563 180.798C132.493 177.718 132.813 174.468 132.773 171.578C132.693 166.288 132.393 160.978 132.433 155.688C132.433 154.828 132.973 153.118 133.283 154.838C134.168 160.357 134.616 165.938 134.623 171.528C134.673 174.088 134.993 177.568 134.853 180.798Z" fill="#FFD473"/>
<path d="M122.374 171.408C122.374 174.198 122.554 177.578 122.374 180.778C121.924 180.778 121.484 180.778 121.044 180.778C120.604 180.778 120.274 180.778 119.894 180.778C119.894 177.388 120.324 173.918 120.424 170.678C120.604 165.168 120.164 159.078 121.134 153.678C121.244 153.068 121.494 153.058 121.634 153.678C122.874 159.138 122.444 165.728 122.374 171.408Z" fill="#FFD473"/>
<path d="M107.284 179.998C106.304 179.918 105.334 179.828 104.374 179.728C104.434 176.898 104.734 174.018 104.834 171.438C105.064 165.758 105.164 160.038 105.674 154.438C105.974 151.148 107.254 152.748 107.334 155.128C107.514 160.888 107.334 166.658 107.204 172.418C107.164 174.608 107.374 177.348 107.284 179.998Z" fill="#FFD473"/>
<path d="M91.3743 178.008L89.0742 177.608C89.1842 174.928 89.3643 172.268 89.5343 169.608C89.9243 163.608 90.0143 157.538 90.8643 151.658C91.0143 150.658 91.5042 151.188 91.5642 151.928C92.1753 160.613 92.1118 169.332 91.3743 178.008Z" fill="#FFD473"/>
<path d="M78.0637 175.118L75.7137 174.428C75.6637 171.568 75.9537 168.588 76.0837 165.898C76.3337 160.658 76.5237 155.448 77.0837 150.248C77.2237 148.778 77.7937 149.488 77.8537 150.548C78.1237 155.918 78.0837 161.268 78.0937 166.638C78.0537 169.218 78.2637 172.278 78.0637 175.118Z" fill="#FFD473"/>
<path d="M66.2036 159.947C66.2036 163.407 66.3835 167.097 66.0535 170.597C65.3135 170.207 64.6435 169.807 64.0535 169.407C63.8735 166.027 64.0535 162.577 64.1135 159.227C64.1735 155.877 63.7935 151.227 65.1135 148.227C65.2235 147.987 65.3735 148.227 65.4435 148.357C66.5935 151.717 66.1936 156.307 66.2036 159.947Z" fill="#FFD473"/>
<path d="M79.6038 137.418C84.0407 137.199 88.4613 136.725 92.8438 135.998C97.2538 135.328 101.844 135.228 106.114 133.708C106.344 133.628 106.324 132.378 106.114 132.348C97.6338 131.188 87.7938 133.738 79.6038 136.638C79.4438 136.688 79.4638 137.418 79.6038 137.418Z" fill="white"/>
<path d="M109.544 133.678C116.434 133.328 123.233 132.918 130.093 132.148C130.183 132.148 130.183 131.598 130.093 131.588C123.238 131.124 116.355 131.261 109.524 131.998C109.224 132.028 109.264 133.688 109.544 133.678Z" fill="white"/>
<path d="M180.104 88.9376C179.854 122.938 150.854 150.298 115.334 150.028C79.8139 149.758 51.2339 122.028 51.4939 87.9776C51.7539 53.9276 80.744 26.6276 116.254 26.8876C151.764 27.1476 180.354 54.9376 180.104 88.9376Z" fill="#E5C377"/>
<path d="M181.574 86.118C181.324 120.118 152.324 147.478 116.814 147.218C81.3036 146.958 52.7037 119.218 52.9637 85.2181C53.2237 51.2181 82.2136 23.858 117.724 24.118C153.234 24.378 181.824 52.168 181.574 86.168" fill="#FFDA75"/>
<path d="M170.314 86.0373C170.114 114.087 146.194 136.657 116.894 136.437C87.5943 136.217 64.0043 113.297 64.2143 85.2473C64.4243 57.1973 88.3443 34.6273 117.644 34.8473C146.944 35.0673 170.524 57.9873 170.314 86.0373Z" fill="#FFC219"/>
<path d="M142.184 40.7979C159.044 49.4079 170.463 66.4679 170.313 86.0279C170.113 114.078 146.194 136.648 116.894 136.428C109.048 136.385 101.303 134.656 94.1836 131.358C101.781 135.253 110.186 137.308 118.724 137.358C148.024 137.578 171.944 115.018 172.154 86.9579C172.304 66.6979 160.044 49.1279 142.154 40.8379" fill="#E5C377"/>
<path d="M123.674 76.1081L88.1039 75.8481C88.1039 70.8481 90.5139 68.4481 95.2739 68.4781L120.004 68.6681H123.544C123.864 63.6681 116.064 58.8681 111.444 58.8881C103.644 58.8881 95.8539 58.7981 88.0439 58.7381C88.7039 52.7381 90.3139 51.3681 96.2139 51.4081L142.374 51.7981H146.674L143.224 59.1281L132.324 59.0481C133.584 62.0481 134.654 64.9881 136.024 67.7581C136.314 68.3381 137.644 68.6781 138.524 68.7581C140.924 68.9081 143.334 68.8381 145.744 68.8581C145.594 73.8581 143.344 75.9681 138.644 76.2781C138.022 76.3533 137.427 76.5735 136.906 76.9209C136.385 77.2683 135.953 77.7332 135.644 78.2781C132.574 87.4781 124.994 93.0081 114.914 93.0981C112.094 93.0981 109.274 93.0981 105.404 93.0381L134.724 121.678C134.614 122.008 134.494 122.328 134.384 122.678C130.384 122.678 126.384 122.678 122.384 122.518C121.241 122.32 120.19 121.763 119.384 120.928C110.384 112.238 101.384 103.478 92.3839 94.7281C90.9639 93.3481 89.9539 88.2581 91.0839 86.7281C91.854 86.0474 92.8568 85.6893 93.8839 85.7281C100.474 85.5781 107.074 85.7281 113.654 85.4281C118.554 85.1981 123.374 80.5181 123.674 76.1081Z" fill="#FFDA75"/>
<path d="M123.674 74.6979L88.1039 74.4379C88.1039 69.4379 90.5139 67.0379 95.2639 67.0779L120.004 67.2579H123.544C123.864 62.2579 116.064 57.4579 111.444 57.4779C103.644 57.4779 95.8539 57.3879 88.0439 57.3279C88.7039 51.3279 90.3139 49.9579 96.2139 49.9979L142.384 50.3479H146.684L143.234 57.6779L132.334 57.5979C133.594 60.5979 134.664 63.5379 136.034 66.3079C136.324 66.8979 137.654 67.2379 138.534 67.3079C140.934 67.4579 143.344 67.3879 145.754 67.4079C145.604 72.4079 143.354 74.5179 138.654 74.8279C138.032 74.9032 137.437 75.1233 136.916 75.4707C136.395 75.8181 135.963 76.283 135.654 76.8279C132.584 86.0279 125.004 91.5679 114.924 91.6579C112.104 91.6579 109.284 91.6579 105.414 91.5879L134.734 120.228C134.624 120.558 134.504 120.878 134.394 121.228C130.394 121.228 126.394 121.278 122.394 121.068C121.251 120.87 120.2 120.313 119.394 119.478C110.394 110.788 101.394 102.028 92.3939 93.2779C90.9739 91.8979 89.9639 86.8079 91.0939 85.2779C91.8641 84.5972 92.8668 84.2391 93.8939 84.2779C100.484 84.1379 107.084 84.2779 113.664 83.9779C118.554 83.7979 123.374 79.1079 123.674 74.6979Z" fill="#DDA00A"/>
<path d="M472.244 131.238C472.304 134.558 470.244 136.388 468.124 137.808L467.624 138.128C467.103 138.464 466.562 138.768 466.004 139.038C463.29 140.302 460.452 141.278 457.534 141.948C456.954 142.098 456.344 142.248 455.734 142.378C452.734 143.058 449.414 143.658 445.844 144.168L443.584 144.478C439.754 144.978 435.674 145.378 431.474 145.688L429.674 145.808C425.914 146.058 422.074 146.228 418.244 146.308H416.244C413.277 146.361 410.341 146.361 407.434 146.308H406.274H405.274C401.544 146.208 397.864 146.008 394.274 145.718C393.434 145.658 392.584 145.578 391.754 145.498C387.834 145.138 384.054 144.668 380.494 144.098L378.494 143.768C375.044 143.168 371.824 142.488 368.914 141.768C368.214 141.588 367.534 141.398 366.914 141.208C364.029 140.424 361.22 139.38 358.524 138.088C357.894 137.768 357.304 137.438 356.764 137.088C355.817 136.541 354.949 135.868 354.184 135.088C352.264 133.018 352.664 129.958 352.654 127.038C352.654 123.648 352.534 120.198 352.654 116.808C352.692 116.557 352.791 116.32 352.944 116.118C353.016 116.029 353.105 115.955 353.207 115.902C353.308 115.849 353.42 115.817 353.534 115.808C358.764 114.878 364.064 115.898 369.324 116.298C373.844 116.638 378.384 116.528 382.914 116.548C386.614 116.548 390.311 116.638 394.004 116.818C395.874 116.908 397.734 117.048 399.604 117.148C401.304 117.238 403.084 116.948 404.794 116.898C408.627 116.785 412.457 116.785 416.284 116.898C419.604 116.958 422.784 116.228 426.104 115.898C429.804 115.505 433.511 115.198 437.224 114.978C444.564 114.508 451.914 114.278 459.224 114.058C462.013 113.923 464.807 113.943 467.594 114.118C468.799 114.143 469.981 114.451 471.044 115.018C471.327 115.168 471.56 115.397 471.714 115.678C471.969 116.183 472.151 116.722 472.254 117.278C472.374 121.988 472.144 126.398 472.244 131.238Z" fill="#FABE56"/>
<path d="M354.164 119.458C359.784 124.188 382.074 127.838 406.284 128.278C430.494 128.718 458.614 126.398 467.624 121.878C482.254 114.548 461.243 106.648 421.313 105.328C380.913 104.008 344.544 111.358 354.164 119.458Z" fill="#FFD473"/>
<path d="M365.444 118.298C369.974 121.018 387.954 123.108 407.444 123.358C426.934 123.608 449.654 122.278 456.914 119.688C468.724 115.488 451.774 110.958 419.574 110.208C387.014 109.438 357.684 113.658 365.444 118.298Z" fill="#FABE56"/>
<path d="M427.634 117.508C427.703 118.311 427.476 119.112 426.994 119.758C426.703 120.015 426.364 120.211 425.997 120.335C425.629 120.459 425.24 120.507 424.854 120.478C423.854 120.418 423.334 120.038 423.334 119.348C423.627 118.78 423.798 118.156 423.834 117.518H415.394C414.807 120.118 412.27 121.418 407.784 121.418C402.75 121.245 399.874 119.965 399.154 117.578H394.604C394.268 117.605 393.93 117.547 393.622 117.409C393.314 117.271 393.047 117.057 392.844 116.788V116.798C392.844 116.338 393.284 116.018 394.164 115.798C394.694 115.798 396.304 115.798 398.974 115.738C398.93 114.764 399.251 113.808 399.874 113.058C400.16 112.724 400.516 112.456 400.917 112.275C401.318 112.093 401.754 112.002 402.194 112.008C403.194 112.008 403.854 112.178 404.064 112.498C404.132 112.587 404.171 112.696 404.174 112.808C404.12 113.17 403.926 113.497 403.634 113.718C403.129 114.263 402.844 114.975 402.834 115.718L412.134 115.668C412.974 113.328 415.45 112.158 419.564 112.158C423.914 112.158 426.564 113.318 427.374 115.628H429.374C430.754 115.628 431.564 115.758 431.814 116.018C431.914 116.076 432 116.156 432.062 116.254C432.125 116.351 432.163 116.463 432.174 116.578C432.174 116.998 431.684 117.298 430.694 117.468H430.314H429.754L427.634 117.508ZM419.634 113.988C417.744 113.988 416.494 114.558 415.884 115.688H423.484C422.874 114.548 421.584 113.988 419.604 113.988H419.634ZM407.834 119.568C409.834 119.568 411.134 118.898 411.664 117.568H403.024C403.584 118.718 405.114 119.368 407.634 119.568H407.834Z" fill="#FFD473"/>
<path d="M429.674 145.798C429.674 141.588 429.674 137.378 429.674 133.178C429.674 130.938 429.604 128.718 429.674 126.488C429.579 125.686 429.717 124.874 430.074 124.148C431.414 125.148 430.994 131.408 431.074 133.148C431.274 137.335 431.394 141.522 431.434 145.708L429.674 145.798Z" fill="#FFD473"/>
<path d="M418.243 146.307H416.243C416.183 143.797 416.454 141.147 416.424 138.787C416.354 134.467 416.093 130.137 416.123 125.787C416.123 125.077 416.593 123.687 416.863 125.087C417.632 129.583 418.02 134.136 418.024 138.697C418.084 140.877 418.373 143.717 418.243 146.307Z" fill="#FFD473"/>
<path d="M407.424 138.698C407.424 140.968 407.584 143.698 407.424 146.338H406.264H405.264C405.264 143.568 405.624 140.738 405.714 138.098C405.874 133.608 405.494 128.638 406.334 124.268C406.424 123.768 406.654 123.768 406.764 124.268C407.844 128.688 407.464 134.058 407.424 138.698Z" fill="#FFD473"/>
<path d="M394.304 145.698C393.464 145.638 392.614 145.558 391.784 145.478C391.784 143.168 392.094 140.818 392.184 138.728C392.384 134.088 392.464 129.418 392.914 124.808C393.164 122.128 394.284 123.438 394.344 125.378C394.504 130.068 394.344 134.778 394.234 139.478C394.204 141.308 394.374 143.538 394.304 145.698Z" fill="#FFD473"/>
<path d="M380.523 144.078L378.523 143.748C378.623 141.568 378.773 139.388 378.923 137.218C379.263 132.348 379.343 127.378 380.083 122.588C380.213 121.738 380.633 122.198 380.693 122.808C381.221 129.89 381.164 137.004 380.523 144.078Z" fill="#FFD473"/>
<path d="M368.943 141.718C368.243 141.538 367.563 141.348 366.943 141.158C366.943 138.828 367.153 136.398 367.263 134.158C367.483 129.888 367.643 125.638 368.093 121.398C368.223 120.188 368.713 120.778 368.763 121.638C368.993 126.018 368.963 130.378 368.973 134.768C368.933 136.908 369.123 139.408 368.943 141.718Z" fill="#FFD473"/>
<path d="M370.284 110.968C374.132 110.787 377.968 110.396 381.774 109.798C385.604 109.258 389.554 109.178 393.294 107.938C393.494 107.868 393.474 106.848 393.294 106.818C385.934 105.878 377.394 107.958 370.294 110.328C370.144 110.378 370.154 110.978 370.284 110.968Z" fill="white"/>
<path d="M396.274 107.918C402.274 107.628 408.154 107.298 414.114 106.678C414.194 106.678 414.184 106.218 414.114 106.218C408.162 105.838 402.188 105.948 396.254 106.548C395.984 106.568 396.024 107.928 396.274 107.918Z" fill="white"/>
<path d="M502.634 109.057C502.694 112.377 500.634 114.217 498.524 115.627L498.014 115.957C497.491 116.29 496.951 116.594 496.394 116.867C493.681 118.123 490.846 119.098 487.934 119.777C487.344 119.927 486.744 120.067 486.124 120.197C483.124 120.887 479.814 121.477 476.244 121.997L473.984 122.297C470.144 122.797 466.064 123.207 461.874 123.507L460.074 123.627C456.314 123.877 452.474 124.047 448.634 124.127C447.974 124.127 447.314 124.127 446.634 124.127C443.634 124.127 440.724 124.127 437.824 124.127H436.664C436.334 124.127 436.004 124.127 435.664 124.127C431.934 124.037 428.254 123.837 424.664 123.537C423.814 123.477 422.974 123.407 422.134 123.317C418.214 122.957 414.434 122.487 410.874 121.927L408.874 121.587C405.414 120.997 402.194 120.317 399.294 119.587C398.584 119.407 397.914 119.217 397.294 119.027C394.407 118.249 391.598 117.205 388.904 115.907C388.264 115.587 387.674 115.267 387.144 114.907C386.197 114.358 385.326 113.685 384.554 112.907C382.634 110.847 383.044 107.777 383.034 104.857C383.034 101.467 382.904 98.0272 383.034 94.6372C383.066 94.3849 383.166 94.1461 383.324 93.9472C383.393 93.8547 383.482 93.7788 383.584 93.7251C383.686 93.6715 383.799 93.6414 383.914 93.6372C389.134 92.6972 394.434 93.7173 399.694 94.1173C404.224 94.4673 408.764 94.3573 413.294 94.3673C416.994 94.3673 420.691 94.4572 424.384 94.6372C426.254 94.7272 428.114 94.8773 429.984 94.9673C431.674 95.0573 433.454 94.7673 435.174 94.7173C439.001 94.6039 442.828 94.6039 446.654 94.7173C449.984 94.7873 453.164 94.0473 456.484 93.7173C460.184 93.3306 463.888 93.0239 467.594 92.7973C474.934 92.3273 482.294 92.0972 489.594 91.8772C492.383 91.7422 495.178 91.7623 497.964 91.9373C499.168 91.9669 500.349 92.2749 501.414 92.8373C501.696 92.9935 501.928 93.2256 502.084 93.5072C502.342 94.0066 502.521 94.543 502.614 95.0972C502.744 99.7972 502.544 104.227 502.634 109.057Z" fill="#FABE56"/>
<path d="M384.563 97.2779C390.183 102.008 412.473 105.668 436.673 106.098C460.873 106.528 489.003 104.218 498.013 99.7078C512.653 92.3678 491.643 84.4678 451.713 83.1578C411.303 81.7978 374.943 89.1779 384.563 97.2779Z" fill="#FFD473"/>
<path d="M395.834 96.1278C400.364 98.8378 418.344 100.928 437.834 101.178C457.324 101.428 480.034 100.098 487.304 97.5178C499.104 93.3078 482.164 88.7778 449.954 88.0278C417.374 87.2678 388.074 91.4778 395.834 96.1278Z" fill="#FABE56"/>
<path d="M458.024 95.3383C458.098 96.1387 457.87 96.9377 457.384 97.5783C457.095 97.8346 456.758 98.0303 456.392 98.1539C456.026 98.2776 455.639 98.3267 455.254 98.2983C454.254 98.2383 453.734 97.8683 453.734 97.1683C454.022 96.6015 454.192 95.9824 454.234 95.3483H445.784C445.204 97.9483 442.664 99.2483 438.184 99.2483C433.144 99.0817 430.268 97.8016 429.554 95.4083H425.004C424.668 95.4357 424.33 95.3777 424.023 95.2395C423.715 95.1014 423.447 94.8877 423.244 94.6183V94.5483C423.244 94.0883 423.684 93.7783 424.564 93.5983C425.094 93.5983 426.694 93.5983 429.374 93.5383C429.33 92.5641 429.651 91.6086 430.274 90.8583C430.564 90.5342 430.92 90.277 431.319 90.1043C431.718 89.9317 432.15 89.8477 432.584 89.8583C433.584 89.8583 434.254 90.0183 434.464 90.3383C434.529 90.4289 434.563 90.5372 434.564 90.6483C434.538 90.8281 434.478 91.001 434.385 91.1571C434.292 91.3133 434.17 91.4496 434.024 91.5583C433.525 92.1065 433.24 92.8169 433.224 93.5583H442.534C443.374 91.2183 445.844 90.0583 449.964 90.0583C454.317 90.0583 456.917 91.2117 457.764 93.5183H459.764C461.134 93.5183 461.944 93.6483 462.204 93.9183C462.305 93.9735 462.39 94.0525 462.453 94.1484C462.516 94.2443 462.554 94.3542 462.564 94.4683C462.564 94.8983 462.064 95.1883 461.084 95.3683H460.704H460.144L458.024 95.3383ZM450.024 91.8083C448.134 91.8083 446.874 92.3783 446.264 93.5083H453.874C453.264 92.3683 451.984 91.7983 450.004 91.7983L450.024 91.8083ZM438.214 97.3883C440.214 97.3883 441.524 96.7183 442.054 95.3883H433.404C433.964 96.535 435.501 97.2016 438.014 97.3883H438.214Z" fill="#FFD473"/>
<path d="M437.824 116.518C437.824 118.798 437.974 121.518 437.824 124.158H436.664C436.334 124.158 436.004 124.158 435.664 124.158C435.664 121.398 436.034 118.568 436.124 115.918C436.284 111.428 435.894 106.468 436.734 102.088C436.834 101.588 437.054 101.588 437.174 102.088C438.234 106.508 437.864 111.878 437.824 116.518Z" fill="#FFD473"/>
<path d="M424.704 123.518C423.854 123.458 423.014 123.388 422.174 123.298C422.234 120.998 422.494 118.648 422.584 116.548C422.774 111.908 422.864 107.248 423.304 102.638C423.564 99.9482 424.674 101.258 424.744 103.198C424.894 107.898 424.744 112.608 424.634 117.298C424.604 119.128 424.744 121.358 424.704 123.518Z" fill="#FFD473"/>
<path d="M410.914 121.908L408.914 121.568C409.004 119.388 409.164 117.218 409.314 115.048C409.654 110.178 409.724 105.208 410.464 100.408C410.604 99.5581 411.024 100.028 411.074 100.628C411.605 107.714 411.552 114.831 410.914 121.908Z" fill="#FFD473"/>
<path d="M399.374 119.537C398.664 119.357 397.994 119.167 397.374 118.977C397.374 116.647 397.584 114.217 397.694 112.027C397.904 107.747 398.074 103.497 398.524 99.2573C398.644 98.0573 399.144 98.6373 399.194 99.5073C399.424 103.877 399.394 108.247 399.404 112.627C399.374 114.727 399.514 117.227 399.374 119.537Z" fill="#FFD473"/>
<path d="M389.044 107.168C389.044 109.988 389.204 112.998 388.914 115.858C388.274 115.538 387.684 115.218 387.154 114.858C386.994 112.098 387.154 109.288 387.154 106.548C387.154 103.808 386.884 100.048 388.024 97.5485C388.114 97.3485 388.254 97.5485 388.304 97.6485C389.374 100.458 389.034 104.198 389.044 107.168Z" fill="#FFD473"/>
<path d="M400.674 88.7976C404.525 88.6201 408.364 88.2328 412.174 87.6376C415.994 87.0976 419.954 87.0176 423.684 85.7776C423.884 85.7076 423.874 84.6876 423.684 84.6676C416.334 83.7276 407.794 85.8076 400.684 88.1676C400.544 88.1976 400.554 88.7976 400.674 88.7976Z" fill="white"/>
<path d="M426.664 85.7378C432.664 85.4578 438.544 85.1178 444.504 84.4978C444.584 84.4978 444.574 84.0477 444.504 84.0377C438.554 83.6626 432.585 83.773 426.654 84.3678C426.374 84.3878 426.424 85.7978 426.664 85.7378Z" fill="white"/>
<path d="M483.583 86.0876C483.643 89.4076 481.583 91.2476 479.473 92.6676L478.973 92.9876C478.448 93.3217 477.904 93.6256 477.343 93.8976C474.632 95.1578 471.796 96.1331 468.883 96.8076L467.073 97.2376C464.073 97.9176 460.763 98.5176 457.193 99.0276L454.933 99.3376C451.093 99.8376 447.013 100.238 442.823 100.538L441.023 100.668C437.263 100.908 433.423 101.078 429.593 101.168H427.593C424.593 101.168 421.683 101.168 418.783 101.168H417.623H416.623C412.893 101.068 409.213 100.868 405.623 100.578L403.093 100.358C399.173 99.9876 395.393 99.5176 391.833 98.9576L389.833 98.6276C386.383 98.0276 383.153 97.3476 380.253 96.6276L378.253 96.0676C375.367 95.2822 372.559 94.2345 369.863 92.9376C369.223 92.6176 368.633 92.2976 368.103 91.9376C367.158 91.3849 366.287 90.7127 365.513 89.9376C363.593 87.8676 364.003 84.7976 363.993 81.8776C363.993 78.4876 363.863 75.0476 363.993 71.6576C364.027 71.4058 364.127 71.1675 364.283 70.9676C364.355 70.8784 364.445 70.8049 364.546 70.7516C364.648 70.6983 364.759 70.6663 364.873 70.6576C370.093 69.7176 375.393 70.7376 380.653 71.1476C385.183 71.4876 389.723 71.3776 394.253 71.3876C397.953 71.3876 401.65 71.4809 405.343 71.6676C407.213 71.7576 409.073 71.8976 410.943 71.9976C412.633 72.0776 414.413 71.7976 416.133 71.7376C419.963 71.6276 423.793 71.6276 427.613 71.7376C430.943 71.8076 434.123 71.0776 437.443 70.7376C441.143 70.3476 444.853 70.0476 448.553 69.8076C455.903 69.3476 463.253 69.1176 470.553 68.8976C473.342 68.7575 476.137 68.7775 478.923 68.9576C480.129 68.9779 481.312 69.2865 482.373 69.8576C482.657 70.007 482.89 70.2365 483.043 70.5176C483.3 71.0175 483.479 71.5537 483.573 72.1076C483.693 76.7976 483.493 81.2576 483.583 86.0876Z" fill="#FABE56"/>
<path d="M365.513 74.3079C371.133 79.0379 393.423 82.6978 417.623 83.1278C441.823 83.5578 469.953 81.2478 478.963 76.7378C493.603 69.4078 472.594 61.4979 432.664 60.1879C392.254 58.8579 355.893 66.2079 365.513 74.3079Z" fill="#FFD473"/>
<path d="M376.784 73.158C381.314 75.868 399.294 77.9681 418.784 78.2181C438.274 78.4681 460.984 77.138 468.254 74.548C480.054 70.348 463.114 65.8081 430.904 65.0581C398.374 64.2981 369.024 68.508 376.784 73.158Z" fill="#FABE56"/>
<path d="M441.023 100.668C441.023 96.4578 441.023 92.2378 441.023 88.0378C441.023 85.8078 440.953 83.5878 441.023 81.3578C440.929 80.5524 441.068 79.7368 441.423 79.0078C442.763 80.0078 442.333 86.2778 442.423 88.0078C442.613 92.1978 442.743 96.3678 442.783 100.558L441.023 100.668Z" fill="#FFD473"/>
<path d="M429.594 101.167H427.594C427.534 98.6473 427.814 95.9973 427.784 93.6473C427.714 89.3273 427.454 84.9973 427.484 80.6473C427.484 79.9473 427.954 78.5473 428.224 79.9573C428.988 84.4539 429.376 89.0063 429.384 93.5673C429.424 95.7373 429.714 98.5773 429.594 101.167Z" fill="#FFD473"/>
<path d="M418.773 93.5576C418.773 95.8276 418.933 98.5576 418.773 101.188H417.613H416.613C416.613 98.4176 416.983 95.5876 417.073 92.9476C417.233 88.4476 416.843 83.4876 417.693 79.1076C417.783 78.6176 418.003 78.6076 418.123 79.1076C419.183 83.5476 418.813 88.9176 418.773 93.5576Z" fill="#FFD473"/>
<path d="M405.654 100.558L403.124 100.338C403.184 98.0281 403.444 95.6781 403.534 93.5781C403.724 88.9381 403.814 84.2781 404.254 79.6681C404.514 76.9881 405.624 78.2881 405.694 80.2281C405.854 84.9281 405.694 89.6381 405.584 94.3281C405.554 96.1681 405.694 98.3881 405.654 100.558Z" fill="#FFD473"/>
<path d="M391.863 98.9379L389.863 98.6079C389.953 96.4279 390.113 94.2479 390.263 92.0779C390.603 87.2079 390.673 82.2379 391.423 77.4379C391.553 76.5979 391.973 77.0579 392.033 77.6579C392.561 84.7439 392.504 91.8613 391.863 98.9379Z" fill="#FFD473"/>
<path d="M380.293 96.5785L378.293 96.0185C378.243 93.6885 378.503 91.2585 378.613 89.0185C378.823 84.7485 378.993 80.4885 379.443 76.2485C379.573 75.0485 380.063 75.6385 380.113 76.4985C380.343 80.8785 380.313 85.2384 380.323 89.6284C380.283 91.7984 380.463 94.2585 380.293 96.5785Z" fill="#FFD473"/>
<path d="M369.993 84.1975C369.993 87.0275 370.153 90.0375 369.863 92.8875C369.223 92.5675 368.633 92.2475 368.103 91.8875C367.943 89.1375 368.103 86.3175 368.103 83.5875C368.103 80.8575 367.833 77.0775 368.973 74.5875C369.063 74.3875 369.203 74.5875 369.253 74.6875C370.373 77.4875 369.983 81.2275 369.993 84.1975Z" fill="#FFD473"/>
<path d="M381.624 65.7978C385.475 65.6154 389.314 65.2281 393.124 64.6378C396.954 64.0878 400.904 64.0178 404.634 62.7678C404.834 62.7078 404.824 61.6878 404.634 61.6578C397.284 60.7178 388.744 62.7978 381.634 65.1578C381.494 65.2278 381.504 65.7978 381.624 65.7978Z" fill="white"/>
<path d="M407.614 62.7977C413.614 62.5177 419.494 62.1877 425.454 61.5577C425.534 61.5577 425.534 61.1077 425.454 61.1077C419.505 60.7243 413.535 60.8313 407.604 61.4277C407.374 61.4277 407.374 62.7977 407.614 62.7977Z" fill="white"/>
<path d="M302.904 53.0381H219.584C172.916 53.0381 135.084 90.87 135.084 137.538C135.084 184.206 172.916 222.038 219.584 222.038H302.904C349.572 222.038 387.404 184.206 387.404 137.538C387.404 90.87 349.572 53.0381 302.904 53.0381Z" fill="#C66D00"/>
<path d="M331.074 53.0381H247.754C201.086 53.0381 163.254 90.87 163.254 137.538C163.254 184.206 201.086 222.038 247.754 222.038H331.074C377.742 222.038 415.574 184.206 415.574 137.538C415.574 90.87 377.742 53.0381 331.074 53.0381Z" fill="#FFA639"/>
<path d="M316.994 53.0381H233.674C187.006 53.0381 149.174 90.87 149.174 137.538C149.174 184.206 187.006 222.038 233.674 222.038H316.994C363.662 222.038 401.494 184.206 401.494 137.538C401.494 90.87 363.662 53.0381 316.994 53.0381Z" fill="#FF8C00"/>
<path d="M441.574 178.738C441.536 187.397 438.93 195.85 434.085 203.026C429.24 210.203 422.374 215.78 414.358 219.053C406.341 222.325 397.534 223.145 389.051 221.408C380.568 219.672 372.791 215.457 366.705 209.298C360.619 203.139 356.497 195.313 354.862 186.81C353.226 178.307 354.151 169.509 357.518 161.532C360.886 153.555 366.545 146.757 373.778 141.998C381.012 137.238 389.495 134.733 398.154 134.798C403.89 134.832 409.563 135.996 414.85 138.222C420.136 140.449 424.932 143.695 428.964 147.775C432.996 151.856 436.185 156.69 438.349 162.003C440.512 167.315 441.608 173.002 441.574 178.738Z" fill="#E5C377"/>
<path d="M442.573 176.798C442.524 185.454 439.907 193.901 435.055 201.07C430.203 208.238 423.334 213.806 415.316 217.069C407.298 220.332 398.493 221.144 390.014 219.401C381.535 217.658 373.764 213.438 367.684 207.277C361.604 201.116 357.488 193.289 355.857 184.788C354.227 176.286 355.155 167.492 358.524 159.519C361.893 151.545 367.552 144.75 374.784 139.994C382.017 135.237 390.498 132.733 399.154 132.798C404.894 132.833 410.572 134 415.862 136.231C421.152 138.462 425.95 141.713 429.982 145.799C434.015 149.886 437.202 154.727 439.363 160.046C441.523 165.365 442.614 171.057 442.573 176.798Z" fill="#FFDA75"/>
<path d="M434.914 176.688C434.882 183.83 432.732 190.802 428.735 196.722C424.738 202.642 419.074 207.242 412.461 209.941C405.848 212.64 398.583 213.316 391.586 211.883C384.588 210.451 378.173 206.974 373.153 201.893C368.133 196.813 364.733 190.357 363.384 183.343C362.035 176.329 362.797 169.072 365.575 162.492C368.353 155.911 373.02 150.303 378.987 146.377C384.954 142.451 391.952 140.384 399.094 140.438C403.828 140.461 408.51 141.418 412.873 143.253C417.237 145.089 421.195 147.767 424.522 151.134C427.849 154.501 430.48 158.491 432.263 162.876C434.046 167.261 434.947 171.954 434.914 176.688Z" fill="#FFC219"/>
<path d="M415.783 144.648C424.126 149.074 430.395 156.6 433.24 165.605C436.085 174.61 435.277 184.372 430.992 192.787C426.706 201.202 419.285 207.596 410.329 210.591C401.373 213.586 391.599 212.942 383.113 208.798C387.327 210.943 391.921 212.237 396.635 212.607C401.349 212.976 406.089 212.414 410.585 210.951C415.081 209.489 419.246 207.155 422.84 204.083C426.434 201.011 429.388 197.261 431.533 193.048C433.678 188.834 434.973 184.24 435.342 179.526C435.711 174.812 435.149 170.072 433.686 165.576C432.224 161.08 429.89 156.916 426.818 153.321C423.746 149.727 419.997 146.773 415.783 144.628" fill="#E5C377"/>
<path d="M403.183 169.668L378.993 169.478C378.993 165.938 380.623 164.238 383.863 164.268L400.693 164.388H403.103C403.313 160.848 398.013 157.448 394.873 157.468C389.563 157.468 384.263 157.408 378.943 157.368C379.403 153.138 380.503 152.138 384.513 152.168L415.923 152.408H418.843L416.493 157.608L409.083 157.548C409.943 159.708 410.673 161.758 411.593 163.718C411.793 164.128 412.703 164.368 413.293 164.408C414.923 164.518 416.573 164.468 418.203 164.478C418.103 168.018 416.573 169.478 413.383 169.738C412.963 169.8 412.563 169.96 412.216 170.205C411.869 170.45 411.583 170.773 411.383 171.148C409.293 177.668 404.133 181.588 397.273 181.658C395.353 181.658 393.433 181.658 390.803 181.658L410.743 201.938L410.513 202.618C407.783 202.618 405.053 202.618 402.333 202.508C401.541 202.373 400.817 201.979 400.273 201.388C394.12 195.228 387.993 189.041 381.893 182.828C380.893 181.828 380.243 178.248 381.003 177.188C381.525 176.716 382.211 176.468 382.913 176.498C387.393 176.388 391.913 176.498 396.363 176.278C398.067 176.075 399.658 175.319 400.89 174.125C402.122 172.93 402.928 171.365 403.183 169.668Z" fill="#FFDA75"/>
<path d="M403.183 168.668L378.993 168.488C378.993 164.938 380.623 163.248 383.863 163.268L400.693 163.398H403.103C403.313 159.858 398.013 156.458 394.873 156.478C389.563 156.478 384.263 156.418 378.943 156.378C379.403 152.148 380.503 151.158 384.513 151.188L415.923 151.418H418.843L416.493 156.618L409.083 156.558C409.943 158.718 410.673 160.768 411.593 162.728C411.793 163.148 412.703 163.388 413.293 163.418C414.923 163.528 416.573 163.478 418.203 163.488C418.103 167.028 416.573 168.488 413.383 168.758C412.964 168.82 412.565 168.979 412.218 169.222C411.871 169.465 411.585 169.786 411.383 170.158C409.293 176.678 404.133 180.598 397.273 180.668C395.353 180.668 393.433 180.668 390.803 180.668L410.743 200.948L410.513 201.638C407.783 201.638 405.053 201.638 402.333 201.518C401.541 201.384 400.817 200.99 400.273 200.398C394.12 194.238 387.993 188.051 381.893 181.838C380.893 180.838 380.243 177.258 381.003 176.198C381.527 175.73 382.212 175.483 382.913 175.508C387.393 175.408 391.913 175.508 396.363 175.288C398.069 175.085 399.66 174.328 400.893 173.131C402.125 171.935 402.93 170.367 403.183 168.668Z" fill="#DDA00A"/>
<path d="M300.884 165.668C299.672 169.42 297.64 172.854 294.935 175.723C292.23 178.591 288.921 180.821 285.246 182.251C281.572 183.68 277.626 184.274 273.694 183.988C269.761 183.702 265.942 182.544 262.514 180.598" stroke="#231F20" stroke-width="8" stroke-linecap="round" stroke-linejoin="round"/>
<path d="M303.434 105.918C304.138 109.792 305.694 113.461 307.99 116.659C310.287 119.858 313.266 122.506 316.711 124.411C320.157 126.317 323.983 127.433 327.913 127.678C331.843 127.923 335.778 127.291 339.434 125.828" stroke="#C66D00" stroke-width="6" stroke-linecap="round" stroke-linejoin="round"/>
<path d="M257.113 139.908C257.113 144.682 255.217 149.26 251.841 152.636C248.466 156.011 243.887 157.908 239.113 157.908C234.339 157.908 229.761 156.011 226.385 152.636C223.01 149.26 221.113 144.682 221.113 139.908V137.008H228.113V139.908C228.113 142.825 229.272 145.623 231.335 147.686C233.398 149.749 236.196 150.908 239.113 150.908C242.031 150.908 244.829 149.749 246.891 147.686C248.954 145.623 250.113 142.825 250.113 139.908L249.813 137.008H257.113V139.908Z" fill="white"/>
<path d="M228.113 136.908H250.113V141.148C250.113 144.066 248.954 146.863 246.891 148.926C244.829 150.989 242.031 152.148 239.113 152.148C236.196 152.148 233.398 150.989 231.335 148.926C229.272 146.863 228.113 144.066 228.113 141.148V136.908Z" fill="#231F20"/>
<path d="M324.113 139.908C324.113 144.682 322.217 149.26 318.841 152.636C315.466 156.011 310.887 157.908 306.113 157.908C301.339 157.908 296.761 156.011 293.385 152.636C290.01 149.26 288.113 144.682 288.113 139.908V137.008H295.113V139.908C295.113 142.825 296.272 145.623 298.335 147.686C300.398 149.749 303.196 150.908 306.113 150.908C309.031 150.908 311.829 149.749 313.891 147.686C315.954 145.623 317.113 142.825 317.113 139.908L316.813 137.008H324.113V139.908Z" fill="white"/>
<path d="M295.113 136.908H317.113V141.148C317.113 144.066 315.954 146.863 313.891 148.926C311.829 150.989 309.031 152.148 306.113 152.148C303.196 152.148 300.398 150.989 298.335 148.926C296.272 146.863 295.113 144.066 295.113 141.148V136.908Z" fill="#231F20"/>
</svg>
