<?xml version="1.0" encoding="utf-8"?>
<!-- Generator: Adobe Illustrator 26.0.1, SVG Export Plug-In . SVG Version: 6.00 Build 0)  -->
<svg version="1.1" id="Layer_1" xmlns="http://www.w3.org/2000/svg" xmlns:xlink="http://www.w3.org/1999/xlink" x="0px" y="0px"
	 viewBox="0 0 499 477" style="enable-background:new 0 0 499 477;" xml:space="preserve">
<style type="text/css">
	.st0{fill:#FFFFFF;stroke:#FFFFFF;stroke-width:12;stroke-miterlimit:10;}
	.st1{fill:#FFBB00;}
	.st2{fill:#FFD971;}
	.st3{fill:#FFCA39;}
	.st4{fill:#FFFFFF;}
	.st5{fill:#231F20;}
	.st6{fill:#FFF7E3;stroke:#FFE8AA;stroke-width:0.88;stroke-miterlimit:10;}
	.st7{fill:#EFE3FF;}
	.st8{fill:#E3F1FF;}
	.st9{fill:#FFE3EE;}
	.st10{fill:#5301C6;}
	.st11{fill:#8C39FE;}
	.st12{fill:#6B01FE;}
	.st13{fill:none;stroke:#231F20;stroke-width:2.26;stroke-linecap:round;stroke-linejoin:round;}
	.st14{fill:#FE72AC;}
	.st15{fill:#FE0169;}
	.st16{fill:#FE398A;}
	.st17{fill:none;stroke:#231F20;stroke-width:1.92;stroke-linecap:round;stroke-linejoin:round;}
	.st18{fill:#FFAACD;}
	.st19{fill:#CEAAFF;}
	.st20{fill:#71BAFF;}
	.st21{fill:#0066C6;}
	.st22{fill:#399FFF;}
	.st23{fill:#0083FF;}
	.st24{fill:none;stroke:#231F20;stroke-width:2.6;stroke-linecap:round;stroke-linejoin:round;}
	.st25{fill:#FFF7E3;}
</style>
<path class="st0" d="M489.1,184L489.1,184c0.2-2.5,0.4-5.1,0.4-7.7v-37.6c0.1-3.7-0.5-7.5-1.9-11c-2-5.6-2.1-11.7-0.3-17.3l0,0
	l0-0.1c2.6-8.5,2.7-19.5,2.5-29c-0.1-2.7-0.2-5.5-0.3-8.2c-0.1-1.9-0.1-3.8-0.2-5.4c-0.1-4.1-0.1-7.3,0.1-9.6l0-0.3v-0.3
	c0-8.8-3.5-17.2-9.7-23.4c-6.2-6.2-14.6-9.7-23.4-9.7H277c-7.6-0.1-14.8-3-20.3-8.2l0,0l0,0c-8.6-8-20.4-11.2-32.1-10
	c-11.3-0.1-20.8,5.3-27.4,12.9c-3.1,3.4-7,5.8-11.3,7.2l-0.1,0l-0.1,0c-9.8,3.2-15.9,10.1-19.2,18.5c-3.1,7.9-3.8,17.2-3,26
	c-0.1,1-0.3,1.9-0.6,2.9l0,0l0,0c-1.8,6.1-5.2,11.6-9.9,15.8c-4.7,4.3-10.4,7.2-16.7,8.4c-14.8,2.8-28.7,8.9-40.7,17.9
	c-0.6-0.1-1.2-0.3-1.8-0.3c-2-0.3-4.3-0.6-6.8-0.7c-4.9-0.3-10.9-0.4-16.7-0.3c-4.3,0-8.6,0.1-12.5,0.2c-1.4,0-2.8,0.1-4,0.1
	c-5,0.1-8.6,0.1-10.2,0l-0.2,0l-0.2,0c-11.4-0.2-20.4,4.2-26.7,11.3c-6.2,6.9-9.5,16-10.3,25c-1.5,17.7,6.8,38.6,27.2,43.6l0,0l0,0
	c0.2,0,0.3,0.1,0.5,0.2c0.1,0.1,0.3,0.2,0.3,0.4c0.1,0.1,0.1,0.3,0.2,0.5c0,0.2,0,0.3,0,0.5c-4.7,17,0.4,38.9,16.9,48.5l0,0l0,0
	c1,0.5,1.8,1.3,2.3,2.2c0.6,0.9,0.9,2,0.9,3.1c0.1,11.5-0.2,23.7-0.6,36.4c-0.3,10-0.6,20.2-0.7,30.8c-0.2,23.7,0.6,48.1,5.3,70.1
	c4.6,22.1,13.2,42.3,28.7,57.3C103,459.8,125,469,155.5,470c52.2,3.3,87-10.8,107.3-39c20-27.7,25-67.7,21.3-113.7
	c0-6.5,2.7-12.8,7.3-17.4c4.7-4.6,11-7.3,17.5-7.3h150.5c0,0,0,0,0,0c4.3,0,8.6-0.9,12.7-2.5c4-1.7,7.7-4.1,10.7-7.2
	c3.1-3.1,5.5-6.7,7.2-10.7s2.5-8.3,2.5-12.7v-0.3l0-0.3c-0.1-1.1-0.1-4.3,0-9.1c0-1.2,0-2.5,0.1-3.8c0.1-3.7,0.1-7.9,0.1-12
	c0-5.6,0-11.3-0.3-15.9c-0.1-2.3-0.3-4.5-0.6-6.3c-0.2-1.4-0.5-3.3-1.3-5C488,200.1,488.3,192.6,489.1,184z"/>
<path class="st1" d="M72.4,197.4v171.4c0,46,37.3,83.3,83.3,83.3h0c46,0,83.3-37.3,83.3-83.3V197.4c0-46-37.3-83.3-83.3-83.3h0
	C109.7,114,72.4,151.3,72.4,197.4z"/>
<path class="st2" d="M99.4,197.4v171.4c0,46,37.3,83.3,83.3,83.3h0c46,0,83.3-37.3,83.3-83.3V197.4c0-46-37.3-83.3-83.3-83.3h0
	C136.7,114,99.4,151.3,99.4,197.4z"/>
<path class="st3" d="M85.3,197.4v171.4c0,46,37.3,83.3,83.3,83.3h0c46,0,83.3-37.3,83.3-83.3V197.4c0-46-37.3-83.3-83.3-83.3h0
	C122.6,114,85.3,151.3,85.3,197.4z"/>
<path class="st4" d="M201.5,359.1c9.9,0,18-8.1,18-18c0-9.9-8.1-18-18-18c-9.9,0-18,8.1-18,18C183.5,351.1,191.5,359.1,201.5,359.1z
	"/>
<path class="st5" d="M202.5,347.1c6.1,0,11-4.9,11-11c0-6.1-4.9-11-11-11s-11,4.9-11,11C191.5,342.2,196.4,347.1,202.5,347.1z"/>
<path class="st4" d="M135.5,359.1c9.9,0,18-8.1,18-18c0-9.9-8.1-18-18-18c-9.9,0-18,8.1-18,18C117.5,351.1,125.5,359.1,135.5,359.1z
	"/>
<path class="st5" d="M139.5,347.1c6.1,0,11-4.9,11-11c0-6.1-4.9-11-11-11s-11,4.9-11,11C128.5,342.2,133.4,347.1,139.5,347.1z"/>
<path class="st6" d="M192.5,386.4c0,6.5-4,12.6-11,16.1c-3.9,1.9-8.2,2.9-12.5,2.9c-4.3,0-8.6-1-12.5-2.9c-7-3.5-11-9.6-11-16.1v-21
	h47L192.5,386.4z"/>
<path class="st7" d="M456.4,123.6H196.5c-8.3,0-15.1,6.8-15.1,15.1V180c0,8.3,6.8,15.1,15.1,15.1h259.9c8.3,0,15.1-6.8,15.1-15.1
	v-41.3C471.5,130.3,464.8,123.6,456.4,123.6z"/>
<path class="st8" d="M459.4,203.1H199.5c-8.3,0-15.1,6.8-15.1,15.1v41.3c0,8.3,6.8,15.1,15.1,15.1h259.9c8.3,0,15.1-6.8,15.1-15.1
	v-41.3C474.5,209.9,467.7,203.1,459.4,203.1z"/>
<path class="st9" d="M456.5,42.6H196.6c-8.3,0-15.1,6.8-15.1,15.1V99c0,8.3,6.8,15.1,15.1,15.1h259.9c8.3,0,15.1-6.8,15.1-15.1V57.7
	C471.6,49.3,464.8,42.6,456.5,42.6z"/>
<path class="st10" d="M400.1,184.4v-47.9c0-7.8,3.1-15.2,8.6-20.7c5.5-5.5,12.9-8.6,20.7-8.6c7.8,0,15.2,3.1,20.7,8.6
	c5.5,5.5,8.6,12.9,8.6,20.7v47.9c0,2.9-1.2,5.8-3.2,7.8c-2.1,2.1-4.9,3.2-7.8,3.2h-36.3c-2.9,0-5.8-1.2-7.8-3.2
	C401.3,190.2,400.1,187.4,400.1,184.4L400.1,184.4z"/>
<path class="st11" d="M410,184.4v-47.9c0-7.8,3.1-15.2,8.6-20.7c5.5-5.5,12.9-8.6,20.7-8.6c7.8,0,15.2,3.1,20.7,8.6
	c5.5,5.5,8.6,12.9,8.6,20.7v47.9c0,2.9-1.2,5.8-3.2,7.8s-4.9,3.2-7.8,3.2h-36.3c-2.9,0-5.8-1.2-7.8-3.2S410,187.4,410,184.4
	L410,184.4z"/>
<path class="st12" d="M405.1,184.4v-47.9c0-7.8,3.1-15.2,8.6-20.7c5.5-5.5,12.9-8.6,20.7-8.6c7.8,0,15.2,3.1,20.7,8.6
	c5.5,5.5,8.6,12.9,8.6,20.7v47.9c0,2.9-1.2,5.8-3.2,7.8c-2.1,2.1-4.9,3.2-7.8,3.2h-36.3c-2.9,0-5.8-1.2-7.8-3.2
	C406.2,190.2,405.1,187.4,405.1,184.4z"/>
<path class="st4" d="M448,168.3c3.5,0,6.3-2.8,6.3-6.3c0-3.5-2.8-6.3-6.3-6.3c-3.5,0-6.3,2.8-6.3,6.3
	C441.7,165.5,444.5,168.3,448,168.3z"/>
<path class="st5" d="M446.1,165.8c2.1,0,3.9-1.7,3.9-3.9c0-2.1-1.7-3.9-3.9-3.9c-2.1,0-3.9,1.7-3.9,3.9
	C442.2,164.1,444,165.8,446.1,165.8z"/>
<path class="st4" d="M424.8,168.3c3.5,0,6.3-2.8,6.3-6.3c0-3.5-2.8-6.3-6.3-6.3c-3.5,0-6.3,2.8-6.3,6.3
	C418.5,165.5,421.3,168.3,424.8,168.3z"/>
<path class="st5" d="M422.9,165.8c2.1,0,3.9-1.7,3.9-3.9c0-2.1-1.7-3.9-3.9-3.9c-2.1,0-3.9,1.7-3.9,3.9
	C419.1,164.1,420.8,165.8,422.9,165.8z"/>
<path class="st13" d="M446.8,169.3c-1.4,3.8-5.4,6.5-10.2,6.5c-4.8,0-8.8-2.7-10.2-6.5"/>
<path class="st14" d="M448,170.4c2.1,0,3.9-0.9,3.9-2.1s-1.7-2.1-3.9-2.1s-3.9,0.9-3.9,2.1S445.9,170.4,448,170.4z"/>
<path class="st14" d="M424.8,170.4c2.1,0,3.9-0.9,3.9-2.1s-1.7-2.1-3.9-2.1c-2.1,0-3.9,0.9-3.9,2.1S422.7,170.4,424.8,170.4z"/>
<path class="st15" d="M240.5,33.1l31.9,53.2c1.7,2.8,2.6,5.9,2.6,9.2c0,3.2-0.8,6.4-2.4,9.2c-1.6,2.8-3.9,5.2-6.7,6.8
	c-2.8,1.6-6,2.5-9.2,2.5h-63.8c-3.2,0-6.4-0.9-9.2-2.5c-2.8-1.6-5.1-4-6.7-6.8c-1.6-2.8-2.4-6-2.4-9.2s0.9-6.4,2.6-9.2l31.9-53.2
	c1.6-2.7,3.9-5,6.7-6.5c2.8-1.6,5.9-2.4,9-2.4s6.3,0.8,9,2.4C236.6,28.2,238.9,30.4,240.5,33.1z"/>
<path class="st14" d="M247.3,33.1l31.9,53.2c1.7,2.8,2.6,5.9,2.6,9.2c0,3.2-0.8,6.4-2.4,9.2c-1.6,2.8-3.9,5.2-6.7,6.8
	c-2.8,1.6-6,2.5-9.2,2.5h-63.8c-3.2,0-6.4-0.9-9.2-2.5c-2.8-1.6-5.1-4-6.7-6.8c-1.6-2.8-2.4-6-2.4-9.2c0-3.2,0.9-6.4,2.6-9.2
	l31.9-53.2c1.6-2.7,3.9-5,6.7-6.5c2.8-1.6,5.9-2.4,9-2.4s6.3,0.8,9,2.4C243.4,28.2,245.7,30.4,247.3,33.1z"/>
<path class="st16" d="M243.9,33.1l31.9,53.2c1.7,2.8,2.6,5.9,2.6,9.2c0,3.2-0.8,6.4-2.4,9.2c-1.6,2.8-3.9,5.2-6.7,6.8
	c-2.8,1.6-6,2.5-9.2,2.5h-63.8c-3.2,0-6.4-0.9-9.2-2.5c-2.8-1.6-5.1-4-6.7-6.8c-1.6-2.8-2.4-6-2.4-9.2c0-3.2,0.9-6.4,2.6-9.2
	l31.9-53.2c1.6-2.7,3.9-5,6.7-6.5c2.8-1.6,5.9-2.4,9-2.4c3.2,0,6.3,0.8,9,2.4C240,28.2,242.3,30.4,243.9,33.1z"/>
<path class="st4" d="M231.8,83.6c3.2,0,5.8-2.6,5.8-5.8s-2.6-5.8-5.8-5.8c-3.2,0-5.8,2.6-5.8,5.8S228.7,83.6,231.8,83.6z"/>
<path class="st5" d="M230.9,82.3c1.9,0,3.5-1.6,3.5-3.5c0-1.9-1.6-3.5-3.5-3.5s-3.5,1.6-3.5,3.5C227.4,80.8,228.9,82.3,230.9,82.3z"
	/>
<path class="st4" d="M217.7,85.8c3.2,0,5.8-2.6,5.8-5.8c0-3.2-2.6-5.8-5.8-5.8c-3.2,0-5.8,2.6-5.8,5.8
	C211.9,83.2,214.5,85.8,217.7,85.8z"/>
<path class="st5" d="M216.7,84.5c1.9,0,3.5-1.6,3.5-3.5s-1.6-3.5-3.5-3.5s-3.5,1.6-3.5,3.5S214.8,84.5,216.7,84.5z"/>
<path class="st17" d="M240.6,84.4c0.5,1.7,0.4,3.6-0.3,5.3c-0.6,1.7-1.8,3.1-3.3,4.1c-1.5,1-3.3,1.5-5.1,1.4
	c-1.8-0.1-3.5-0.8-4.9-1.9"/>
<path class="st18" d="M240.8,87.1c1.9,0,3.5-1.6,3.5-3.5c0-1.9-1.6-3.5-3.5-3.5s-3.5,1.6-3.5,3.5C237.3,85.6,238.9,87.1,240.8,87.1z
	"/>
<path class="st18" d="M432.6,86.8c2.3,0,4.2-1.9,4.2-4.2s-1.9-4.2-4.2-4.2s-4.2,1.9-4.2,4.2S430.3,86.8,432.6,86.8z"/>
<path class="st18" d="M389.8,86.8c2.3,0,4.2-1.9,4.2-4.2s-1.9-4.2-4.2-4.2c-2.3,0-4.2,1.9-4.2,4.2S387.5,86.8,389.8,86.8z"/>
<path class="st18" d="M347.1,86.8c2.3,0,4.2-1.9,4.2-4.2s-1.9-4.2-4.2-4.2s-4.2,1.9-4.2,4.2S344.7,86.8,347.1,86.8z"/>
<path class="st18" d="M304.3,86.8c2.3,0,4.2-1.9,4.2-4.2s-1.9-4.2-4.2-4.2c-2.3,0-4.2,1.9-4.2,4.2S302,86.8,304.3,86.8z"/>
<path class="st19" d="M361.6,162.8c2.3,0,4.2-1.9,4.2-4.2s-1.9-4.2-4.2-4.2s-4.2,1.9-4.2,4.2S359.3,162.8,361.6,162.8z"/>
<path class="st19" d="M318.8,162.8c2.3,0,4.2-1.9,4.2-4.2s-1.9-4.2-4.2-4.2c-2.3,0-4.2,1.9-4.2,4.2S316.5,162.8,318.8,162.8z"/>
<path class="st19" d="M276.1,162.8c2.3,0,4.2-1.9,4.2-4.2s-1.9-4.2-4.2-4.2s-4.2,1.9-4.2,4.2S273.7,162.8,276.1,162.8z"/>
<path class="st19" d="M233.3,162.8c2.3,0,4.2-1.9,4.2-4.2s-1.9-4.2-4.2-4.2c-2.3,0-4.2,1.9-4.2,4.2S231,162.8,233.3,162.8z"/>
<path class="st20" d="M436.4,243.4c2.3,0,4.2-1.9,4.2-4.2s-1.9-4.2-4.2-4.2c-2.3,0-4.2,1.9-4.2,4.2S434.1,243.4,436.4,243.4z"/>
<path class="st20" d="M393.7,243.4c2.3,0,4.2-1.9,4.2-4.2s-1.9-4.2-4.2-4.2s-4.2,1.9-4.2,4.2S391.4,243.4,393.7,243.4z"/>
<path class="st20" d="M350.9,243.4c2.3,0,4.2-1.9,4.2-4.2s-1.9-4.2-4.2-4.2s-4.2,1.9-4.2,4.2S348.6,243.4,350.9,243.4z"/>
<path class="st20" d="M308.2,243.4c2.3,0,4.2-1.9,4.2-4.2s-1.9-4.2-4.2-4.2s-4.2,1.9-4.2,4.2S305.8,243.4,308.2,243.4z"/>
<path class="st18" d="M224.8,95.2c1.9,0,3.5-1.6,3.5-3.5c0-1.9-1.6-3.5-3.5-3.5s-3.5,1.6-3.5,3.5C221.3,93.6,222.8,95.2,224.8,95.2z
	"/>
<path class="st21" d="M220.6,275.6c17.1,0,31-13.9,31-31c0-17.1-13.9-31-31-31c-17.1,0-31,13.9-31,31
	C189.6,261.7,203.5,275.6,220.6,275.6z"/>
<path class="st22" d="M227.6,275.6c17.1,0,31-13.9,31-31c0-17.1-13.9-31-31-31s-31,13.9-31,31C196.6,261.7,210.4,275.6,227.6,275.6z
	"/>
<path class="st23" d="M224.5,275.6c17.1,0,31-13.9,31-31c0-17.1-13.9-31-31-31s-31,13.9-31,31C193.4,261.7,207.3,275.6,224.5,275.6z
	"/>
<path class="st4" d="M232.4,249.8c3.2,0,5.9-2.6,5.9-5.9c0-3.2-2.6-5.9-5.9-5.9c-3.2,0-5.9,2.6-5.9,5.9
	C226.5,247.2,229.2,249.8,232.4,249.8z"/>
<path class="st5" d="M232.4,247.5c2,0,3.6-1.6,3.6-3.6c0-2-1.6-3.6-3.6-3.6c-2,0-3.6,1.6-3.6,3.6
	C228.8,245.9,230.4,247.5,232.4,247.5z"/>
<path class="st4" d="M216.8,249.8c3.2,0,5.9-2.6,5.9-5.9c0-3.2-2.6-5.9-5.9-5.9c-3.2,0-5.9,2.6-5.9,5.9
	C210.9,247.2,213.5,249.8,216.8,249.8z"/>
<path class="st5" d="M216.8,247.5c2,0,3.6-1.6,3.6-3.6c0-2-1.6-3.6-3.6-3.6s-3.6,1.6-3.6,3.6C213.2,245.9,214.8,247.5,216.8,247.5z"
	/>
<path class="st24" d="M240.9,247.7c-2.2,5.9-8.6,10.1-16.1,10.1c-7.5,0-13.9-4.2-16.1-10.1"/>
<path class="st25" d="M86,132.6H43c-10.5,0-19,8.5-19,19v6.9c0,10.5,8.5,19,19,19H86c10.5,0,19-8.5,19-19v-6.9
	C105,141.1,96.5,132.6,86,132.6z"/>
<path class="st25" d="M113,186.6H70c-10.5,0-19,8.5-19,19v6.9c0,10.5,8.5,19,19,19H113c10.5,0,19-8.5,19-19v-6.9
	C132,195.1,123.5,186.6,113,186.6z"/>
<path class="st2" d="M81.8,158.8c2.3,0,4.2-1.9,4.2-4.2s-1.9-4.2-4.2-4.2c-2.3,0-4.2,1.9-4.2,4.2S79.5,158.8,81.8,158.8z"/>
<path class="st2" d="M64.1,158.8c2.3,0,4.2-1.9,4.2-4.2s-1.9-4.2-4.2-4.2c-2.3,0-4.2,1.9-4.2,4.2S61.7,158.8,64.1,158.8z"/>
<path class="st2" d="M46.3,158.8c2.3,0,4.2-1.9,4.2-4.2s-1.9-4.2-4.2-4.2c-2.3,0-4.2,1.9-4.2,4.2S44,158.8,46.3,158.8z"/>
<path class="st2" d="M109.8,212.8c2.3,0,4.2-1.9,4.2-4.2s-1.9-4.2-4.2-4.2c-2.3,0-4.2,1.9-4.2,4.2S107.5,212.8,109.8,212.8z"/>
<path class="st2" d="M92.1,212.8c2.3,0,4.2-1.9,4.2-4.2s-1.9-4.2-4.2-4.2s-4.2,1.9-4.2,4.2S89.7,212.8,92.1,212.8z"/>
<path class="st2" d="M74.3,212.8c2.3,0,4.2-1.9,4.2-4.2s-1.9-4.2-4.2-4.2c-2.3,0-4.2,1.9-4.2,4.2S72,212.8,74.3,212.8z"/>
</svg>
