<svg width="286" height="356" viewBox="0 0 286 356" fill="none" xmlns="http://www.w3.org/2000/svg">
<path d="M173.821 61.9591L173.82 61.8938C173.699 47.5289 179.139 33.674 189.002 23.2297C222.498 -12.4664 280.913 14.9585 279.718 61.9828C279.287 81.6055 270.615 92.3159 263.815 100.714C263.279 101.376 262.754 102.024 262.246 102.661C262.241 103.849 262.233 105.023 262.225 106.187C262.201 109.775 262.177 113.275 262.249 116.832L262.25 116.887L262.25 116.941C262.265 124.495 257.695 130.629 252.84 134.64C247.998 138.64 241.753 141.495 236.158 141.999C235.773 142.053 235.51 142.122 235.343 142.178C235.27 142.203 235.217 142.225 235.179 142.242C235.043 142.612 234.866 143.663 235.134 145.978C235.313 147.521 235.579 148.942 235.881 150.55C236.075 151.585 236.284 152.696 236.493 153.968C236.908 156.49 237.344 159.784 236.805 162.89C236.608 187.482 236.915 208.749 237.215 227.171C237.238 228.563 237.26 229.94 237.283 231.301C237.558 248.045 237.795 262.448 237.569 274.729C237.325 287.983 236.541 299.111 234.579 308.327C232.607 317.593 229.369 325.296 223.96 331.379C213.147 343.54 195.359 347.331 169.516 348.559C152.27 349.379 130.32 349.056 102.732 348.651C88.5313 348.442 72.8371 348.211 55.5215 348.103C55.5152 348.103 55.5088 348.103 55.5025 348.103L55.5399 342.103L173.821 61.9591ZM173.821 61.9591L173.823 62.0244M173.821 61.9591L173.823 62.0244M173.823 62.0244C173.844 62.7379 173.693 63.4462 173.381 64.0884M173.823 62.0244L173.381 64.0884M173.381 64.0884C173.069 64.7306 172.606 65.2877 172.032 65.7121M173.381 64.0884L172.032 65.7121M172.032 65.7121C171.458 66.1365 170.79 66.4156 170.084 66.5254M172.032 65.7121L170.084 66.5254M170.084 66.5254C169.402 66.6316 168.705 66.5764 168.048 66.3646L170.084 66.5254Z" fill="white" stroke="white" stroke-width="12" stroke-miterlimit="10"/>
<path d="M24 298.564L24 162.284C24 140.186 32.7783 118.993 48.4039 103.367C64.0294 87.7419 85.2222 78.9636 107.32 78.9636C129.418 78.9636 150.611 87.7419 166.236 103.367C181.862 118.993 190.64 140.186 190.64 162.284V298.564C190.64 306.929 187.317 314.951 181.402 320.866C175.487 326.781 167.465 330.104 159.1 330.104H55.54C47.1751 330.104 39.1528 326.781 33.2379 320.866C27.323 314.951 24 306.929 24 298.564Z" fill="#5301C6"/>
<path d="M52.1602 298.583L52.1602 162.283C52.1602 140.185 60.9385 118.992 76.564 103.367C92.1896 87.7413 113.382 78.963 135.48 78.963C157.578 78.963 178.771 87.7413 194.396 103.367C210.022 118.992 218.8 140.185 218.8 162.283V298.583C218.8 306.948 215.477 314.97 209.562 320.885C203.647 326.8 195.625 330.123 187.26 330.123H83.7002C75.3353 330.123 67.3129 326.8 61.398 320.885C55.4831 314.97 52.1602 306.948 52.1602 298.583Z" fill="#8C39FE"/>
<path d="M38.0801 298.573L38.0801 162.293C38.0801 140.195 46.8584 119.003 62.4839 103.377C78.1095 87.7517 99.3022 78.9733 121.4 78.9733C143.496 78.9733 164.687 87.7503 180.313 103.374C195.938 118.997 204.717 140.187 204.72 162.283V298.573C204.72 306.938 201.397 314.961 195.482 320.875C189.567 326.79 181.545 330.113 173.18 330.113H69.6201C61.2552 330.113 53.2328 326.79 47.3179 320.875C41.403 314.961 38.0801 306.938 38.0801 298.573Z" fill="#6B01FE"/>
<path d="M261.72 61.8434C261.72 41.1034 246.07 24.9834 226.72 24.9834C207.37 24.9834 191.77 41.1034 191.77 61.8434C191.77 82.5834 209.24 89.4934 209.24 98.7034C209.24 107.913 244.24 105.613 244.24 98.7034C244.24 91.7934 261.72 82.5534 261.72 61.8434Z" fill="#FFCA39"/>
<path d="M241.77 98.6836H211.76C210.396 98.6836 209.29 99.7894 209.29 101.154V103.124C209.29 104.488 210.396 105.594 211.76 105.594H241.77C243.134 105.594 244.24 104.488 244.24 103.124V101.154C244.24 99.7894 243.134 98.6836 241.77 98.6836Z" fill="#282D2D" stroke="#44484A" stroke-miterlimit="10"/>
<path d="M241.77 105.594H211.76C210.396 105.594 209.29 106.7 209.29 108.064V110.034C209.29 111.398 210.396 112.504 211.76 112.504H241.77C243.134 112.504 244.24 111.398 244.24 110.034V108.064C244.24 106.7 243.134 105.594 241.77 105.594Z" fill="#282D2D" stroke="#44484A" stroke-miterlimit="10"/>
<path d="M241.77 112.514H211.76C210.396 112.514 209.29 113.62 209.29 114.984V116.954C209.29 118.318 210.396 119.424 211.76 119.424H241.77C243.134 119.424 244.24 118.318 244.24 116.954V114.984C244.24 113.62 243.134 112.514 241.77 112.514Z" fill="#282D2D" stroke="#44484A" stroke-miterlimit="10"/>
<path d="M235.51 124.034H218.03C216.43 124.034 210.6 119.424 212.21 119.424H241.33C242.94 119.424 237.11 124.034 235.51 124.034Z" fill="#282D2D" stroke="#44484A" stroke-miterlimit="10"/>
<path opacity="0.41" d="M240.44 119.434C240.93 119.654 242.37 108.364 241.1 101.004C240.94 100.094 240.67 98.5237 240.44 98.7037C239.64 99.2737 239.77 119.164 240.44 119.434Z" fill="#97A1A1"/>
<path opacity="0.87" d="M239.879 34.1738C241.509 35.1238 256.029 43.8538 257.289 59.5238C257.583 64.2354 256.835 68.9538 255.099 73.3438C252.259 80.9138 245.669 90.4238 241.989 89.4738C238.439 88.5538 235.909 77.5738 239.879 34.1738Z" fill="#FFE8AA"/>
<path d="M198.32 113.934C198.32 109.491 196.556 105.231 193.414 102.09C190.273 98.9483 186.013 97.1836 181.57 97.1836C177.128 97.1836 172.868 98.9483 169.726 102.09C166.585 105.231 164.82 109.491 164.82 113.934C164.82 123.484 173.19 126.664 173.19 130.934C173.19 135.204 189.94 134.114 189.94 130.934C189.94 127.754 198.32 123.484 198.32 113.934Z" fill="#FFCA39"/>
<path d="M189.019 130.283H174.109C173.601 130.283 173.189 130.695 173.189 131.203V132.543C173.189 133.051 173.601 133.463 174.109 133.463H189.019C189.528 133.463 189.939 133.051 189.939 132.543V131.203C189.939 130.695 189.528 130.283 189.019 130.283Z" fill="#282D2D" stroke="#44484A" stroke-miterlimit="10"/>
<path d="M189.019 133.473H174.109C173.601 133.473 173.189 133.885 173.189 134.393V135.733C173.189 136.241 173.601 136.653 174.109 136.653H189.019C189.528 136.653 189.939 136.241 189.939 135.733V134.393C189.939 133.885 189.528 133.473 189.019 133.473Z" fill="#282D2D" stroke="#44484A" stroke-miterlimit="10"/>
<path d="M189.019 136.653H174.109C173.601 136.653 173.189 137.065 173.189 137.573V138.913C173.189 139.421 173.601 139.833 174.109 139.833H189.019C189.528 139.833 189.939 139.421 189.939 138.913V137.573C189.939 137.065 189.528 136.653 189.019 136.653Z" fill="#282D2D" stroke="#44484A" stroke-miterlimit="10"/>
<path d="M185.75 141.963H177.38C176.61 141.963 173.82 139.833 174.59 139.833H188.59C189.31 139.843 186.52 141.963 185.75 141.963Z" fill="#282D2D" stroke="#44484A" stroke-miterlimit="10"/>
<path opacity="0.41" d="M188.1 139.843C188.34 139.943 189.03 134.743 188.42 131.353C188.34 130.933 188.21 130.213 188.1 130.293C187.73 130.563 187.79 139.713 188.1 139.843Z" fill="#D3D3D3" stroke="#404041" stroke-miterlimit="10"/>
<path opacity="0.87" d="M187.85 100.573C188.63 101.013 195.59 105.033 196.19 112.253C196.352 114.422 196.01 116.599 195.19 118.613C193.83 122.103 190.67 126.483 188.91 126.043C187.15 125.603 185.95 120.563 187.85 100.573Z" fill="#FFE8AA"/>
<path d="M157.17 267.563C167.111 267.563 175.17 259.505 175.17 249.563C175.17 239.622 167.111 231.563 157.17 231.563C147.229 231.563 139.17 239.622 139.17 249.563C139.17 259.505 147.229 267.563 157.17 267.563Z" fill="white"/>
<path d="M153.17 256.563C159.245 256.563 164.17 251.639 164.17 245.563C164.17 239.488 159.245 234.563 153.17 234.563C147.095 234.563 142.17 239.488 142.17 245.563C142.17 251.639 147.095 256.563 153.17 256.563Z" fill="#231F20"/>
<path d="M124.17 290.563C130.245 290.563 135.17 285.639 135.17 279.563C135.17 273.488 130.245 268.563 124.17 268.563C118.095 268.563 113.17 273.488 113.17 279.563C113.17 285.639 118.095 290.563 124.17 290.563Z" fill="#231F20"/>
<path d="M91.1699 267.563C101.111 267.563 109.17 259.505 109.17 249.563C109.17 239.622 101.111 231.563 91.1699 231.563C81.2288 231.563 73.1699 239.622 73.1699 249.563C73.1699 259.505 81.2288 267.563 91.1699 267.563Z" fill="white"/>
<path d="M95.1699 256.563C101.245 256.563 106.17 251.639 106.17 245.563C106.17 239.488 101.245 234.563 95.1699 234.563C89.0948 234.563 84.1699 239.488 84.1699 245.563C84.1699 251.639 89.0948 256.563 95.1699 256.563Z" fill="#231F20"/>
</svg>
