<svg width="1238" height="351" viewBox="0 0 1238 351" fill="none" xmlns="http://www.w3.org/2000/svg">
<path d="M1208.32 87.3407C1208.32 87.3407 960.094 87.9467 954.198 87.3407C949.29 87.3394 944.505 88.8809 940.521 91.7474C936.536 94.6139 933.554 98.6603 931.995 103.314L914.288 156.102C910.379 167.755 894.29 168.706 889.012 157.593L872.899 123.494C870.293 118.002 865.657 113.735 859.967 111.592C822.063 68.2764 677.245 78.0691 644.842 139.086C643.519 141.583 641.628 143.735 639.321 145.368C637.014 147.002 634.356 148.07 631.56 148.489C628.765 148.908 625.91 148.664 623.226 147.778C620.542 146.892 618.104 145.389 616.107 143.388L615.749 143.031C614.491 141.788 613.49 140.309 612.806 138.679C612.121 137.049 611.765 135.299 611.759 133.531C611.753 131.762 612.096 130.01 612.77 128.375C613.443 126.74 614.433 125.254 615.682 124.003C638.346 101.375 693.752 46.0791 693.752 46.0791C708.574 32.2626 697.478 5.37505 677.208 6.08406H597.139C586.71 4.82966 574.839 17.8765 565.567 27.7481C563.422 30.0419 560.511 31.4697 557.384 31.7612C554.257 32.0526 551.132 31.1876 548.6 29.3297C503.666 -3.75716 438.977 -0.763586 395.528 33.214C393.93 34.4577 392.063 35.3098 390.077 35.7019C388.09 36.0941 386.039 36.0155 384.089 35.4723C382.138 34.9291 380.342 33.9366 378.844 32.5741C377.346 31.2117 376.189 29.5174 375.464 27.6269C371.07 16.1374 364.659 5.69016 351.109 6.20525H285.838C281.239 6.07393 276.719 7.41583 272.937 10.0351C266.107 14.8284 257.054 14.5254 250.097 9.91995C246.296 7.39219 241.827 6.05462 237.262 6.078H174.713C139.844 6.79306 154.012 57.302 151.291 78.8508H115.132C112.393 57.3505 126.609 6.81124 91.7106 6.078H29.4214C23.2121 6.08601 17.2594 8.55619 12.8688 12.9468C8.47819 17.3374 6.00802 23.2901 6 29.4993V241.164C6 246.426 8.09028 251.472 11.811 255.193C15.5317 258.914 20.5781 261.004 25.84 261.004H95.292C100.554 261.004 105.6 258.914 109.321 255.193C113.042 251.472 115.132 246.426 115.132 241.164V187.977H151.291C154.03 209.665 139.777 260.265 174.713 261.004C181.984 260.465 201.291 262.634 207.733 258.671C212.726 263.192 272.573 260.198 279.651 261.004C284.568 261.008 289.362 259.463 293.351 256.588C297.34 253.713 300.321 249.654 301.873 244.988L319.652 191.631L338.65 248.418C339.871 252.082 342.213 255.268 345.345 257.527C348.477 259.786 352.241 261.003 356.102 261.004L407.999 261.095C410.859 261.095 437.007 255.611 447.388 257.895C476.051 264.192 506.835 260.404 532.935 247.066C540.603 243.119 549.32 241.69 557.847 242.981C566.374 244.273 574.277 248.219 580.432 254.26C584.816 258.576 590.72 260.996 596.873 260.998H654.102C655.834 261.001 657.527 261.514 658.969 262.473C660.411 263.432 661.539 264.795 662.21 266.392C662.882 267.988 663.069 269.747 662.746 271.449C662.424 273.151 661.607 274.72 660.398 275.96L648.921 287.649C646.315 290.304 644.378 293.541 643.272 297.093C642.166 300.645 641.921 304.409 642.559 308.074C643.197 311.739 644.699 315.199 646.94 318.168C649.181 321.137 652.097 323.53 655.447 325.148C707.992 351.884 807.016 351.405 857.047 321.954C860.743 332.662 869.106 342.394 881.286 342.055C881.286 342.055 1133.38 341.6 1137.79 342.055C1144 342.047 1149.95 339.577 1154.34 335.186C1158.73 330.795 1161.2 324.843 1161.21 318.633V215.495C1161.21 212.968 1161.72 210.467 1162.72 208.144C1163.71 205.821 1165.17 203.725 1167 201.981C1168.82 200.238 1170.99 198.884 1173.36 198.002C1175.72 197.119 1178.25 196.727 1180.77 196.848C1203.54 197.945 1231.26 199.091 1231.77 173.057V110.762C1231.76 104.548 1229.29 98.5917 1224.89 94.2006C1220.49 89.8094 1214.53 87.3423 1208.32 87.3407Z" fill="white" stroke="white" stroke-width="12" stroke-miterlimit="10"/>
<path d="M197.528 242.825H174.713C173.322 242.825 171.989 242.273 171.006 241.29C170.023 240.306 169.471 238.973 169.471 237.583V177.863C169.471 175.729 168.625 173.682 167.119 172.171C165.613 170.659 163.569 169.805 161.435 169.797H105.012C102.874 169.799 100.824 170.65 99.3128 172.162C97.8015 173.674 96.9525 175.725 96.9525 177.863V237.583C96.9525 238.973 96.4003 240.306 95.4173 241.29C94.4342 242.273 93.101 242.825 91.7108 242.825H29.4215C28.0313 242.825 26.698 242.273 25.715 241.29C24.7319 240.306 24.1797 238.973 24.1797 237.583V29.4996C24.1797 28.1094 24.7319 26.7761 25.715 25.7931C26.698 24.8101 28.0313 24.2578 29.4215 24.2578H91.7108C93.101 24.2578 94.4342 24.8101 95.4173 25.7931C96.4003 26.7761 96.9525 28.1094 96.9525 29.4996V88.965C96.9525 91.1031 97.8015 93.1537 99.3128 94.6661C100.824 96.1786 102.874 97.029 105.012 97.0306H161.435C162.495 97.0306 163.544 96.822 164.522 96.4167C165.501 96.0114 166.39 95.4172 167.139 94.6683C167.888 93.9193 168.482 93.0302 168.887 92.0516C169.293 91.073 169.501 90.0242 169.501 88.965V29.4996C169.501 28.1094 170.053 26.7761 171.036 25.7931C172.019 24.8101 173.353 24.2578 174.743 24.2578H237.256C237.945 24.2578 238.626 24.3934 239.261 24.6569C239.897 24.9204 240.475 25.3066 240.961 25.7935C241.447 26.2803 241.833 26.8582 242.095 27.4941C242.358 28.13 242.493 28.8115 242.492 29.4996V114.01C242.49 117.49 241.925 120.946 240.82 124.245L202.503 239.237C202.156 240.282 201.488 241.191 200.595 241.835C199.702 242.479 198.629 242.825 197.528 242.825Z" fill="#0083FF"/>
<path d="M319.597 169.949C323.079 169.936 326.476 171.023 329.305 173.053C332.134 175.083 334.25 177.954 335.353 181.256L355.89 242.631C355.907 242.681 355.94 242.725 355.983 242.757C356.027 242.788 356.079 242.805 356.132 242.806L407.987 242.897C413.259 242.897 415.222 236.044 410.78 233.201C359.877 200.836 340.286 130.856 370.524 76.8571C371.095 75.8536 371.445 74.7395 371.549 73.5898C371.654 72.44 371.511 71.2812 371.13 70.1912L356.048 27.8692C355.685 26.8491 355.016 25.9663 354.132 25.3423C353.247 24.7183 352.191 24.3838 351.109 24.3848H285.838C284.73 24.3856 283.65 24.7381 282.755 25.3915C281.86 26.0449 281.195 26.9655 280.857 28.0207L212.902 235.965C212.644 236.752 212.577 237.589 212.705 238.407C212.833 239.225 213.153 240.001 213.639 240.671C214.125 241.342 214.763 241.887 215.501 242.264C216.238 242.64 217.055 242.837 217.883 242.837H279.651C280.752 242.837 281.825 242.49 282.718 241.847C283.611 241.203 284.279 240.294 284.626 239.249L303.945 181.281C305.04 177.991 307.139 175.128 309.947 173.095C312.755 171.062 316.131 169.962 319.597 169.949Z" fill="#111111"/>
<path d="M510.241 169.452L547.909 207.12C548.409 207.621 548.803 208.218 549.067 208.875C549.33 209.532 549.458 210.235 549.443 210.943C549.428 211.65 549.27 212.347 548.978 212.992C548.686 213.637 548.267 214.216 547.745 214.695C481.929 274.912 371.331 232.511 365.295 140.88C359.12 41.6073 476.251 -12.7375 547.97 52.406C548.494 52.883 548.917 53.4616 549.211 54.1067C549.505 54.7518 549.666 55.4499 549.682 56.1588C549.698 56.8677 549.571 57.5725 549.307 58.2306C549.042 58.8886 548.647 59.4861 548.145 59.9869L512.907 95.225C508.484 99.6426 505.484 99.8184 503.405 98.1519C459.271 62.829 401.77 122.646 442.243 165.877C457.629 182.196 486.044 183.281 503.169 169.149C504.174 168.309 505.456 167.875 506.764 167.931C508.072 167.987 509.312 168.53 510.241 169.452Z" fill="#6B01FE"/>
<path d="M586.171 139.122L680.705 233.88C681.437 234.614 681.936 235.549 682.137 236.566C682.338 237.582 682.233 238.636 681.836 239.594C681.438 240.551 680.765 241.369 679.903 241.944C679.041 242.519 678.027 242.826 676.99 242.825H596.879C595.503 242.822 594.182 242.281 593.201 241.316L515.816 165.065C514.567 163.848 513.749 162.257 513.488 160.533C513.226 158.809 513.536 157.047 514.368 155.514C521.597 142.455 521.64 124.767 514.526 111.647C513.707 110.112 513.409 108.352 513.677 106.633C513.945 104.914 514.763 103.328 516.01 102.115L593.455 25.7607C594.437 24.7927 595.761 24.2524 597.14 24.2579H677.215C678.251 24.2582 679.265 24.566 680.127 25.1424C680.989 25.7188 681.66 26.5378 682.057 27.4959C682.453 28.454 682.556 29.5081 682.353 30.5249C682.151 31.5417 681.651 32.4755 680.917 33.2083L586.19 127.742C584.68 129.25 583.83 131.295 583.826 133.429C583.823 135.562 584.666 137.61 586.171 139.122Z" fill="#111111"/>
<path d="M768.184 198.631C782.224 198.515 796.242 199.749 810.046 202.315C811.306 202.544 812.493 203.069 813.511 203.847C814.529 204.624 815.347 205.632 815.9 206.787L856.707 292.486C857.548 294.239 857.726 296.238 857.206 298.112C856.687 299.986 855.507 301.608 853.883 302.678C807.683 332.82 716.082 334.22 663.343 308.793C662.595 308.429 661.944 307.893 661.445 307.228C660.945 306.564 660.611 305.79 660.469 304.97C660.328 304.151 660.383 303.31 660.631 302.516C660.879 301.722 661.312 300.999 661.894 300.406L690.897 270.858C691.78 269.965 692.953 269.417 694.204 269.314C695.456 269.211 696.703 269.558 697.72 270.294C717.179 284.147 800.92 299.915 805.04 257.648C805.04 242.68 788.776 230.536 768.681 230.433C768.649 230.433 768.616 230.426 768.586 230.414C768.556 230.401 768.529 230.383 768.506 230.36C768.483 230.337 768.464 230.309 768.452 230.279C768.439 230.249 768.433 230.217 768.433 230.184C768.433 230.151 768.426 230.118 768.414 230.087C768.401 230.056 768.382 230.028 768.358 230.004C768.335 229.981 768.307 229.962 768.276 229.949C768.245 229.936 768.212 229.93 768.178 229.93C722.729 229.706 660.27 212.471 656.604 166.507C654.368 107.321 786.358 87.6079 841.624 117.604C842.436 118.044 843.117 118.691 843.598 119.48C844.079 120.269 844.342 121.171 844.361 122.094C844.38 123.018 844.155 123.93 843.707 124.738C843.259 125.546 842.605 126.221 841.812 126.694C828.528 134.766 813.821 143.662 801.065 151.291C800.11 151.862 799.001 152.124 797.891 152.039C796.78 151.954 795.724 151.528 794.866 150.818C775.656 134.935 731.928 144.062 732.377 169.949C732.377 184.935 748.205 198.612 768.19 198.691" fill="#FE0169"/>
<path d="M805.598 155.454C817.645 148.182 834.504 137.983 848.957 129.026C849.584 128.637 850.286 128.385 851.018 128.287C851.75 128.188 852.494 128.246 853.202 128.455C853.91 128.665 854.565 129.021 855.125 129.502C855.686 129.983 856.138 130.577 856.453 131.244L888.503 199.115C894.975 212.804 914.827 211.634 919.645 197.297L949.217 109.126C949.566 108.085 950.234 107.18 951.126 106.54C952.018 105.899 953.088 105.555 954.186 105.557H1015.39C1016.22 105.555 1017.05 105.753 1017.79 106.133C1018.53 106.514 1019.17 107.066 1019.66 107.745C1020.14 108.423 1020.46 109.207 1020.58 110.032C1020.7 110.858 1020.62 111.7 1020.35 112.489L949.253 320.354C948.901 321.389 948.234 322.288 947.345 322.924C946.455 323.559 945.389 323.901 944.296 323.899H881.274C880.274 323.901 879.294 323.616 878.45 323.079C877.606 322.543 876.933 321.776 876.511 320.869L803.55 162.144C803.005 160.972 802.912 159.641 803.291 158.406C803.669 157.17 804.491 156.119 805.598 155.454Z" fill="#111111"/>
<path d="M1075.53 105.745L1208.35 105.521C1209.04 105.52 1209.72 105.655 1210.36 105.918C1210.99 106.181 1211.57 106.567 1212.06 107.054C1212.55 107.54 1212.93 108.119 1213.2 108.755C1213.46 109.391 1213.6 110.073 1213.6 110.762V173.058C1213.6 174.515 1213.02 175.913 1211.99 176.944C1210.96 177.975 1209.56 178.554 1208.1 178.554H1151.1C1148.96 178.554 1146.91 179.404 1145.4 180.916C1143.89 182.429 1143.04 184.48 1143.04 186.62V318.658C1143.04 320.048 1142.48 321.381 1141.5 322.364C1140.52 323.347 1139.18 323.9 1137.79 323.9H1076.02C1074.63 323.898 1073.3 323.347 1072.32 322.367C1071.34 321.387 1070.78 320.058 1070.78 318.67L1070.3 110.999C1070.3 110.31 1070.43 109.628 1070.69 108.992C1070.96 108.355 1071.34 107.776 1071.83 107.289C1072.31 106.801 1072.89 106.413 1073.52 106.148C1074.16 105.883 1074.84 105.746 1075.53 105.745Z" fill="#111111"/>
<path d="M1058.43 105.587H1033.32C1032.22 105.586 1031.15 105.929 1030.26 106.567C1029.37 107.205 1028.7 108.107 1028.35 109.144L986.788 231.674C986.505 232.51 986.362 233.386 986.364 234.268V318.658C986.363 319.346 986.498 320.027 986.761 320.663C987.024 321.299 987.409 321.877 987.896 322.364C988.382 322.851 988.959 323.237 989.595 323.5C990.231 323.764 990.912 323.899 991.6 323.899H1058.44C1059.83 323.899 1061.16 323.347 1062.15 322.364C1063.13 321.381 1063.68 320.048 1063.68 318.658V110.804C1063.68 110.117 1063.54 109.437 1063.28 108.802C1063.01 108.168 1062.62 107.592 1062.14 107.108C1061.65 106.623 1061.07 106.239 1060.43 105.979C1059.8 105.718 1059.12 105.585 1058.43 105.587Z" fill="#FF8C00"/>
</svg>
