<svg width="328" height="84" viewBox="0 0 328 84" fill="none" xmlns="http://www.w3.org/2000/svg">
<path d="M48.5007 60.9169H42.2467C41.8657 60.9169 41.5002 60.7655 41.2307 60.4961C40.9613 60.2266 40.8099 59.8611 40.8099 59.4801V43.11C40.8099 42.5251 40.5781 41.964 40.1653 41.5496C39.7525 41.1352 39.1922 40.9013 38.6073 40.8991H23.1409C22.5548 40.8996 21.9929 41.1327 21.5786 41.5473C21.1644 41.9619 20.9317 42.524 20.9317 43.11V59.4801C20.9317 59.8611 20.7803 60.2266 20.5108 60.4961C20.2414 60.7655 19.8759 60.9169 19.4948 60.9169H2.42048C2.03941 60.9169 1.67394 60.7655 1.40448 60.4961C1.13502 60.2266 0.983643 59.8611 0.983643 59.4801V2.4416C0.983643 2.06053 1.13502 1.69506 1.40448 1.4256C1.67394 1.15614 2.03941 1.00476 2.42048 1.00476H19.4948C19.8759 1.00476 20.2414 1.15614 20.5108 1.4256C20.7803 1.69506 20.9317 2.06053 20.9317 2.4416V18.7419C20.9317 19.3279 21.1644 19.89 21.5786 20.3046C21.9929 20.7192 22.5548 20.9523 23.1409 20.9528H38.6073C38.8976 20.9528 39.1851 20.8956 39.4534 20.7845C39.7216 20.6734 39.9654 20.5105 40.1707 20.3052C40.376 20.0999 40.5388 19.8562 40.6499 19.5879C40.761 19.3197 40.8182 19.0322 40.8182 18.7419V2.4416C40.8182 2.06053 40.9696 1.69506 41.2391 1.4256C41.5085 1.15614 41.874 1.00476 42.2551 1.00476H59.3908C59.5795 1.00476 59.7662 1.04194 59.9405 1.11417C60.1147 1.18639 60.273 1.29226 60.4063 1.4257C60.5396 1.55915 60.6452 1.71756 60.7173 1.89187C60.7893 2.06619 60.8262 2.25299 60.826 2.4416V25.6071C60.8255 26.5609 60.6707 27.5084 60.3676 28.4127L49.8645 59.9335C49.7693 60.2199 49.5863 60.469 49.3415 60.6455C49.0967 60.822 48.8025 60.917 48.5007 60.9169Z" fill="#0083FF"/>
<path d="M81.9617 40.9406C82.9161 40.9373 83.8473 41.235 84.6227 41.7915C85.3981 42.348 85.9782 43.1349 86.2805 44.0402L91.91 60.8637C91.9148 60.8776 91.9237 60.8897 91.9356 60.8983C91.9475 60.9069 91.9617 60.9117 91.9764 60.9119L106.19 60.9368C107.635 60.9368 108.174 59.0581 106.956 58.2791C93.003 49.4072 87.6327 30.2249 95.9215 15.423C96.078 15.1479 96.1737 14.8425 96.2024 14.5274C96.231 14.2122 96.1919 13.8946 96.0876 13.5958L91.9532 1.99474C91.8539 1.71512 91.6704 1.47314 91.428 1.3021C91.1856 1.13105 90.8961 1.03935 90.5994 1.03961H72.7078C72.404 1.03985 72.1081 1.13648 71.8628 1.31558C71.6174 1.49468 71.4352 1.74701 71.3424 2.03627L52.7149 59.0365C52.6443 59.2523 52.6259 59.4816 52.661 59.7059C52.6962 59.9301 52.7839 60.1429 52.9172 60.3266C53.0504 60.5104 53.2252 60.66 53.4274 60.7632C53.6296 60.8664 53.8534 60.9202 54.0803 60.9202H71.0118C71.3136 60.9203 71.6078 60.8253 71.8525 60.6488C72.0973 60.4723 72.2803 60.2232 72.3756 59.9368L77.6711 44.0469C77.9712 43.1452 78.5467 42.3604 79.3164 41.8031C80.0862 41.2458 81.0114 40.9442 81.9617 40.9406Z" fill="#111111"/>
<path d="M134.219 40.8044L144.545 51.1297C144.682 51.267 144.79 51.4306 144.862 51.6106C144.934 51.7907 144.969 51.9835 144.965 52.1775C144.961 52.3715 144.917 52.5626 144.838 52.7394C144.758 52.9161 144.643 53.0749 144.5 53.2061C126.459 69.7123 96.1421 58.0897 94.4877 32.9724C92.795 5.76043 124.902 -9.13621 144.561 8.72049C144.705 8.85124 144.821 9.00983 144.901 9.18666C144.982 9.36349 145.026 9.55486 145.031 9.74918C145.035 9.94349 145 10.1367 144.928 10.3171C144.855 10.4975 144.747 10.6612 144.609 10.7985L134.95 20.4577C133.738 21.6687 132.915 21.7169 132.346 21.2601C120.248 11.5776 104.486 27.9742 115.58 39.8244C119.798 44.2977 127.587 44.595 132.281 40.7214C132.556 40.4912 132.908 40.3721 133.266 40.3875C133.625 40.4028 133.965 40.5515 134.219 40.8044Z" fill="#6B01FE"/>
<path d="M155.033 32.4907L180.946 58.4652C181.146 58.6663 181.283 58.9224 181.338 59.2012C181.393 59.4799 181.365 59.7688 181.256 60.0312C181.147 60.2936 180.962 60.5178 180.726 60.6755C180.489 60.8331 180.212 60.9172 179.928 60.9169H157.968C157.591 60.9163 157.229 60.7678 156.96 60.5033L135.748 39.6018C135.405 39.2684 135.181 38.8322 135.109 38.3596C135.038 37.887 135.122 37.4039 135.351 36.984C137.332 33.4043 137.344 28.5556 135.394 24.9593C135.169 24.5385 135.088 24.0562 135.161 23.585C135.234 23.1137 135.459 22.6791 135.801 22.3464L157.029 1.41672C157.298 1.15139 157.661 1.00329 158.039 1.00477H179.989C180.273 1.00487 180.551 1.08925 180.787 1.24724C181.023 1.40524 181.208 1.62974 181.316 1.89237C181.425 2.15499 181.453 2.44394 181.398 2.72266C181.342 3.00138 181.205 3.25735 181.004 3.4582L155.038 29.3712C154.624 29.7844 154.391 30.345 154.39 30.9299C154.389 31.5148 154.62 32.0762 155.033 32.4907Z" fill="#111111"/>
<path d="M204.925 48.8026C208.774 48.771 212.616 49.1092 216.4 49.8125C216.746 49.8754 217.071 50.0193 217.35 50.2324C217.629 50.4455 217.853 50.7217 218.005 51.0384L229.191 74.5295C229.421 75.0101 229.47 75.5579 229.327 76.0716C229.185 76.5853 228.862 77.0301 228.416 77.3235C215.752 85.5857 190.643 85.9694 176.187 78.9995C175.982 78.8998 175.804 78.7529 175.667 78.5707C175.53 78.3885 175.438 78.1764 175.399 77.9518C175.36 77.7272 175.376 77.4966 175.444 77.279C175.511 77.0614 175.63 76.8632 175.79 76.7005L183.74 68.6011C183.982 68.3563 184.303 68.2062 184.646 68.1779C184.989 68.1495 185.331 68.2449 185.61 68.4466C190.944 72.2438 213.899 76.566 215.028 64.9799C215.028 60.877 210.57 57.5482 205.062 57.52C205.053 57.52 205.044 57.5182 205.035 57.5148C205.027 57.5113 205.02 57.5063 205.013 57.5C205.007 57.4937 205.002 57.4862 204.999 57.4779C204.995 57.4697 204.993 57.4608 204.993 57.4519C204.993 57.4427 204.992 57.4336 204.988 57.4252C204.985 57.4167 204.98 57.409 204.973 57.4025C204.967 57.396 204.959 57.3909 204.95 57.3874C204.942 57.3839 204.933 57.3821 204.924 57.3821C192.466 57.3206 175.345 52.5965 174.34 39.9971C173.727 23.7733 209.907 18.3698 225.056 26.5921C225.279 26.7128 225.465 26.8902 225.597 27.1064C225.729 27.3226 225.801 27.5698 225.806 27.823C225.812 28.0761 225.75 28.3262 225.627 28.5476C225.504 28.7691 225.325 28.9541 225.108 29.0838C221.466 31.2963 217.435 33.7348 213.938 35.8261C213.677 35.9828 213.372 36.0544 213.068 36.0312C212.764 36.008 212.474 35.8911 212.239 35.6966C206.973 31.3429 194.987 33.8445 195.11 40.9406C195.11 45.0485 199.449 48.7976 204.927 48.8192" fill="#FE0169"/>
<path d="M215.181 36.9673C218.484 34.974 223.105 32.1784 227.067 29.7233C227.239 29.6167 227.431 29.5476 227.632 29.5206C227.832 29.4936 228.036 29.5093 228.23 29.5667C228.424 29.6242 228.604 29.722 228.758 29.8537C228.911 29.9855 229.035 30.1482 229.121 30.3313L237.907 48.9355C239.681 52.6879 245.123 52.3673 246.443 48.4371L254.549 24.2683C254.645 23.983 254.828 23.735 255.073 23.5595C255.317 23.3839 255.61 23.2896 255.911 23.2899H272.688C272.917 23.2895 273.142 23.3437 273.346 23.448C273.549 23.5523 273.725 23.7038 273.858 23.8897C273.991 24.0756 274.078 24.2906 274.111 24.5168C274.144 24.743 274.123 24.9739 274.049 25.1902L254.559 82.1689C254.463 82.4525 254.28 82.6988 254.036 82.8731C253.792 83.0474 253.5 83.1409 253.2 83.1406H235.925C235.651 83.141 235.382 83.063 235.151 82.9158C234.92 82.7687 234.735 82.5585 234.62 82.3101L214.62 38.8012C214.471 38.4801 214.445 38.1151 214.549 37.7765C214.653 37.4379 214.878 37.1497 215.181 36.9673Z" fill="#111111"/>
<path d="M289.173 23.3414L325.58 23.28C325.769 23.2798 325.956 23.3168 326.131 23.3889C326.305 23.461 326.464 23.5668 326.597 23.7002C326.731 23.8337 326.837 23.9921 326.909 24.1666C326.982 24.341 327.019 24.528 327.019 24.7168V41.7928C327.019 42.1924 326.86 42.5756 326.577 42.8581C326.295 43.1407 325.912 43.2994 325.512 43.2994H309.888C309.302 43.2994 308.739 43.5323 308.325 43.947C307.91 44.3616 307.677 44.9239 307.677 45.5103V81.7038C307.677 82.0849 307.526 82.4503 307.256 82.7198C306.987 82.9892 306.621 83.1406 306.24 83.1406H289.307C288.927 83.1402 288.562 82.9891 288.293 82.7205C288.023 82.4518 287.872 82.0875 287.87 81.7071L287.739 24.7816C287.739 24.5929 287.775 24.406 287.847 24.2315C287.919 24.057 288.024 23.8984 288.157 23.7646C288.291 23.6309 288.449 23.5247 288.623 23.4521C288.797 23.3795 288.984 23.3419 289.173 23.3414Z" fill="#111111"/>
<path d="M284.485 23.2982H277.601C277.301 23.298 277.008 23.392 276.764 23.5669C276.52 23.7418 276.337 23.9889 276.241 24.2733L264.848 57.8605C264.77 58.0895 264.731 58.3297 264.731 58.5714V81.7038C264.731 81.8924 264.768 82.0792 264.84 82.2535C264.912 82.4278 265.018 82.5862 265.151 82.7197C265.284 82.8531 265.443 82.959 265.617 83.0312C265.791 83.1034 265.978 83.1406 266.166 83.1406H284.488C284.869 83.1406 285.235 82.9892 285.504 82.7198C285.774 82.4503 285.925 82.0849 285.925 81.7038V24.7284C285.924 24.54 285.887 24.3535 285.814 24.1796C285.741 24.0057 285.635 23.8479 285.501 23.7151C285.368 23.5822 285.209 23.4771 285.035 23.4056C284.86 23.334 284.673 23.2976 284.485 23.2982Z" fill="#FF8C00"/>
</svg>
