<svg width="283" height="303" viewBox="0 0 283 303" fill="none" xmlns="http://www.w3.org/2000/svg">
<path d="M252.059 131.728L252.001 131.656L251.941 131.586C221.228 95.7795 166.29 85.4133 125.914 111.087C124.862 111.741 123.869 112.485 122.947 113.311L122.913 113.342L122.879 113.373C119.144 116.824 114.861 119.613 110.211 121.623C107.153 122.896 105.589 123.327 104.346 123.194L104.028 123.16H103.708C97.1083 123.16 90.2916 118.201 87.7871 110.362L87.7377 110.207L87.6799 110.055C85.1421 103.381 88.4322 95.5897 95.2416 91.2158C98.5188 89.1108 102.285 88.0737 105.991 88.4246C109.581 88.7645 113.525 90.4421 117.292 94.4761C120.604 98.454 125.255 101.086 130.377 101.855C135.566 102.635 140.854 101.445 145.215 98.5243L145.639 98.2403L146.009 97.8888C147.016 96.9324 149.644 95.1752 153.856 92.5406C154.728 91.9948 155.649 91.423 156.604 90.8295C159.939 88.758 163.698 86.4231 167.316 84.014C171.951 80.9282 176.669 77.5188 180.283 74.0797C182.091 72.3589 183.79 70.4738 185.071 68.4638C186.327 66.4934 187.458 63.9681 187.456 61.0878L187.455 60.7394L187.415 60.3934C185.269 42.1209 171.13 28.4414 155.234 19.6131C139.196 10.7056 119.901 5.86155 104.655 6.00302L104.617 6.00337L104.579 6.0042C71.91 6.72012 47.0686 19.2526 30.4689 38.0524C13.9562 56.7537 5.90528 81.3006 6.00084 105.682C6.0964 130.062 14.3381 154.617 30.8559 173.363C47.4587 192.205 72.1558 204.864 104.421 205.726L104.639 205.732L104.857 205.722C112.306 205.378 121.943 204.408 131.364 202.016C140.679 199.651 150.403 195.744 157.453 189.118C161.591 185.248 166.44 182.24 171.723 180.264L171.833 180.223L171.942 180.177C173.275 179.618 174.714 179.374 176.15 179.462L176.198 179.465L176.247 179.467C183.051 179.775 187.405 182.245 190.051 185.284C192.768 188.406 194.101 192.609 193.926 196.996C193.575 205.813 187.383 214.015 176.325 214.148L176.025 214.151L175.727 214.185C172.397 214.559 170.063 213.011 165.907 209.282C165.647 209.049 165.376 208.803 165.093 208.545C161.545 205.315 156.157 200.41 148.426 200.224C146.194 200.039 144.004 200.551 142.217 201.141C140.234 201.795 138.157 202.747 136.111 203.823C132.018 205.974 127.489 208.914 123.182 211.879C119.941 214.11 116.702 216.442 113.785 218.542C112.819 219.238 111.888 219.908 111.004 220.541C107.257 223.222 104.632 225.021 103.242 225.741L102.985 225.874L102.742 226.031C92.7504 232.496 90.2848 246.938 97.5229 256.398L97.5494 256.433L97.5763 256.467C118.339 282.804 143.856 295.169 169.263 296.792C194.53 298.407 219.183 289.371 238.425 273.851C257.669 258.33 271.782 236.099 275.69 210.948C279.618 185.664 273.151 157.907 252.059 131.728Z" fill="white" stroke="white" stroke-width="12" stroke-miterlimit="10"/>
<path d="M155.902 164.792L133.68 131.362C133.38 130.917 133.173 130.415 133.072 129.887C132.97 129.358 132.977 128.814 133.09 128.288C133.204 127.763 133.423 127.266 133.733 126.828C134.044 126.39 134.439 126.021 134.896 125.742C191.972 90.7206 267.092 138.312 258.256 207.129C248.426 281.659 154.491 304.841 111.227 246.075C110.914 245.647 110.69 245.161 110.568 244.644C110.445 244.127 110.427 243.591 110.514 243.067C110.6 242.543 110.79 242.042 111.072 241.593C111.354 241.145 111.722 240.758 112.155 240.455L143.157 219.474C147.046 216.842 149.274 217.151 150.583 218.687C177.891 251.32 228.804 215.371 205.348 177.409C196.409 163.059 175.691 158.113 161.062 166.084C160.198 166.561 159.188 166.693 158.232 166.454C157.276 166.214 156.444 165.621 155.902 164.792Z" fill="black"/>
<path d="M135.666 84.2292L168.794 61.8056C169.232 61.5077 169.605 61.1238 169.892 60.6769C170.179 60.23 170.374 59.7293 170.465 59.2046C170.556 58.68 170.541 58.1423 170.422 57.6236C170.302 57.1049 170.08 56.6158 169.769 56.1857C130.134 1.90622 42.7333 17.1738 25.0415 84.2386C6.12451 156.933 84.3173 214.341 146.443 176.528C146.899 176.249 147.294 175.88 147.605 175.443C147.916 175.005 148.135 174.508 148.249 173.983C148.364 173.457 148.372 172.914 148.272 172.385C148.172 171.856 147.966 171.354 147.668 170.908L126.876 139.633C124.268 135.708 122.086 135.146 120.313 136.073C82.7857 155.799 49.1936 103.075 85.1898 76.942C98.8624 67.0884 119.886 70.4416 130.431 83.4237C131.048 84.1912 131.926 84.6989 132.894 84.8479C133.862 84.9968 134.851 84.7763 135.666 84.2292Z" fill="black"/>
</svg>
